<?xml version="1.0" encoding="UTF-8"?><svg xmlns="http://www.w3.org/2000/svg" xmlns:xlink="http://www.w3.org/1999/xlink" viewBox="0 0 4499.14 2000"><defs><style>.cls-1{fill:none;}.cls-2{fill:url(#linear-gradient);}.cls-3{clip-path:url(#clippath);}.cls-4{fill:#f79c8d;}.cls-5{fill:#f8a492;}.cls-6{fill:#f8c558;}.cls-7{fill:#f47458;}.cls-8{fill:#f7cc7f;}.cls-9{fill:#f4f4f4;}.cls-10{fill:#fff;}.cls-11{fill:#fae0b2;}.cls-12{fill:#fe875e;}.cls-13{fill:#efefef;}.cls-14{fill:#e5bd83;}.cls-15{fill:#fec65e;}.cls-16{fill:#96a4cd;}.cls-17{fill:#96d9c9;}.cls-18{fill:#b75742;}.cls-19{fill:#9e9e9e;}.cls-20{fill:#b6d7ff;}.cls-21{fill:#d1d1d1;}.cls-22{fill:#13375b;}.cls-23{fill:#171c51;}.cls-24{fill:#1d135b;}.cls-25{fill:#355389;}.cls-26{fill:#184655;}.cls-27{fill:#3c8f7c;}.cls-28{fill:#1b77e3;}.cls-29{fill:#7181aa;}.cls-30{fill:#466eb6;}.cls-31{fill:#86b1f2;}.cls-32{fill:#587cf8;}.cls-33{fill:#50bfa5;}.cls-34{clip-path:url(#clippath-1);}.cls-35{fill:#e2e2e2;}.cls-35,.cls-36{mix-blend-mode:soft-light;}.cls-37{isolation:isolate;}.cls-38{mix-blend-mode:multiply;opacity:.4;}</style><linearGradient id="linear-gradient" x1="5046.89" y1="882.14" x2="-432.89" y2="1113.02" gradientUnits="userSpaceOnUse"><stop offset=".32" stop-color="#63c6ff"/><stop offset=".39" stop-color="#54b6f9"/><stop offset=".54" stop-color="#3b9aef"/><stop offset=".69" stop-color="#2986e8"/><stop offset=".85" stop-color="#1e7ae4"/><stop offset="1" stop-color="#1b77e3"/></linearGradient><clipPath id="clippath"><rect class="cls-1" x="2589.14" y="804.25" width="451.67" height="422.35" rx="32.92" ry="32.92"/></clipPath><clipPath id="clippath-1"><path class="cls-1" d="m3085.39,738.52v852.82c0,22.05-17.95,39.99-40.01,39.99h-450.99c-22.05,0-39.99-17.94-39.99-39.99v-852.82h530.98Z"/></clipPath></defs><g class="cls-37"><g id="Layer_2"><g id="Object"><rect class="cls-2" width="4499.14" height="2000"/><path class="cls-35" d="m2520,696c-213.92,137.28-301.68,258-344.08,372.88-64,172.88-25.28,332.48-159.92,515.12-39.76,53.92-81.52,105.84-126.48,154.8-94.48,103.04-203.12,193.04-336.64,261.2H0V0h2923.12c50.24,245.6-54.88,472.48-403.12,696Z"/><path class="cls-35" d="m3112,432c-80,352-424,480-720,568-71.84,21.36-146.08,43.2-216.08,68.88-218.56,79.84-396.48,196.64-335.92,451.12,19.52,82,36.72,154,49.52,218.8,20.16,101.12,30,184.64,22.32,261.2H0V0h3029.68c72.8,146.8,115.04,288.08,82.32,432Z"/><path class="cls-35" d="m3895.64,1779.85s248-224,224-536-240-416-264-560-24-384-336-424-552,360-880,320c-193.22-23.56-648,136-648,472s184,728,184,728h1720Z"/><path class="cls-35" d="m2023.64,1779.85s-195.46-440,118.97-752c314.43-312-85.35-604.93,209.62-816,335.41-240,740.26,104,959.41,328s458.42,137.26,678.51,268.63c220.09,131.37,330.3,363.37,225.49,587.37s-168,384-168,384h-2024Z"/><g id="OBJECT"><path class="cls-28" d="m4082.16,1774.95l-7.08-7.9c2.06-1.84,3.23-5.56,3.07-9.7-.17-4.22-1.73-8.07-3.99-9.79-16.61-12.66-55.07-2.09-83.15,5.63-24.62,6.77-39.49,10.86-45.32,3.4-4.37-5.58-.04-13.31,1.38-15.84,9.57-17.08,42.53-25.86,80.69-36.02,50.88-13.55,108.55-28.91,107.16-65.2-.31-8.14-2.86-14.14-7.8-18.34-13.72-11.71-43.85-8.08-65.84-5.43-19.72,2.37-31.63,3.81-35.38-3.77-3.17-6.39,2.73-13.8,9.58-20.86,15.91-16.41,32.27-48.66,41.69-82.17,10.28-36.57,10.83-67.58,1.52-85.09-7.14-13.42-19.72-18.32-38.46-14.97-44.28,7.92-52.23,58.96-59.25,103.98-2.99,19.2-5.82,37.34-11.35,50.39-6.76,15.95-17.44,23.03-31.74,21.09-31.62-4.31-38.08-34.13-43.27-58.09-3.15-14.54-6.13-28.28-13.61-32.13-4.2-2.16-10.54-1.43-18.84,2.16-25.43,11-18.59,55.78-11.97,99.08,3.36,21.96,6.83,44.66,5.92,62.89-1.1,22.12-8.62,35.53-22.97,41-30.53,11.63-42.66-12.59-51.52-30.27-5.2-10.38-10.12-20.18-16.79-21.36-5.35-.94-12.98,3.22-22.67,12.37-25.82,24.37-14.6,73.78,2.85,108.67l-9.49,4.74c-4.53-9.06-15.39-32.96-18.41-59.26-3.1-27,2.88-47.82,17.76-61.87,12.61-11.91,22.71-16.71,31.79-15.1,11.92,2.1,18.28,14.79,24.43,27.05,10.39,20.73,18.15,32.77,38.26,25.11,23.12-8.81,16.62-51.29,10.34-92.37-7.23-47.28-14.7-96.17,18.24-110.42,11.52-4.98,20.64-5.59,27.9-1.86,11.95,6.14,15.44,22.26,19.13,39.32,4.95,22.87,10.08,46.52,34.34,49.83,19.95,2.72,24.85-22.01,31.17-62.6,7.19-46.13,16.13-103.54,67.86-112.79,29.31-5.24,43.2,8.22,49.7,20.43,10.58,19.9,10.34,53.77-.67,92.94-10.01,35.62-26.98,68.83-44.29,86.68-4.23,4.37-6.07,6.97-6.86,8.38,4.45.66,15.45-.67,23.78-1.67,25.28-3.04,56.73-6.83,73.99,7.89,7.21,6.15,11.08,14.9,11.51,26.01,1.72,44.76-60.3,61.28-115.03,75.85-32.83,8.74-66.78,17.79-74.16,30.96-1.11,1.99-1.59,3.27-1.79,4.02,5.03.87,21.46-3.64,33.66-6.99,31.9-8.77,71.6-19.69,92.39-3.84,4.81,3.67,7.86,10.32,8.16,17.8.29,7.33-2.18,14.07-6.59,18.02Z"/><path class="cls-28" d="m3904.13,1774.08l-8.72-6.04c44.44-64.2,103.92-167.65,134.91-295.87l10.31,2.49c-31.37,129.81-91.54,234.47-136.5,299.42Z"/><rect class="cls-28" x="3955.16" y="1658.49" width="123.77" height="10.61" transform="translate(-269.61 936.18) rotate(-12.86)"/><rect class="cls-28" x="3904.71" y="1603.83" width="10.61" height="132.7" transform="translate(-256.29 821.88) rotate(-11.62)"/><rect class="cls-28" x="3792.09" y="1731.5" width="10.61" height="43.18" transform="translate(-331.78 2418.98) rotate(-33.94)"/><path class="cls-28" d="m1921.56,1781.67c-51.97,0-96.03-19.51-117.86-52.19-12.87-19.26-15.86-40.88-8.22-59.31,6.11-14.72,36.69-8.75,86.07,2.21,17.54,3.89,35.68,7.92,49.75,9.71,20.2,2.58,23.25-.68,23.53-1.05.26-.35.42-2.14-1.88-6.25-9.51-16.97-50.35-27.84-93.59-39.36-67.97-18.1-145.01-38.62-142.9-93.55.52-13.5,5.21-24.13,13.93-31.57,21.15-18.04,61.83-13.14,91.53-9.57,11.69,1.41,27.45,3.3,31.81,1.7-.48-1.38-2.33-4.92-9.54-12.35-21.5-22.18-42.6-63.51-55.07-107.86-13.68-48.67-14.02-90.68-.94-115.27,7.92-14.89,24.89-31.28,60.76-24.87,28.62,5.12,49.17,22.58,62.82,53.37,11.53,26.02,16.55,58.21,20.98,86.61,8.04,51.57,14.29,82.99,40.48,79.41,31.27-4.26,37.78-34.31,44.07-63.36,4.56-21.03,8.86-40.89,23.24-48.28,8.7-4.47,19.75-3.7,33.76,2.36,40.27,17.42,31,78.05,22.03,136.69-4.11,26.88-8.36,54.67-7.28,76.27,1.13,22.74,7.83,35.68,21.06,40.72,28.67,10.92,42.8-7.86,56.46-26.02,8.96-11.91,17.43-23.17,29.53-23.17.19,0,.37,0,.56,0,10.59.3,21.04,9.02,33.88,28.27,12.67,19,17.64,41.26,14.78,66.15-2.25,19.54-9.33,40.72-21.05,62.95-19.77,37.5-45.62,64.78-46.71,65.93l-7.68-7.32c.26-.27,26.04-27.5,45.1-63.74,25-47.54,27.27-87.27,6.73-118.08-10.3-15.45-18.83-23.37-25.35-23.56-6.97-.19-13.59,8.67-21.31,18.93-13.75,18.28-32.58,43.33-68.71,29.56-17.41-6.63-26.53-23.02-27.88-50.1-1.13-22.67,3.2-51,7.39-78.4,8.36-54.66,17-111.19-15.76-125.35-10.92-4.72-19-5.59-24.7-2.66-9.93,5.1-13.71,22.58-17.72,41.09-6.4,29.56-14.38,66.36-53.01,71.63-17.46,2.38-29.99-5.99-38.29-25.58-6.85-16.17-10.38-38.78-14.11-62.71-8.85-56.76-18.87-121.1-75.19-131.17-23.75-4.25-40.41,2.28-49.52,19.41-25.16,47.3,10.87,166,54.26,210.76,8.22,8.48,15.34,17.33,11.75,24.58-4.28,8.63-18.82,6.88-42.91,3.98-27.76-3.34-65.77-7.92-83.38,7.1-6.47,5.52-9.81,13.34-10.22,23.91-1.79,46.45,70.9,65.81,135.03,82.89,47.44,12.64,88.41,23.55,100.11,44.42,4.09,7.3,4.47,13.27,1.14,17.76-8.52,11.47-37.51,5.71-84.09-4.63-18.37-4.08-37.37-8.3-51.82-9.98-20.32-2.37-22.15,1.44-22.16,1.48-6.26,15.1-3.62,33.09,7.24,49.36,19.86,29.73,60.62,47.47,109.04,47.47v10.61Z"/><path class="cls-28" d="m2071.52,1779.88c-.4-.45-40.69-46.18-88.14-123.38-27.85-45.31-52.72-92.49-73.91-140.22-26.5-59.68-47.3-120.41-61.82-180.5l10.31-2.49c32.53,134.59,91,246.91,134.32,317.43,46.98,76.48,86.79,121.67,87.18,122.12l-7.94,7.04Z"/><rect class="cls-28" x="1870.55" y="1495.28" width="10.61" height="154.82" transform="translate(-75.02 3051.28) rotate(-77.13)"/><rect class="cls-28" x="1926.74" y="1575.37" width="165.99" height="10.61" transform="translate(56.52 3230.68) rotate(-78.38)"/><rect class="cls-28" x="2058.25" y="1713.86" width="137.89" height="10.61" transform="translate(-486.71 2524.14) rotate(-56.06)"/><rect class="cls-28" x="1955.63" y="1687.14" width="10.61" height="137.34" transform="translate(-301.28 3101.37) rotate(-72.59)"/><path class="cls-28" d="m3425.3,432.85c-24.12,0-43.75-19.63-43.75-43.75s19.63-43.75,43.75-43.75,43.75,19.63,43.75,43.75-19.63,43.75-43.75,43.75Zm0-76.89c-18.27,0-33.14,14.87-33.14,33.14s14.87,33.14,33.14,33.14,33.14-14.87,33.14-33.14-14.87-33.14-33.14-33.14Z"/><path class="cls-28" d="m2387.67,406.7c-24.12,0-43.75-19.63-43.75-43.75s19.63-43.75,43.75-43.75,43.75,19.63,43.75,43.75-19.63,43.75-43.75,43.75Zm0-76.89c-18.28,0-33.14,14.87-33.14,33.14s14.87,33.14,33.14,33.14,33.14-14.87,33.14-33.14-14.87-33.14-33.14-33.14Z"/><path class="cls-28" d="m1985.46,1094.66c-24.12,0-43.75-19.63-43.75-43.75s19.63-43.75,43.75-43.75,43.75,19.63,43.75,43.75-19.63,43.75-43.75,43.75Zm0-76.89c-18.28,0-33.14,14.87-33.14,33.14s14.87,33.14,33.14,33.14,33.14-14.87,33.14-33.14-14.87-33.14-33.14-33.14Z"/><path class="cls-28" d="m3038.67,406.7c-24.12,0-43.75-19.63-43.75-43.75s19.63-43.75,43.75-43.75,43.75,19.63,43.75,43.75-19.63,43.75-43.75,43.75Zm0-76.89c-18.27,0-33.14,14.87-33.14,33.14s14.87,33.14,33.14,33.14,33.14-14.87,33.14-33.14-14.87-33.14-33.14-33.14Z"/><path class="cls-28" d="m2033.49,971.39c-.79,0-1.59-.07-2.38-.22l-43.01-8.19c-4.91-.94-8.85-4.68-10.04-9.54l-3.88-15.94,79.24,15.09-9.47,13.39c-2.42,3.42-6.36,5.41-10.46,5.41Zm-43.41-18.84l43.01,8.19c.81.16,1.65-.16,2.15-.82l-46.85-8.92c.23.79.88,1.4,1.7,1.55h0Z"/><path class="cls-28" d="m2047.32,961.7c-1.84,0-3.68-.17-5.52-.52l-59.98-11.42c-8.44-1.61-15.73-6.8-20.01-14.24l-14.02-24.37c-3.51-6.11-4.72-13.28-3.41-20.2l12.49-65.61,153.86,29.3-12.49,65.61c-1.32,6.92-5.08,13.15-10.59,17.53l-22,17.51c-5.26,4.18-11.72,6.41-18.33,6.41Zm-82.01-123.94l-10.51,55.19c-.84,4.43-.07,9.01,2.18,12.92l14.02,24.36c2.74,4.76,7.41,8.08,12.8,9.11l59.98,11.42c5.4,1.03,10.96-.35,15.26-3.77l22-17.51c3.53-2.81,5.93-6.79,6.77-11.22l10.51-55.18-133.01-25.33Z"/><path class="cls-28" d="m2103.86,863.81c-1.01,0-2.03-.08-3.05-.26-46.93-2.39-93.52-11.26-138.49-26.37-9.27-1.97-15.69-10.78-14.67-20.24,4.47-41.5-4.42-57.44-17.88-81.56-6.62-11.86-14.11-25.3-21.73-44.32l-.42-1.04c-.4-1.01-.79-2.02-1.17-3.04l-.32-.87c-.34-.92-.68-1.86-1.01-2.79-.14-.4-.28-.8-.42-1.2-.34-1-.68-2-1-3.01l-.22-.66c-.38-1.2-.75-2.4-1.1-3.6l-.33-1.14c-.27-.92-.53-1.85-.78-2.78l-.29-1.07c-.32-1.22-.63-2.44-.93-3.67l-.2-.86c-.24-.99-.46-1.99-.68-2.99l-.25-1.18c-.24-1.11-.46-2.23-.68-3.35l-.1-.49c-.24-1.26-.46-2.53-.67-3.8l-.18-1.12c-.16-.99-.31-1.99-.45-2.99l-.14-1.01c-.18-1.28-.34-2.56-.49-3.85l-.09-.83c-.12-1.06-.22-2.11-.32-3.17l-.1-1.15c-.1-1.22-.2-2.43-.28-3.65l-.02-.31c-.08-1.32-.15-2.64-.2-3.96l-.04-1.1c-.04-1.05-.06-2.1-.08-3.16l-.02-.95c-.02-1.33-.02-2.65,0-3.98v-.84c.03-1.09.06-2.18.09-3.27l.04-1.12c.05-1.3.11-2.61.19-3.92v-.13c.09-1.35.19-2.7.31-4.05l.1-1.1c.1-1.09.21-2.18.33-3.27l.1-.91c.15-1.34.32-2.69.51-4.04l.12-.86c.16-1.1.32-2.2.5-3.31l.18-1.12c.23-1.36.47-2.72.73-4.09.28-1.5.59-2.99.91-4.47.06-.29.13-.58.2-.87l.12-.52c.24-1.06.46-2.04.7-3.03.09-.37.18-.74.28-1.1l.24-.92c.2-.78.39-1.57.6-2.34.11-.41.23-.82.34-1.23l.28-1.01c.19-.69.39-1.38.59-2.07.13-.45.27-.9.41-1.35l.25-.82c.21-.7.43-1.4.65-2.09.15-.47.31-.94.47-1.41l.22-.66c.24-.71.48-1.43.73-2.14.18-.5.36-1,.54-1.5l.2-.55c.26-.7.51-1.41.78-2.11.2-.54.41-1.07.62-1.61l.11-.29c.29-.74.58-1.48.88-2.21.23-.58.47-1.15.71-1.72l.07-.16c.31-.73.61-1.45.92-2.17.27-.63.55-1.25.83-1.87.32-.71.64-1.42.97-2.12.29-.62.58-1.23.88-1.85.34-.7.67-1.4,1.02-2.09.3-.61.61-1.22.92-1.82.35-.69.7-1.37,1.06-2.05.32-.6.64-1.2.96-1.8.36-.68.73-1.35,1.11-2.02.33-.59.66-1.18,1-1.77.38-.67.77-1.33,1.16-1.99.34-.58.69-1.16,1.04-1.74.4-.65.8-1.3,1.2-1.95.36-.58.72-1.15,1.08-1.72.41-.64.83-1.28,1.24-1.92.38-.58.75-1.14,1.12-1.69.42-.63.86-1.26,1.29-1.88l.15-.22c.33-.48.66-.95,1-1.43.42-.59.84-1.18,1.27-1.76l.3-.41c.32-.44.63-.87.95-1.3.41-.54.82-1.08,1.23-1.62l.46-.6c.3-.39.6-.79.91-1.18.41-.52.82-1.04,1.24-1.56l.53-.66c.3-.37.6-.75.9-1.11.41-.5.82-.99,1.24-1.48l.64-.76c.29-.34.57-.68.87-1.02.43-.5.87-.99,1.31-1.49l.7-.79c.27-.31.54-.62.82-.92.47-.52.94-1.02,1.41-1.53l.71-.76c.26-.28.51-.55.77-.83.59-.62,1.19-1.24,1.79-1.85l.56-.57c.2-.21.4-.42.61-.62,1-1,2-1.99,3.02-2.97.15-.15.31-.29.46-.44l.28-.26c.78-.74,1.56-1.47,2.35-2.2.27-.24.53-.48.8-.72l.76-.68c.53-.48,1.06-.95,1.6-1.42.31-.27.61-.53.92-.79l.87-.74c.48-.41.95-.81,1.43-1.21.36-.3.71-.59,1.07-.88l.73-.59c.49-.4.99-.81,1.49-1.2.37-.3.75-.59,1.14-.89l.71-.55c.5-.39,1-.77,1.5-1.16.4-.3.8-.6,1.21-.9l.58-.43c.54-.4,1.07-.79,1.62-1.18.45-.32.89-.64,1.34-.95l.44-.31c.56-.39,1.12-.79,1.68-1.17.48-.33.96-.65,1.45-.98l.23-.15c.65-.43,1.24-.83,1.84-1.22.55-.36,1.11-.71,1.67-1.07.67-.42,1.29-.82,1.91-1.2.58-.36,1.16-.71,1.74-1.06.63-.38,1.25-.75,1.89-1.12.58-.34,1.18-.68,1.77-1.02.63-.36,1.27-.72,1.9-1.07.6-.33,1.2-.66,1.8-.99.64-.35,1.28-.69,1.93-1.03.61-.32,1.22-.64,1.83-.95.65-.33,1.3-.66,1.95-.98.62-.31,1.23-.61,1.85-.9.66-.32,1.32-.63,1.98-.94.62-.29,1.24-.58,1.87-.86.67-.3,1.33-.6,2-.89.63-.27,1.26-.55,1.89-.82.67-.29,1.35-.56,2.02-.84.63-.26,1.27-.52,1.91-.78.68-.27,1.36-.53,2.04-.79l.16-.06c.59-.23,1.18-.45,1.77-.67.61-.23,1.23-.45,1.85-.67l.59-.21c.52-.19,1.05-.37,1.58-.56.61-.21,1.22-.41,1.83-.61l.75-.25c.49-.16.98-.32,1.47-.48.6-.19,1.19-.37,1.78-.55l.85-.26c.48-.15.97-.3,1.46-.44.57-.16,1.14-.32,1.71-.48l1.02-.28c.46-.13.93-.26,1.39-.38.57-.15,1.15-.3,1.73-.44l1.1-.28c.44-.11.89-.23,1.34-.33.59-.14,1.18-.27,1.77-.41l1.14-.26c.43-.1.85-.2,1.28-.29.72-.15,1.43-.3,2.15-.44l1.01-.2c.35-.07.7-.14,1.06-.21,1.39-.26,2.79-.51,4.2-.74.37-.06.74-.12,1.12-.17l1.16-.18c.67-.1,1.33-.21,2-.3.44-.06.88-.12,1.33-.17l1.2-.15c.59-.08,1.18-.15,1.77-.22.47-.06.95-.1,1.43-.15l1.11-.11c.59-.06,1.19-.12,1.78-.18.51-.05,1.02-.09,1.53-.12l.98-.08c.61-.05,1.22-.1,1.82-.14.54-.04,1.08-.06,1.62-.09l.94-.05c.6-.03,1.21-.07,1.81-.09.58-.02,1.16-.04,1.75-.06l.69-.02c.65-.02,1.3-.04,1.95-.05.6-.01,1.21-.01,1.82-.02h.44c.72,0,1.43,0,2.15,0,.64,0,1.29.02,1.94.03h.25c.74.02,1.49.03,2.23.06.73.02,1.46.06,2.2.09.75.03,1.49.07,2.24.11.73.04,1.47.09,2.21.14.74.05,1.49.11,2.24.17.74.06,1.48.13,2.22.2.74.07,1.49.14,2.24.22.74.08,1.48.16,2.22.25l.43.05c.24.03.48.05.72.08.2.03.4.05.61.08l.35.05c.95.12,1.91.26,2.86.4.67.1,1.34.2,2.01.3.92.15,1.84.3,2.77.47l.32.06c.57.1,1.15.2,1.72.31l.25.04c.16.03.32.06.48.09.48.09.95.19,1.43.29l1.25.26c.42.08.85.17,1.27.26,1.25.27,2.49.55,3.73.84l.83.19c88.7,21.32,147.36,105.68,136.43,196.24l-.11.86c-.15,1.22-.32,2.43-.49,3.64-.08.54-.16,1.09-.25,1.63-.15.98-.31,1.96-.48,2.94-.11.67-.23,1.35-.36,2.02l-.08.43c-.04.25-.09.49-.13.74-.06.31-.12.63-.19.95l-.11.55c-.14.7-.28,1.4-.43,2.1-.19.92-.4,1.84-.61,2.75l-.1.42c-.11.5-.23,1.01-.35,1.51-.24,1.03-.5,2.04-.77,3.06l-.12.47c-.06.26-.13.53-.2.79l-.4,1.47c-.31,1.14-.64,2.28-.97,3.41l-.15.51c-.37,1.24-.76,2.47-1.15,3.69l-.32.99c-.4,1.21-.8,2.41-1.22,3.6l-.28.77c-.38,1.05-.76,2.1-1.15,3.14l-.31.81c-.45,1.17-.91,2.33-1.38,3.49l-.37.9c-.5,1.22-.99,2.37-1.5,3.51l-.2.45c-.48,1.07-.96,2.13-1.45,3.19l-.43.92c-.53,1.12-1.07,2.22-1.61,3.32l-.43.85c-.49.98-.99,1.94-1.5,2.9l-.35.66c-.58,1.08-1.17,2.16-1.77,3.23l-.53.94c-.6,1.06-1.22,2.12-1.84,3.17l-.4.66c-.55.91-1.11,1.81-1.67,2.71l-.53.85c-.64,1.01-1.29,2.01-1.95,3.01l-.6.9c-.61.91-1.23,1.81-1.85,2.7l-.42.61c-.67.95-1.35,1.88-2.03,2.81l-.67.9c-.71.95-1.42,1.89-2.15,2.83l-.61.78c-.62.79-1.24,1.57-1.87,2.35l-.61.76c-.74.9-1.49,1.8-2.26,2.69l-.76.89c-.76.88-1.52,1.75-2.3,2.61l-.7.77c-.39.42-.77.85-1.16,1.27l-1.33,1.42c-14.13,15.03-26.23,24.85-36.9,33.5-21.54,17.47-35.77,29.01-46.8,69.01-2.25,8.17-9.8,13.69-18.02,13.69Zm-186.37-177.7l.4.99c7.37,18.4,14.69,31.53,21.15,43.11,13.93,24.97,23.99,43.01,19.16,87.86-.45,4.14,2.41,7.99,6.49,8.76l.36.07.34.12c44.26,14.9,90.11,23.63,136.29,25.95l.37.02.36.07c4.09.78,8.15-1.75,9.26-5.76,11.93-43.28,28.04-56.34,50.34-74.43,10.41-8.44,22.21-18.02,35.88-32.55l1.27-1.35c.36-.39.72-.79,1.08-1.18l.67-.73c.73-.81,1.45-1.63,2.16-2.46l.72-.83c.72-.84,1.43-1.68,2.13-2.54l.57-.71c.59-.73,1.18-1.46,1.76-2.2l.58-.74c.68-.88,1.35-1.76,2.02-2.65l.63-.85c.64-.87,1.28-1.75,1.91-2.64l.4-.57c.59-.84,1.17-1.69,1.74-2.54l.57-.84c.62-.94,1.23-1.88,1.84-2.83l.5-.8c.53-.84,1.05-1.69,1.57-2.55l.37-.62c.59-.99,1.17-1.98,1.74-2.98l.5-.88c.57-1.01,1.13-2.02,1.67-3.04l.33-.63c.47-.9.94-1.81,1.41-2.72l.41-.8c.52-1.04,1.02-2.08,1.52-3.12l.4-.87c.47-1,.92-2,1.37-3l.19-.44c.47-1.07.93-2.15,1.38-3.24l.37-.9c.45-1.09.88-2.18,1.3-3.29l.29-.76c.37-.98.73-1.97,1.09-2.96l.26-.72c.4-1.12.78-2.25,1.15-3.39l.3-.93c.37-1.16.74-2.31,1.08-3.48l.14-.48c.32-1.07.62-2.14.91-3.22l.38-1.38c.05-.2.1-.4.15-.59l.15-.59c.25-.96.49-1.92.72-2.88.11-.46.22-.93.32-1.39l.1-.43c.2-.86.39-1.72.57-2.59.14-.66.27-1.32.4-1.98l.13-.65c.05-.26.11-.51.16-.77.04-.19.07-.37.1-.56l.1-.55c.12-.64.23-1.27.34-1.9.16-.93.31-1.85.45-2.77.08-.51.16-1.02.23-1.54.17-1.15.32-2.28.46-3.42l.1-.82c10.28-85.21-44.91-164.6-128.38-184.66l-.78-.18c-1.17-.27-2.34-.54-3.52-.79-.38-.08-.76-.16-1.14-.23l-1.32-.27c-.42-.09-.84-.17-1.26-.26l-.68-.12c-.53-.1-1.06-.19-1.59-.28l-.33-.06c-.87-.15-1.74-.3-2.6-.44-.63-.1-1.26-.19-1.89-.29-.9-.13-1.79-.26-2.69-.38l-.9-.13c-.18-.02-.36-.04-.54-.06l-.54-.06c-.7-.08-1.4-.16-2.09-.24-.7-.08-1.41-.14-2.11-.21-.7-.07-1.39-.13-2.09-.19-.7-.06-1.4-.11-2.11-.16-.69-.05-1.39-.09-2.08-.13-.7-.04-1.4-.07-2.1-.1-.69-.03-1.38-.06-2.07-.08-.7-.02-1.4-.04-2.1-.05h-.25c-.6-.02-1.21-.03-1.81-.03-.67,0-1.34,0-2.01,0h-.45c-.56,0-1.12,0-1.68.02-.61.01-1.21.03-1.81.05l-.71.02c-.54.01-1.07.03-1.61.05-.56.02-1.11.05-1.67.08l-.96.05c-.49.03-.98.05-1.47.08-.56.04-1.12.08-1.68.13l-1.02.08c-.46.04-.92.07-1.38.11-.55.05-1.09.11-1.63.16l-1.16.12c-.43.04-.85.09-1.28.13-.54.06-1.08.13-1.62.2l-1.26.16c-.39.05-.78.1-1.17.15-.61.09-1.23.18-1.84.28l-1.23.19c-.32.05-.64.09-.95.15-1.32.22-2.64.45-3.95.7-.3.06-.59.12-.89.18l-1.09.22c-.66.13-1.33.26-1.99.4-.38.08-.75.17-1.13.25l-1.2.27c-.54.12-1.08.24-1.62.37-.4.1-.79.2-1.19.3l-1.14.29c-.53.13-1.06.26-1.58.4-.42.11-.84.23-1.25.34l-1.05.29c-.53.15-1.05.29-1.58.44-.44.13-.88.26-1.32.4l-.87.27c-.55.17-1.1.33-1.65.51-.45.14-.9.29-1.35.44l-.76.25c-.57.19-1.14.37-1.7.57-.49.17-.97.34-1.46.51l-.59.21c-.58.21-1.15.41-1.73.62-.55.2-1.1.42-1.65.63l-.16.06c-.64.25-1.29.49-1.92.75-.6.24-1.2.48-1.8.73-.64.26-1.27.52-1.91.79-.59.25-1.18.51-1.77.77-.63.28-1.26.56-1.89.84-.59.27-1.17.54-1.75.81-.62.29-1.24.58-1.86.88-.58.28-1.16.56-1.74.85-.61.3-1.23.61-1.84.92-.58.29-1.15.59-1.72.89-.6.32-1.21.64-1.81.97-.57.31-1.13.62-1.7.93-.6.33-1.2.67-1.79,1.01-.56.32-1.11.64-1.67.96-.6.35-1.19.7-1.78,1.06-.55.33-1.09.66-1.64,1-.59.36-1.17.73-1.75,1.1-.57.36-1.09.69-1.61,1.03-.57.37-1.13.74-1.69,1.12l-.27.18c-.45.3-.9.6-1.35.91-.53.36-1.05.73-1.57,1.1l-.45.31c-.41.29-.83.58-1.24.88-.5.36-1,.73-1.51,1.1l-.6.44c-.37.27-.74.54-1.1.82-.46.35-.93.71-1.39,1.07l-.73.56c-.34.27-.69.53-1.03.8-.46.37-.92.74-1.37,1.11l-.76.62c-.32.26-.64.52-.96.78-.44.37-.88.74-1.32,1.12l-.91.77c-.27.23-.54.46-.81.69-.49.43-.99.87-1.48,1.32l-.81.73c-.23.2-.46.41-.69.62-.74.68-1.48,1.38-2.21,2.07l-.7.66c-.96.92-1.9,1.85-2.84,2.79-.16.17-.33.33-.49.5l-.62.63c-.56.57-1.12,1.15-1.68,1.73-.22.24-.44.48-.66.71l-.75.81c-.44.47-.88.94-1.31,1.42-.24.27-.48.54-.72.81l-.73.82c-.4.45-.81.91-1.21,1.37-.26.3-.52.61-.78.92l-.66.78c-.39.46-.77.91-1.15,1.37-.28.34-.55.67-.82,1.01l-.54.68c-.39.48-.77.96-1.15,1.45-.28.36-.55.72-.83,1.08l-.46.61c-.39.5-.77,1.01-1.15,1.52-.3.4-.59.8-.88,1.2l-.3.41c-.4.55-.8,1.1-1.19,1.65-.31.44-.62.89-.93,1.33l-.15.22c-.41.59-.81,1.18-1.21,1.77-.35.52-.69,1.04-1.03,1.56-.41.62-.8,1.22-1.19,1.83-.34.54-.68,1.07-1.01,1.61-.38.61-.76,1.22-1.13,1.83-.33.54-.65,1.09-.98,1.64-.37.62-.73,1.24-1.08,1.86-.32.55-.63,1.11-.94,1.67-.35.63-.7,1.26-1.04,1.9-.3.56-.61,1.13-.9,1.69-.34.64-.67,1.29-1,1.93-.29.57-.58,1.14-.86,1.71-.32.66-.64,1.31-.96,1.97-.28.57-.55,1.15-.82,1.74-.31.66-.61,1.33-.91,2-.26.58-.52,1.17-.78,1.76-.29.68-.58,1.36-.87,2.04l-.07.16c-.22.53-.45,1.07-.67,1.61-.28.69-.55,1.38-.82,2.08l-.11.29c-.19.5-.39.99-.58,1.49-.25.65-.49,1.31-.73,1.97l-.2.56c-.17.46-.33.92-.49,1.38-.23.66-.45,1.33-.68,2l-.23.68c-.14.43-.29.86-.43,1.29-.21.64-.41,1.3-.61,1.95l-.26.86c-.13.4-.25.81-.37,1.21-.19.64-.37,1.28-.55,1.92l-.3,1.06c-.1.36-.21.72-.3,1.09-.2.73-.38,1.45-.56,2.18l-.25.98c-.08.32-.16.63-.24.95-.22.92-.43,1.85-.64,2.78l-.15.67c-.05.23-.11.47-.16.71-.3,1.4-.59,2.8-.86,4.21-.24,1.29-.47,2.57-.68,3.85l-.17,1.05c-.17,1.04-.32,2.08-.47,3.11l-.12.82c-.17,1.27-.33,2.54-.48,3.81l-.09.85c-.11,1.03-.21,2.05-.31,3.07l-.09,1.04c-.11,1.27-.21,2.54-.28,3.81v.13c-.08,1.22-.14,2.45-.19,3.68l-.04,1.06c-.03,1.03-.06,2.05-.07,3.07v.8c-.03,1.24-.02,2.49,0,3.73l.02.9c.02.99.04,1.98.08,2.97l.04,1.04c.05,1.24.11,2.48.19,3.72l.02.3c.07,1.14.16,2.29.26,3.43l.1,1.08c.09.99.19,1.99.3,2.98l.08.78c.14,1.22.29,2.42.46,3.63l.14.94c.14.94.28,1.88.43,2.82l.17,1.06c.2,1.19.41,2.38.63,3.57l.09.46c.2,1.05.41,2.1.64,3.14l.24,1.11c.21.94.42,1.88.64,2.81l.19.8c.28,1.16.57,2.31.88,3.46l.27,1.01c.24.88.48,1.75.73,2.61l.31,1.08c.33,1.13.68,2.26,1.04,3.39l.21.63c.31.95.62,1.89.94,2.83l.39,1.13c.31.88.62,1.75.95,2.63l.3.82c.36.96.73,1.91,1.1,2.86h0Z"/><path class="cls-28" d="m2061.07,855.36l-10.42-2c.08-.42,8.17-42.45,19.92-86.37,6.93-25.89,13.76-47.4,20.31-63.93.33-.83.66-1.65.99-2.45-11.86-.89-26.39-3.61-44.18-9.07-4.62-1.42-8.91-2.88-12.88-4.36.27,7.33-.07,15.31-1.02,23.93-12.43,112.9-17.09,135.16-17.28,136.05l-10.37-2.23c.04-.21,4.8-23.2,17.1-134.98,1.16-10.55,1.27-19.6.64-27.28-27.22-12.41-35.32-26.21-32.93-36.19,1.68-7,8.61-11.09,16.49-9.71,8.61,1.5,16.35,8.76,21.23,19.92,2.38,5.44,4.08,11.68,5.09,18.68,4.97,2.04,10.62,4.07,17.03,6.04,18.46,5.67,33.55,8.3,45.57,8.84,6.62-14.22,12.98-23.2,19.32-27.32,10.67-6.94,19.5-4.62,24.21-.13,5.62,5.36,6.44,14.03,2.03,21.55-2.78,4.75-12.15,15.89-38.7,16.57-6.26,14.72-13.76,36.52-22.38,68.76-11.66,43.56-19.68,85.26-19.76,85.68Zm67.83-186.21c-2.13,0-4.72.9-7.43,2.66-2.94,1.91-7.39,6.69-13.23,18.23,13.45-1.18,21.36-5.66,24.53-11.06,2.16-3.69,1.46-6.94-.2-8.52-.93-.88-2.19-1.32-3.67-1.32Zm-124.49-22.04c-1.42,0-2.82.47-3.14,1.84-.88,3.66,3.94,11.97,20.6,20.87-3.56-14.66-10.44-21.59-16.25-22.6-.39-.07-.8-.11-1.22-.11Z"/><rect class="cls-28" x="2022.82" y="796.24" width="10.61" height="147.15" transform="translate(576.92 2532.3) rotate(-72.1)"/><rect class="cls-28" x="2020.01" y="811.01" width="10.61" height="147.15" transform="translate(560.91 2539.85) rotate(-72.1)"/><rect class="cls-28" x="2017.19" y="825.78" width="10.61" height="147.15" transform="translate(544.91 2547.4) rotate(-72.1)"/><rect class="cls-28" x="2011.09" y="842.95" width="10.61" height="140.22" transform="translate(527.64 2551.09) rotate(-72.1)"/><rect class="cls-28" x="2298.59" y="639.38" width="10.61" height="56.28" transform="translate(1217.21 2805.88) rotate(-79.22)"/><rect class="cls-28" x="2266.88" y="541.89" width="56.28" height="10.61" transform="translate(-52.22 786) rotate(-19.22)"/><rect class="cls-28" x="2199.03" y="442.14" width="56.28" height="10.61" transform="translate(433.68 1841.68) rotate(-49.22)"/><rect class="cls-28" x="2090.4" y="389.66" width="56.28" height="10.61" transform="translate(1334.2 2402.21) rotate(-79.22)"/><rect class="cls-28" x="1992.92" y="375.7" width="10.61" height="56.28" transform="translate(-21.57 680.28) rotate(-19.22)"/><rect class="cls-28" x="1893.16" y="443.55" width="10.61" height="56.28" transform="translate(301.28 1601.14) rotate(-49.22)"/><rect class="cls-28" x="1840.69" y="552.18" width="10.61" height="56.28" transform="translate(930.62 2285.19) rotate(-79.22)"/><path class="cls-28" d="m3732.48,1310.13l-178.28-35.18-85.9-299.49,253.43,31.96,10.75,302.71Zm-169.87-44.33l158.79,31.34-9.95-280.32-228.51-28.82,79.68,277.8Z"/><path class="cls-28" d="m3754.16,1309.27l-13.23-302.62,250.1-51.9-61.94,305.35-174.94,49.17Zm-2.24-294.06l12.25,280.23,155.82-43.8,57.45-283.24-225.52,46.8Z"/><path class="cls-28" d="m3723.05,1309.09l-11.96-302.07,40.43-1.6,11.97,302.07-40.43,1.6Zm-.95-291.89l11.13,280.87,19.23-.76-11.13-280.87-19.23.76Z"/><path class="cls-28" d="m3726.21,1011.73l-.87-22.08,2.29-1.67c.76-.55,19.07-13.71,54.52-25.9,32.48-11.16,86.2-23.55,157.66-19.18l1.44.09,22.42,15.11-5.93,8.8-20.02-13.5c-68.73-4-120.34,7.85-151.62,18.54-27.17,9.29-44.08,19.32-49.93,23.08l.64,16.28-10.6.42Z"/><path class="cls-28" d="m3726.21,1011.73l-.64-16.28c-6.12-3.29-23.77-11.95-51.6-19.06-32.02-8.18-84.41-15.91-152.61-6.49l-18.89,15.04-6.61-8.3,21.16-16.84,1.43-.2c70.89-10.01,125.42-1.91,158.68,6.65,36.3,9.34,55.59,21.01,56.39,21.5l2.42,1.48.87,22.08-10.6.42Z"/><path class="cls-28" d="m3735.85,993.72l-10.22-2.86c.57-2.07,15.14-50.92,112.18-61.83,91.28-10.26,117.43-27.12,117.68-27.29l15.39-10.27-7.58,16.84-18.99,42.06-9.67-4.36,13.08-28.98c-16.22,6.29-48.88,15.81-108.73,22.54-46.87,5.27-72.47,19.81-85.69,31.08-14.11,12.03-17.43,22.96-17.46,23.07Z"/><rect class="cls-28" x="3717.42" y="1037.85" width="30.27" height="10.61" transform="translate(-38.34 148.46) rotate(-2.27)"/><rect class="cls-28" x="3718.4" y="1062.59" width="30.27" height="10.61" transform="translate(-39.31 148.48) rotate(-2.27)"/><rect class="cls-28" x="3725.93" y="1261.44" width="30.27" height="10.61" transform="translate(-39.25 122.44) rotate(-1.87)"/><rect class="cls-28" x="3725.13" y="1236.68" width="30.27" height="10.61" transform="translate(-38.45 122.44) rotate(-1.87)"/><path class="cls-28" d="m3742.37,1000c3.1-2.36,6.46-4.36,9.83-6.3,3.39-1.91,6.86-3.69,10.39-5.34,7.05-3.31,14.31-6.18,21.67-8.69l5.56-1.79c1.85-.6,3.73-1.11,5.6-1.64,3.75-1.05,7.51-2.03,11.31-2.88,3.78-.92,7.62-1.57,11.43-2.3,3.84-.62,7.69-1.17,11.56-1.58-3.69,1.28-7.41,2.33-11.1,3.48l-5.54,1.71c-1.85.56-3.7,1.08-5.54,1.69-1.84.59-3.68,1.17-5.52,1.71-1.85.54-3.67,1.18-5.5,1.77-3.68,1.15-7.32,2.39-10.97,3.59-7.28,2.49-14.54,5.03-21.74,7.77-7.19,2.77-14.35,5.6-21.43,8.8Z"/><path class="cls-28" d="m3807.4,985.97c9.52-4.65,19.54-8.2,29.66-11.31,10.13-3.09,20.42-5.67,30.81-7.77,2.6-.51,5.21-.97,7.81-1.45l3.91-.69,3.93-.59,7.86-1.13c2.63-.32,5.26-.61,7.89-.89,5.25-.65,10.55-.91,15.82-1.29,1.32-.09,2.64-.15,3.96-.18l3.97-.11c2.65-.06,5.29-.11,7.93-.11-5.22.9-10.46,1.53-15.67,2.34l-7.81,1.19c-1.3.21-2.61.36-3.9.58l-3.89.65c-2.59.44-5.19.87-7.79,1.26l-7.76,1.4-3.88.68-3.87.76c-2.58.5-5.16.96-7.74,1.49-10.3,2.08-20.56,4.34-30.77,6.85-10.2,2.54-20.38,5.22-30.48,8.33Z"/><path class="cls-28" d="m3727.57,998.08c-8.1-1.92-16.11-4.02-24.11-6.14l-23.97-6.38-23.97-6.31-24.1-6.08c8.31.44,16.58,1.57,24.77,3.05,8.18,1.53,16.3,3.34,24.33,5.5,8.03,2.15,15.98,4.58,23.84,7.27,7.86,2.7,15.64,5.63,23.21,9.1Z"/><path class="cls-28" d="m3684.16,997.08c-11.51-1.81-22.95-3.79-34.39-5.8l-17.15-2.99-8.57-1.51-8.58-1.47c-5.71-.98-11.43-1.99-17.15-2.9-2.86-.47-5.71-1-8.58-1.43-2.87-.43-5.73-.9-8.59-1.38-11.46-1.78-22.93-3.46-34.47-5.05,11.65-.07,23.3.77,34.88,1.97,5.79.61,11.57,1.36,17.33,2.17,2.89.39,5.76.84,8.63,1.31l8.62,1.39c5.73,1.05,11.46,2.06,17.16,3.21,2.85.57,5.7,1.17,8.55,1.77,2.85.59,5.69,1.22,8.52,1.88,11.34,2.59,22.64,5.42,33.78,8.83Z"/><path class="cls-28" d="m2794.96,389.25c-4.45-24.91-18.33-46.6-39.09-61.07-20.76-14.47-45.91-19.99-70.82-15.54l-1.86-10.44c27.7-4.94,55.67,1.19,78.75,17.28,23.08,16.09,38.52,40.21,43.46,67.91l-10.44,1.86Z"/><path class="cls-28" d="m2763.07,397.89c-6.27-35.13-39.95-58.62-75.09-52.34l-1.86-10.44c40.89-7.3,80.1,20.03,87.4,60.92l-10.44,1.86Z"/><path class="cls-28" d="m2731.18,406.52c-3.36-18.84-21.43-31.44-40.27-28.07l-1.86-10.44c24.6-4.39,48.19,12.05,52.58,36.65l-10.44,1.86Z"/><circle class="cls-28" cx="2701.01" cy="406.88" r="13.17"/><path class="cls-25" d="m1751.23,1764.53h2361.39c27.66,0,50.12,22.46,50.12,50.12H1701.11c0-27.66,22.46-50.12,50.12-50.12Z"/><rect class="cls-27" x="2554.4" y="668.19" width="573.41" height="984.36" rx="61.21" ry="61.21"/><path class="cls-33" d="m3106.6,729.4v861.94c0,33.8-27.41,61.21-61.22,61.21h-450.99c-33.8,0-61.21-27.41-61.21-61.21v-861.94c0-18.51,8.23-35.09,21.22-46.31h0s0,0,0,0c10.73-9.27,24.7-14.89,39.99-14.89h450.99c15.29,0,29.27,5.62,40,14.89h0c12.99,11.23,21.22,27.81,21.22,46.32Z"/><path class="cls-13" d="m3085.39,738.52v852.82c0,22.05-17.95,39.99-40.01,39.99h-450.99c-22.05,0-39.99-17.94-39.99-39.99v-852.82h530.98Z"/><path class="cls-26" d="m2860.21,710.8h-109.33c-4.32,0-7.86-3.54-7.86-7.86h0c0-4.32,3.54-7.86,7.86-7.86h109.33c4.32,0,7.86,3.54,7.86,7.86h0c0,4.32-3.54,7.86-7.86,7.86Z"/><circle class="cls-26" cx="2693.26" cy="702.94" r="11.41" transform="translate(1569.45 3249.48) rotate(-80.82)"/><path class="cls-31" d="m3072.52,843.94v664.84c0,10.21-3.41,18.56-7.57,18.56h-490.1c-4.16,0-7.57-8.35-7.57-18.56v-664.84h505.24Z"/><path class="cls-30" d="m3072.52,809.68v34.26h-505.24v-34.26c0-12.76,10.44-23.21,23.21-23.21h458.83c12.76,0,23.21,10.44,23.21,23.21Z"/><path class="cls-12" d="m2617.67,813.98c0,3.71-3.01,6.72-6.72,6.72s-6.72-3.01-6.72-6.72,3.01-6.72,6.72-6.72,6.72,3.01,6.72,6.72Z"/><circle class="cls-15" cx="2645.69" cy="813.98" r="6.72"/><circle class="cls-17" cx="2678.66" cy="813.98" r="6.72"/><rect class="cls-20" x="2589.14" y="932.91" width="451.67" height="293.69" rx="32.92" ry="32.92"/><rect class="cls-20" x="2589.14" y="1249.86" width="451.67" height="269.09" rx="31.51" ry="31.51"/><g class="cls-3"><path class="cls-11" d="m2977.12,1007.45h19c8.6,0,15.58,6.98,15.58,15.58v10.28c0,8.6-6.98,15.58-15.58,15.58h-19c-8.6,0-15.58-6.98-15.58-15.58v-10.28c0-8.6,6.98-15.58,15.58-15.58Z" transform="translate(80.2 2264.98) rotate(-42.05)"/><path class="cls-11" d="m2968.51,1024.64h0c-3.89-.65-7.34,6.81-6.69,2.92l3.32-26.34c.65-3.89,4.35-6.54,8.24-5.89h0c3.89.65,6.54,4.35,5.89,8.24l-2.52,15.18c-.65,3.89-4.35,6.54-8.24,5.89Z"/><path class="cls-11" d="m2977.91,1017.76h0c-2.64-2.93-2.4-7.48.52-10.11l11.42-10.3c2.92-2.64,7.48-2.4,10.11.52h0c2.64,2.93,2.4,7.48-.52,10.11l-11.42,10.3c-2.93,2.64-7.48,2.4-10.11-.52Z"/><path class="cls-11" d="m2991.1,1017.87h0c-2.64-2.93-2.4-7.48.52-10.12l11.42-10.3c2.92-2.64,7.48-2.4,10.11.52h0c2.64,2.93,2.4,7.48-.52,10.12l-11.42,10.3c-2.93,2.64-7.48,2.4-10.11-.52Z"/><path class="cls-11" d="m2994.36,1026.98h0c-2.64-2.93-2.4-7.48.52-10.11l11.42-10.3c2.93-2.64,7.48-2.4,10.11.52h0c2.64,2.92,2.4,7.48-.52,10.12l-11.42,10.3c-2.93,2.64-7.48,2.4-10.12-.52Z"/><path class="cls-11" d="m2993.81,1039.49h0c-2.64-2.93-2.4-7.48.52-10.11l11.42-10.3c2.93-2.64,7.48-2.4,10.12.52h0c2.64,2.93,2.4,7.48-.52,10.11l-11.42,10.3c-2.92,2.64-7.48,2.4-10.11-.52Z"/><path class="cls-27" d="m2865.61,1022.76c-31.08-43.08-77.88-51.31-83.62-52.17,40.73,7.09,71.97,41.82,73.65,84.14.06,1.2.09,2.42.09,3.64v53.27c68.47,38.41,131.9-54.23,131.9-54.23l-31.64-29.37c-25.61,27.87-57.24,40.67-90.38-5.27Z"/><path class="cls-33" d="m2606.3,1129.4c0,55.44,13.84,100.6,57,142.19,1.49-.43,5.88-1.41,17.01-12.15,7-6.73,11.81-22.01,11.81-22.01,0,0-2.26-3.71-5.47-10.06h15.64s96.93.1,96.93.1l55.2.06c4.63.01,8.3-3.89,8.01-8.51l-6.7-107.39v-53.27c0-1.22-.03-2.44-.09-3.64-1.68-42.32-32.92-77.05-73.65-84.14-.19-.03-.39-.06-.58-.09-4.8-.8-9.73-1.22-14.77-1.22h-31.55c-5.01,0-9.94.42-14.72,1.22-6.57,1.08-12.88,2.9-18.88,5.35-51.5,18.27-95.17,82.37-95.19,153.55Z"/><path class="cls-8" d="m2715.84,1227.55h96.94v-.07l-16.09-239.93s-11.45-18.26-16.49-18.26h-31.55c-5.01,0-9.94.42-14.72,1.22l-1.23,17.53-16.85,239.36v.16Z"/><path class="cls-33" d="m2795.81,973.57l16.98,283.74,53.26-11.37-19.87-140.2s-7.34-44.83-14.05-69.69c-6.71-24.87-36.32-62.48-36.32-62.48Z"/><path class="cls-33" d="m2733.93,970.5l-18.09,286.67-63.63-7.16s-9.45-46.35-18.29-89.87c-8.85-43.52-.79-119.49,21.29-140.76,22.08-21.26,78.72-48.88,78.72-48.88Z"/><path class="cls-27" d="m2706.39,1056.88s-10.07,22.31-17.61,56.96c-7.53,34.65,3.34,123.58,3.34,123.58l-5.47-10.62s-24.76-50.82-21.11-82.08c3.65-31.26,15.89-58.94,40.84-87.84Z"/><rect class="cls-12" x="2981.09" y="1006.81" width="23.31" height="1.49" transform="translate(164.04 2411.16) rotate(-45)"/><rect class="cls-12" x="2994.95" y="1012.87" width="22.82" height="1.49" transform="translate(163.81 2422.7) rotate(-45)"/><rect class="cls-12" x="2997.42" y="1024.96" width="19.61" height="1.49" transform="translate(155.58 2426.99) rotate(-45)"/><path class="cls-11" d="m2732.6,991.55c7.72,3.73,19.38,5.55,31.92,5.55s24.76-2.56,32.49-6.57l-1.05-15.64-.09-1.31s-.04-.02-.06-.02h.06s-.77-.28-1.72-.92c-1.56-1.07-3.58-3.13-3.4-6.58.07-1.65,1.63-6.4,1.63-6.4l1.74-6.65.03-.07,6.27-24.17-62.88-5.51s5.38,28.91,4.53,39.62c-.56,7.1-8.36,6.42-8.36,6.42l-1.1,22.25Z"/><path class="cls-12" d="m2746.58,941.96s4.75,25.37,39.93,31.6c2.23.4,6.57,1.02,9.45,1.34l-.09-1.31s-.04-.02-.06-.02h.06s-.77-.28-1.72-.92c-1.56-1.07-3.58-3.13-3.4-6.58.07-1.65,1.76-6.9,1.76-6.9,0,0-33.84,3.26-45.93-17.21Z"/><path class="cls-11" d="m2725.46,903.58c1.05,29.24,19.41,56.26,48.65,55.21,29.24-1.05,54.97-.01,57.22-59.02,1.56-40.95-25.6-52.08-54.84-51.03-29.24,1.05-52.08,25.6-51.03,54.84Z"/><path class="cls-22" d="m2823.82,880.88c-2.31,1.7-5.88,3.1-11.33,3.69-19.02,2.01-53.58-13.54-53.58-13.54,0,0,3.39,10.29,2.24,28.89,0,0-6.12-11.8-14.85-.5-7.81,10.14,3.31,22.15,9.99,19.53,0,0,3.09,23,14.58,25.08,11.5,2.08,13.71-8.68,30.92-13.02,17.19-4.34,23.01,4.56,23.01,4.56-14.88,35.1-64.69,22.25-64.69,22.25,0,0-6.19,6.22-19.47,4.86-13.28-1.36-15.92-29.99-15.92-29.99-8.98,3.2-19.15-14.44-20.7-41.35-1.57-26.91,23.37-27.72,23.37-27.72,0,0-2.98-18.85,26.22-29.38,28.43-10.26,38.54.8,39.05,1.38-.26-.87-5.76-19.26,9.15-19.54,15.27-.28,13.36,15.37,13.36,15.37,17.04-15.43,41.39,5.59,37,23.25-4.37,17.67-24.63,15.82-24.63,15.82,0,0,2.03,6.14-3.72,10.37h0Z"/><path class="cls-22" d="m2760.95,883s.78,18.35-.17,29.93c-.95,11.58-1.73,23.37,5.72,29.07,0,0-14.25-4.19-10.37-24.74,3.88-20.55,2.73-21.96.3-28.56-2.44-6.61,4.53-5.69,4.53-5.69Z"/><path class="cls-24" d="m2947.09,1036.33s.05.08.08.12c.02.04.04.08.07.11,0,0,.01,0,.02.01,0,0,0,.01.01.02l6.03,5.48h0s0,0,0,0l3.03,2.75s0,0,0,0c0,0,0,0,0,0l6.05,5.5s0,0,0,0c0,0,0,0,0,0l3.03,2.75h0l15.09,13.72s.02.01.03.02c0,0,.01.02.02.02.01,0,.03,0,.04.01.12.08.26.13.4.13.11,0,.21-.03.31-.07.03-.01.06-.04.09-.06.05-.03.11-.06.15-.11,0-.01.01-.02.02-.04,0,0,.02-.01.02-.02l6.62-8.86s.03-.07.05-.1c.02-.05.05-.09.07-.14.01-.04.01-.09.02-.13,0-.05.01-.1,0-.15,0-.05-.02-.09-.03-.13-.01-.05-.02-.09-.05-.14-.02-.04-.05-.08-.08-.12-.02-.03-.04-.07-.07-.09l-14.57-13.24s0,0,0,0h0l-2.9-2.64s0,0,0,0c0,0,0,0,0,0l-5.81-5.27s0,0,0,0c0,0,0,0,0,0l-2.9-2.64s0,0,0,0c0,0,0,0,0,0l-5.84-5.3s-.07-.04-.1-.06c-.04-.03-.09-.06-.13-.08-.04-.02-.09-.02-.13-.03-.05,0-.1-.02-.14-.02-.05,0-.1.02-.14.03-.04,0-.09.01-.13.03-.05.02-.09.05-.13.08-.03.02-.07.04-.1.07l-7.82,7.74s0,.01-.01.02c0,0-.01,0-.02.01-.03.03-.04.07-.06.11-.03.04-.06.08-.08.13-.02.05-.02.09-.03.14,0,.05-.02.09-.02.14,0,.05.02.09.03.14.01.05.01.09.03.14Zm1.76-.31l6.77-6.69,1.82,1.65-6.67,6.78-1.91-1.74Zm3.01,2.74l6.67-6.78,1.82,1.65-6.58,6.87-1.91-1.74Zm3.01,2.74l6.58-6.87,1.82,1.65-6.48,6.96-1.91-1.74Zm3.01,2.74l6.48-6.96,1.82,1.65-6.39,7.05-1.91-1.74Zm3.01,2.74l6.39-7.05,1.82,1.65-6.29,7.14-1.91-1.74Zm3.01,2.74l6.29-7.14,1.82,1.65-6.2,7.23-1.91-1.74Zm3.01,2.74l6.2-7.23,1.82,1.65-6.1,7.31-1.91-1.74Zm3.01,2.74l6.1-7.31,1.82,1.65-6.01,7.4-1.91-1.74Zm3.02,2.74l6.01-7.4,1.82,1.65-5.91,7.49-1.91-1.74Zm3.01,2.74l5.91-7.49,1.82,1.65-5.82,7.58-1.91-1.74Zm3.01,2.74l5.82-7.58,1.82,1.65-5.72,7.67-1.91-1.74Z"/></g><polygon class="cls-8" points="3022.79 862.21 3011.21 912.27 2870.61 912.27 2844.35 933.62 2873.96 862.21 3022.79 862.21"/><path class="cls-30" d="m2886.37,879.18h98.61c1.4,0,2.53-1.13,2.53-2.53s-1.13-2.53-2.53-2.53h-98.61c-1.4,0-2.53,1.13-2.53,2.53s1.13,2.53,2.53,2.53Z"/><path class="cls-30" d="m2889.33,888.66h110.69c1.4,0,2.53-1.13,2.53-2.53s-1.13-2.53-2.53-2.53h-110.69c-1.4,0-2.53,1.13-2.53,2.53s1.13,2.53,2.53,2.53Z"/><path class="cls-30" d="m2892.12,897.57h110.69c1.4,0,2.53-1.13,2.53-2.53s-1.13-2.53-2.53-2.53h-110.69c-1.4,0-2.53,1.13-2.53,2.53s1.13,2.53,2.53,2.53Z"/><path class="cls-22" d="m2775.45,1408.58c0-5.13,4.18-9.31,9.31-9.31s9.31,4.18,9.31,9.31-4.18,9.31-9.31,9.31-9.31-4.18-9.31-9.31Zm4.57,0c0,2.61,2.13,4.74,4.74,4.74s4.74-2.13,4.74-4.74-2.13-4.74-4.74-4.74-4.74,2.13-4.74,4.74Z"/><path class="cls-22" d="m2742.15,1430.29c0-5.13,4.18-9.31,9.31-9.31s9.31,4.18,9.31,9.31-4.18,9.31-9.31,9.31-9.31-4.18-9.31-9.31Zm4.57,0c0,2.61,2.13,4.74,4.74,4.74s4.74-2.13,4.74-4.74-2.13-4.74-4.74-4.74-4.74,2.13-4.74,4.74Z"/><path class="cls-22" d="m2708.85,1423.27c0-5.13,4.18-9.31,9.31-9.31s9.31,4.18,9.31,9.31-4.18,9.31-9.31,9.31-9.31-4.18-9.31-9.31Zm4.57,0c0,2.61,2.13,4.74,4.74,4.74s4.74-2.13,4.74-4.74-2.13-4.74-4.74-4.74-4.74,2.13-4.74,4.74Z"/><path class="cls-22" d="m2675.55,1449.89c0-5.13,4.18-9.31,9.31-9.31s9.31,4.18,9.31,9.31-4.18,9.31-9.31,9.31-9.31-4.18-9.31-9.31Zm4.57,0c0,2.61,2.12,4.74,4.74,4.74s4.74-2.13,4.74-4.74-2.13-4.74-4.74-4.74-4.74,2.13-4.74,4.74Z"/><rect class="cls-22" x="2656.46" y="1456.28" width="23.5" height="4.57" transform="translate(-372.02 1397.46) rotate(-27.51)"/><rect class="cls-22" x="2687.21" y="1434.29" width="28.59" height="4.57" transform="translate(-305.58 2001.68) rotate(-38.65)"/><rect class="cls-22" x="2732.52" y="1416.78" width="4.57" height="19.99" transform="translate(774.39 3808.29) rotate(-78.09)"/><rect class="cls-22" x="2755.25" y="1417.15" width="25.71" height="4.57" transform="translate(-325.94 1742.03) rotate(-33.1)"/><path class="cls-22" d="m2783.23,1483.86h3.05v4.24h-3.05v-4.24Zm0-8.53h3.05v5.94h-3.05v-5.94Zm0-8.53h3.05v5.94h-3.05v-5.94Zm0-8.53h3.05v5.94h-3.05v-5.94Zm0-8.53h3.05v5.94h-3.05v-5.94Zm0-8.53h3.05v5.94h-3.05v-5.94Zm0-8.53h3.05v5.94h-3.05v-5.94Zm0-8.53h3.05v5.94h-3.05v-5.94Zm0-8.53h3.05v5.94h-3.05v-5.94Z"/><path class="cls-22" d="m2749.93,1479.97h3.05v5.94h-3.05v-5.94Zm0-8.53h3.05v5.94h-3.05v-5.94Zm0-8.53h3.05v5.94h-3.05v-5.94Zm0-8.53h3.05v5.94h-3.05v-5.94Zm0-8.53h3.05v5.94h-3.05v-5.94Zm0-8.53h3.05v5.94h-3.05v-5.94Z"/><path class="cls-22" d="m2716.63,1481.48h3.05v5.94h-3.05v-5.94Zm0-8.53h3.05v5.94h-3.05v-5.94Zm0-8.53h3.05v5.94h-3.05v-5.94Zm0-8.53h3.05v5.94h-3.05v-5.94Zm0-8.53h3.05v5.94h-3.05v-5.94Zm0-8.53h3.05v5.94h-3.05v-5.94Zm0-8.53h3.05v5.94h-3.05v-5.94Z"/><path class="cls-22" d="m2683.33,1482.51h3.05v5.58h-3.05v-5.58Zm0-8.53h3.05v5.94h-3.05v-5.94Zm0-8.53h3.05v5.94h-3.05v-5.94Zm0-8.53h3.05v5.94h-3.05v-5.94Z"/><path class="cls-22" d="m2650.03,1482.79h3.05v5.3h-3.05v-5.3Zm0-8.53h3.05v5.94h-3.05v-5.94Z"/><path class="cls-22" d="m2642.25,1467.24c0-5.13,4.18-9.31,9.31-9.31s9.31,4.18,9.31,9.31-4.18,9.31-9.31,9.31-9.31-4.18-9.31-9.31Zm4.57,0c0,2.61,2.13,4.74,4.74,4.74s4.74-2.12,4.74-4.74-2.13-4.74-4.74-4.74-4.74,2.13-4.74,4.74Z"/><rect class="cls-22" x="2798.49" y="1405.16" width="3.05" height="18.7" transform="translate(467.98 3512.72) rotate(-68.78)"/><polygon class="cls-22" points="2822.91 1489.62 2641.28 1489.62 2641.28 1389.81 2644.32 1389.81 2644.32 1486.57 2822.91 1486.57 2822.91 1489.62"/><rect class="cls-12" x="2796.09" y="1283.02" width="20.31" height="70.3" transform="translate(5612.5 2636.34) rotate(180)"/><rect class="cls-12" x="2765.23" y="1298.11" width="20.31" height="55.21" transform="translate(5550.76 2651.43) rotate(180)"/><rect class="cls-12" x="2734.36" y="1290.54" width="20.31" height="62.78" transform="translate(5489.03 2643.86) rotate(180)"/><rect class="cls-12" x="2703.49" y="1312.7" width="20.31" height="40.62" transform="translate(5427.3 2666.02) rotate(180)"/><rect class="cls-12" x="2672.63" y="1322.4" width="20.31" height="30.92" transform="translate(5365.57 2675.72) rotate(180)"/><rect class="cls-12" x="2641.76" y="1336.45" width="20.31" height="16.87" transform="translate(5303.83 2689.76) rotate(180)"/><rect class="cls-22" x="2638.28" y="1351.34" width="180.11" height="3.96"/><path class="cls-30" d="m2937,1412.59c-8.53-14.29-24.15-23.87-42.01-23.87v48.9l42.01-25.03Z"/><path class="cls-4" d="m2996.2,1433.71h-31.82c-2.94,0-5.32-2.38-5.32-5.32h0c0-2.94,2.38-5.32,5.32-5.32h31.82c2.94,0,5.32,2.38,5.32,5.32h0c0,2.94-2.38,5.32-5.32,5.32Z"/><path class="cls-33" d="m2996.2,1453.86h-31.82c-2.94,0-5.32-2.38-5.32-5.32h0c0-2.94,2.38-5.32,5.32-5.32h31.82c2.94,0,5.32,2.38,5.32,5.32h0c0,2.94-2.38,5.32-5.32,5.32Z"/><path class="cls-30" d="m2996.2,1474.02h-31.82c-2.94,0-5.32-2.38-5.32-5.32h0c0-2.94,2.38-5.32,5.32-5.32h31.82c2.94,0,5.32,2.38,5.32,5.32h0c0,2.94-2.38,5.32-5.32,5.32Z"/><path class="cls-33" d="m2894.99,1440.55h48.25c0-9.03-2.48-17.47-6.8-24.7l-41.45,24.7Z"/><path class="cls-4" d="m2891.81,1397.27c-25.38,0-45.96,20.58-45.96,45.96s20.58,45.96,45.96,45.96,45.96-20.58,45.96-45.96h-45.96v-45.96Z"/><path class="cls-22" d="m2674.75,1378.03h-27.96c-3.61,0-6.53-2.92-6.53-6.53h0c0-3.61,2.92-6.53,6.53-6.53h27.96c3.61,0,6.53,2.92,6.53,6.53h0c0,3.61-2.92,6.53-6.53,6.53Z"/><path class="cls-22" d="m2721.11,1378.03h-27.96c-3.61,0-6.53-2.92-6.53-6.53h0c0-3.61,2.92-6.53,6.53-6.53h27.96c3.61,0,6.53,2.92,6.53,6.53h0c0,3.61-2.92,6.53-6.53,6.53Z"/><path class="cls-22" d="m2767.47,1378.03h-27.96c-3.61,0-6.53-2.92-6.53-6.53h0c0-3.61,2.92-6.53,6.53-6.53h27.96c3.61,0,6.53,2.92,6.53,6.53h0c0,3.61-2.92,6.53-6.53,6.53Z"/><path class="cls-22" d="m2813.83,1378.03h-27.96c-3.61,0-6.53-2.92-6.53-6.53h0c0-3.61,2.92-6.53,6.53-6.53h27.96c3.61,0,6.53,2.92,6.53,6.53h0c0,3.61-2.92,6.53-6.53,6.53Z"/><path class="cls-20" d="m2865.86,1308.08h0c-7.98,0-14.44-6.47-14.44-14.44h0c0-7.98,6.47-14.44,14.44-14.44h0c7.98,0,14.44,6.47,14.44,14.44h0c0,7.98-6.47,14.44-14.44,14.44Z"/><path class="cls-22" d="m2871.8,1301.55c-.51,0-1.01-.19-1.4-.58l-11.87-11.87c-.77-.77-.77-2.03,0-2.8.77-.77,2.03-.77,2.8,0l11.87,11.87c.77.77.77,2.03,0,2.8-.39.39-.89.58-1.4.58Z"/><path class="cls-22" d="m2859.93,1301.55c-.51,0-1.01-.19-1.4-.58-.77-.77-.77-2.03,0-2.8l11.87-11.87c.77-.77,2.03-.77,2.8,0,.77.77.77,2.03,0,2.8l-11.87,11.87c-.39.39-.89.58-1.4.58Z"/><path class="cls-20" d="m2865.86,1364.92h0c-7.98,0-14.44-6.47-14.44-14.44h0c0-7.98,6.47-14.44,14.44-14.44h0c7.98,0,14.44,6.47,14.44,14.44h0c0,7.98-6.47,14.44-14.44,14.44Z"/><path class="cls-22" d="m2871.8,1358.39c-.51,0-1.01-.19-1.4-.58l-11.87-11.87c-.77-.77-.77-2.03,0-2.8.77-.77,2.03-.77,2.8,0l11.87,11.87c.77.77.77,2.03,0,2.8-.39.39-.89.58-1.4.58Z"/><path class="cls-22" d="m2859.93,1358.39c-.51,0-1.01-.19-1.4-.58-.77-.77-.77-2.03,0-2.8l11.87-11.87c.77-.77,2.03-.77,2.8,0,.77.77.77,2.03,0,2.8l-11.87,11.87c-.39.39-.89.58-1.4.58Z"/><path class="cls-22" d="m2976.84,1286.64h-83.19c-2.06,0-3.73-1.67-3.73-3.73h0c0-2.06,1.67-3.73,3.73-3.73h83.19c2.06,0,3.73,1.67,3.73,3.73h0c0,2.06-1.67,3.73-3.73,3.73Z"/><path class="cls-22" d="m2976.84,1301.09h-83.19c-2.06,0-3.73-1.67-3.73-3.73h0c0-2.06,1.67-3.73,3.73-3.73h83.19c2.06,0,3.73,1.67,3.73,3.73h0c0,2.06-1.67,3.73-3.73,3.73Z"/><path class="cls-22" d="m2976.84,1315.53h-83.19c-2.06,0-3.73-1.67-3.73-3.73h0c0-2.06,1.67-3.73,3.73-3.73h83.19c2.06,0,3.73,1.67,3.73,3.73h0c0,2.06-1.67,3.73-3.73,3.73Z"/><path class="cls-22" d="m2976.74,1343.46h-83.19c-2.06,0-3.73-1.67-3.73-3.73h0c0-2.06,1.67-3.73,3.73-3.73h83.19c2.06,0,3.73,1.67,3.73,3.73h0c0,2.06-1.67,3.73-3.73,3.73Z"/><path class="cls-22" d="m2976.74,1357.9h-83.19c-2.06,0-3.73-1.67-3.73-3.73h0c0-2.06,1.67-3.73,3.73-3.73h83.19c2.06,0,3.73,1.67,3.73,3.73h0c0,2.06-1.67,3.73-3.73,3.73Z"/><path class="cls-22" d="m2976.74,1372.35h-83.19c-2.06,0-3.73-1.67-3.73-3.73h0c0-2.06,1.67-3.73,3.73-3.73h83.19c2.06,0,3.73,1.67,3.73,3.73h0c0,2.06-1.67,3.73-3.73,3.73Z"/><g class="cls-34"><g class="cls-36"><rect class="cls-10" x="2824.58" y="483.8" width="115.96" height="1017.75" transform="translate(142.35 2329.03) rotate(-45)"/><rect class="cls-10" x="2932.46" y="404.91" width="57.98" height="1017.75" transform="translate(221.24 2361.7) rotate(-45)"/><rect class="cls-10" x="2702.85" y="924.99" width="115.96" height="1017.75" transform="translate(-205.27 2372.17) rotate(-45)"/><rect class="cls-10" x="2810.73" y="846.1" width="57.98" height="1017.75" transform="translate(-126.38 2404.85) rotate(-45)"/></g></g><path class="cls-11" d="m3429.69,1713.59s8.14,26.55-.32,59.14l-28.32-2.36-80.51-6.15v-.03s2.44-12.86,2.44-27.93c0-13.84-2.44-27.95-2.44-27.95l79.35,3.77,29.81,1.51Z"/><path class="cls-4" d="m3438.18,1701.15s15.75,36.65,0,84.1l-119.79-7.9c-2.57-.19-4.59-3.24-4.51-6.87.11-3.58,2.23-6.39,4.75-6.39h.21l1.7.13,80.51,6.15,28.32,2.36c8.46-32.59.32-59.14.32-59.14l-29.81-1.51-79.35-3.77-1.94-.11c-2.55-.13-4.56-3.05-4.56-6.63s2.12-6.6,4.69-6.6h.21l119.23,6.18Z"/><polygon class="cls-7" points="3795.43 1689.67 3784 1689.67 3438.18 1701.15 3318.95 1694.97 3666.94 1688.06 3795.43 1689.67"/><path class="cls-7" d="m3795.43,1689.67s16.65,49.17,1.86,85.66h-13.29l-345.82,9.92c15.75-47.44,0-84.1,0-84.1l345.82-11.48h11.43Z"/><path class="cls-14" d="m3431.53,1730.43c-12.47.58-24.89.18-37.3-.45-12.4-.73-24.79-1.71-37.12-3.68,12.47-.59,24.89-.19,37.3.45,12.4.74,24.79,1.72,37.12,3.68Z"/><path class="cls-14" d="m3367.9,1750.34c-6.95.62-13.81.26-20.64-.33-6.83-.69-13.63-1.63-20.34-3.55,6.95-.63,13.81-.27,20.64.33,6.83.7,13.63,1.63,20.34,3.55Z"/><path class="cls-6" d="m3377.07,1760.71c-5.15-7.98-4.19-26.15,1.77-33.55,10.47.55,20.95,1.1,31.43,1.65-5.96,7.4-6.92,25.57-1.77,33.55-6.47-2.48-12.72-5.65-18.54-9.18-4.66,2.98-8.88,5.59-12.89,7.52Z"/><path class="cls-6" d="m3467.39,1784.31c14.81-36.5-1.82-84.12-1.82-84.12h32.33s16.63,47.62,1.82,84.12h-32.33Z"/><path class="cls-6" d="m3739.01,1776.91c14.81-36.5-1.82-84.12-1.82-84.12h32.33s16.63,47.62,1.82,84.12h-32.33Z"/><path class="cls-11" d="m3654.33,1628.79s-11.43,26.55.42,59.14l45-2.47,112.87-6.15v-.03s-3.42-12.86-3.42-27.93c0-13.84,3.42-27.95,3.42-27.95v-.03l-111.25,3.79-47.05,1.62Z"/><path class="cls-33" d="m3814.99,1679.17l-2.36.13-112.87,6.15-45,2.47c-11.85-32.59-.42-59.14-.42-59.14l47.05-1.62,111.25-3.79,2.68-.08c3.58-.13,6.39-3.05,6.39-6.63s-2.97-6.6-6.58-6.6h-.29l-167.1,6.18s-22.06,36.65,0,84.09l167.9-7.9c3.61-.19,6.42-3.24,6.31-6.87-.13-3.58-3.1-6.39-6.66-6.39h-.29Z"/><polygon class="cls-27" points="3814.83 1610.06 3356.91 1604.28 3359.43 1604.39 3647.73 1616.24 3814.83 1610.06"/><path class="cls-27" d="m3642.14,1616.01l-282.71-11.62c-14.08-.56-25.83,10.69-25.91,24.8l-.19,35.22c-.08,13.47,10.53,24.56,23.97,25.06l290.42,10.87c-22.06-47.44,0-84.09,0-84.09l-5.59-.23Z"/><path class="cls-14" d="m3655.17,1651.53c8.73.61,17.42.71,26.11.62,8.69-.06,17.36-.43,26.03-.86,8.66-.53,17.32-1.12,25.96-2.02,8.64-.87,17.28-1.93,25.88-3.51-8.73-.62-17.42-.72-26.11-.62-8.69.06-17.36.43-26.03.86-8.66.53-17.32,1.13-25.96,2.03-8.64.87-17.28,1.92-25.88,3.5Z"/><path class="cls-14" d="m3747.39,1665.43c9.66.62,19.25.26,28.83-.33,9.57-.69,19.12-1.63,28.61-3.55-9.66-.63-19.25-.27-28.83.33-9.57.7-19.12,1.63-28.61,3.55Z"/><path class="cls-7" d="m3731.91,1703.48c8.81-12.98,7.92-43.81-1.63-56.26-17.32.5-34,2.64-51.32,3.14,9.56,12.45,9.81,41.64.99,54.62,10.78-3.85,21.23-8.83,30.97-14.44,7.58,5.1,14.46,9.58,21,12.93Z"/><path class="cls-25" d="m3487.05,1530.67l8.18.74c-20.37,1.45-35.69,19.11-34.23,39.48l.8,11.29c1.21,16.99,13.76,30.48,29.73,33.6l-131.55-10.56c-21.93-2.13-37.9-21.72-35.64-43.62l.63-6.06c2.23-21.61,21.36-37.4,43-35.47h.03s119.05,10.6,119.05,10.6Z"/><polygon class="cls-25" points="3803.79 1524.39 3495.24 1531.41 3487.05 1530.67 3368 1520.07 3367.97 1520.07 3366.54 1519.94 3803.79 1524.39"/><path class="cls-30" d="m3794.92,1536.82l-299.02,7.83c-6.75.56-12.85,3.91-16.99,9.38-3.58,4.77-5.05,10.79-4.62,16.77l.76,10.41c.87,12.14,11.06,21.82,23.2,22.01.69.01,1.41-.03,2.1-.07l.32-.02,294.65-6.68,7.32-.18c3.45-.08,6.27,2.75,6.21,6.2l-.02,1.09c-.05,3.26-2.67,5.9-5.93,5.98l-301.6,6.84c-3.35.24-6.63.03-9.78-.61-15.97-3.12-28.51-16.61-29.73-33.6l-.8-11.29c-1.45-20.37,13.87-38.03,34.23-39.48l308.55-7.02c3.45-.08,6.27,2.73,6.21,6.2-.05,3.26-2.64,5.9-5.9,5.98l-9.18.25Z"/><path class="cls-11" d="m3795.32,1596.45l-294.65,6.68-.32.02c-.69.04-1.41.08-2.1.07-12.14-.19-22.33-9.88-23.2-22.01l-.76-10.41c-.44-5.97,1.04-12,4.62-16.77,4.15-5.48,10.25-8.83,16.99-9.38l299.02-7.83c-.11.53-3.9,18.32-4.08,29.75-.18,11.38,4.48,29.88,4.48,29.88Z"/><path class="cls-14" d="m3500.2,1561.93c8.63-1.44,17.28-2.36,25.94-3.09,8.66-.77,17.32-1.22,25.99-1.62,8.67-.3,17.35-.53,26.04-.45,8.69.05,17.38.28,26.1,1.04-8.63,1.45-17.28,2.37-25.93,3.1-8.66.76-17.32,1.22-25.99,1.61-8.67.29-17.35.52-26.04.44-8.69-.05-17.38-.28-26.1-1.03Z"/><path class="cls-14" d="m3571.53,1586.18c8.63-1.44,17.28-2.36,25.94-3.09,8.66-.77,17.32-1.22,25.99-1.62,8.67-.3,17.35-.53,26.04-.45,8.69.05,17.38.28,26.1,1.04-8.63,1.45-17.28,2.37-25.93,3.1-8.66.76-17.32,1.22-25.99,1.61-8.67.29-17.35.52-26.04.44-8.69-.05-17.38-.28-26.1-1.03Z"/><path class="cls-33" d="m3583.29,1631.19c11.98-16.04,12.75-55.74,1.29-72.16-22.11-.35-41.76,1.98-63.86,1.63,11.47,16.41,8.23,53.43-3.75,69.47,13.97-4.29,27.57-10.04,40.31-16.62,9.37,6.94,17.88,13.04,26.02,17.68Z"/><path class="cls-14" d="m3647.94,1570.66c11.88-1.44,23.77-2.35,35.67-3.09,11.9-.76,23.8-1.22,35.71-1.61,11.91-.3,23.82-.52,35.74-.45,11.92.05,23.84.28,35.78,1.04-11.88,1.45-23.77,2.36-35.67,3.09-11.9.76-23.8,1.22-35.71,1.61-11.91.29-23.82.52-35.74.44-11.92-.05-23.84-.28-35.78-1.04Z"/><path class="cls-11" d="m3377.34,1271.17h387.3s-6.76,28.03-6.76,58.5,6.76,58.5,6.76,58.5h-387.3c-13.74,0-24.88-11.14-24.88-24.88v-67.23c0-13.76,11.14-24.9,24.88-24.9Z"/><path class="cls-26" d="m3769.87,1255.26c4.4,0,7.96,3.58,7.96,7.96,0,2.2-.88,4.19-2.33,5.62-1.43,1.46-3.42,2.33-5.62,2.33h-392.52c-13.74,0-24.88,11.14-24.88,24.9v67.23c0,13.74,11.14,24.88,24.88,24.88h392.52c4.4,0,7.96,3.55,7.96,7.96,0,2.2-.88,4.16-2.33,5.62-1.43,1.43-3.42,2.33-5.62,2.33h-392.52c-22.54,0-40.79-18.27-40.79-40.79v-67.25c0-22.52,18.25-40.79,40.79-40.79h392.52Z"/><path class="cls-14" d="m3402.89,1293.82c22.93-1.02,45.87-1.71,68.8-2.06,22.93-.42,45.87-.54,68.8-.59,22.93.05,45.87.16,68.8.58,22.93.35,45.87,1.04,68.8,2.07-22.93,1.03-45.87,1.72-68.8,2.07-22.93.42-45.87.53-68.8.58-22.93-.05-45.87-.17-68.8-.59-22.93-.35-45.87-1.04-68.8-2.06Z"/><path class="cls-14" d="m3388.55,1329.67c8.67-1.1,17.33-1.67,26-2.06,8.67-.42,17.33-.54,26-.59,8.67.05,17.33.16,26,.58,8.67.39,17.33.97,26,2.07-8.67,1.1-17.33,1.68-26,2.07-8.67.42-17.33.53-26,.58-8.67-.05-17.33-.17-26-.59-8.67-.39-17.33-.96-26-2.06Z"/><path class="cls-14" d="m3454.88,1366.43c8.67-1.1,17.33-1.67,26-2.06,8.67-.42,17.33-.54,26-.59,8.67.05,17.33.16,26,.58,8.67.39,17.33.97,26,2.07-8.67,1.1-17.33,1.68-26,2.07-8.67.42-17.33.53-26,.58-8.67-.05-17.33-.17-26-.59-8.67-.39-17.33-.96-26-2.06Z"/><path class="cls-14" d="m3509.6,1344.91c20.03-1.02,40.05-1.71,60.08-2.06,20.03-.42,40.05-.54,60.08-.59,20.03.05,40.05.16,60.08.58,20.03.35,40.05,1.04,60.08,2.07-20.03,1.03-40.05,1.72-60.08,2.07-20.03.42-40.05.53-60.08.58-20.03-.05-40.05-.17-60.08-.59-20.03-.35-40.05-1.04-60.08-2.06Z"/><path class="cls-25" d="m3469.23,1400.49c-11.73-22.15-11.73-48.67,0-70.82h-66.34c-11.73,22.15-11.73,48.67,0,70.82,7.86-6.03,16.6-12.38,26.2-18.88,12.51,6.5,25.89,12.85,40.14,18.88Z"/><rect class="cls-12" x="3677.81" y="1404.16" width="24.65" height="117.03"/><rect class="cls-8" x="3702.47" y="1404.16" width="41.05" height="117.03"/><rect class="cls-8" x="3392.93" y="1404.16" width="284.88" height="117.03"/><rect class="cls-12" x="3368.28" y="1404.16" width="24.65" height="117.03"/><rect class="cls-8" x="3327.23" y="1404.16" width="41.05" height="117.03"/><path class="cls-25" d="m3326.97,1437.73s-31.5,15.19-36.57,56.26l13.5-11.25,4.78,11.25s3.09-34.88,18.28-48.38v-7.88Z"/><ellipse class="cls-12" cx="3536.12" cy="1462.67" rx="111.76" ry="26.44"/><path class="cls-22" d="m3438.39,836.27c-18.82,7.53-28.89,39-30.26,79.34-1.36,40.34-24.3,93.32.87,106.99,25.16,13.66,67.4-19.02,99.99,9.67,32.59,28.69,80.06,31.32,80.06,31.32,0,0,29.62-23.48,17.97-90.6-11.65-67.12-56.02-43.71-75.85-71.5-19.83-27.79-29.2-90.66-92.78-65.22Z"/><path class="cls-7" d="m3449.12,965.58s65.78-13.8,63.69,7.72c-.89,9.17-29.35,50.32-30,53.74-.44,2.5-1.02,5.05-1.53,7.57-.54,2.52-1.08,5.04-1.74,7.6-.63,2.55-1.23,5.08-1.93,7.64l-2.23,7.72c-.35,1.27-.78,2.58-1.24,3.89l-1.33,3.92-1.34,3.9-1.57,4.01-1.62,3.99c-.28.67-.53,1.32-.83,1.99l-.97,2.07-1.96,4.11-.99,2.05-.5,1.02-.84,1.54c-1.2,2.12-2.39,4.25-3.76,6.23-1.41,1.95-2.88,3.86-4.4,5.7-1.58,1.71-3.21,3.38-4.86,4.99-1.67,1.52-3.39,2.88-5.13,4.24-6.98,5.15-14.04,8.45-20.71,10.7-1.65.52-3.36,1.14-4.95,1.51l-4.82,1.2c-3.13.63-6.27,1.19-9.27,1.53-6.03.75-11.84,1.02-17.42.93-11.2-.13-12.6-52.35-5.15-54.24,3.75-.91,7.22-2.07,10.34-3.27.75-.32,1.58-.59,2.26-.94.7-.34,1.39-.66,2.09-.97l1.84-1.01c.65-.31,1.06-.7,1.6-1.03,1.96-1.37,2.99-6.02,2.99-6.02l.67-2.4.34-1.19c.11-.42.2-.89.3-1.33l.59-2.68.63-2.66.53-2.87c.34-1.94.74-3.74,1.04-5.77.69-3.95,2.05-17.67,3.76-35.84,1.83-19.43,15.97-34.41,38.41-39.3h0Z"/><path class="cls-6" d="m3573.69,1121.93c1.13-14.68,10.2-43.21,10.96-65.89,1.58-47.21.4-92.75-75.37-93.16-.09-.03-.2-.04-.29-.05-5.02-.85-8.72-1.22-10.47-1.38-.74-.06-1.13-.09-1.13-.09-35.39-1-60.79,2.69-63.85,28.41-1.87,15.69-14.8,22.55-17.17,39.44-3.07,21.96,3.13,25.64,8.76,43.93,4.46,14.48-34.73,112.39-34.73,112.39l188.24,3.62s-7.64-32.27-4.95-67.22Z"/><path class="cls-32" d="m3498.52,961.45c1.75.16,5.45.52,10.47,1.38-3.42-.66-6.92-1.12-10.47-1.38Z"/><path class="cls-11" d="m3508.93,905.34c1.08,22.94-11.55,41.89-33.56,48.45-16.85,5.03-29.86-2.03-49.53-44.55-9.64-20.85,16.65-42.41,39.59-43.49,22.94-1.08,42.41,16.65,43.49,39.59Z"/><path class="cls-11" d="m3507.36,920.29l-48.84,8.4,6.48,18.5.02.06,1.79,5.1,1.7,4.9.36,1.01,5.88.67-3.88,3.77s1.9,7.66,17.28,7.66,20.84-7.52,20.84-7.52l-1.63-42.54Z"/><path class="cls-12" d="m3472.54,965.41s-1.09-.9-1.67-2.72c-.64-1.98-3.45-7.55-3.45-7.55,0,0,26.37-3.1,32.51-20.72,0,0,4.69,21.7-27.38,30.99Z"/><path class="cls-7" d="m3544.91,971.02c55.6-.67,38.18,132.02-2.76,149.65-50.44,21.73-80.87,14.34-80.87,14.34l-.39-30.36c.29-.13,59.79-9.53,61.22-28.35,3.15-41.23-27.43-101.75,22.8-105.28h0Z"/><path class="cls-21" d="m3400.2,1147.45l73.79-.05c-1.54,0-2.96.53-3.99,1.4-1.03.85-1.65,2.03-1.65,3.34,0,2.61,2.54,4.75,5.65,4.74l-151.74.1c-3.1,0-5.64-2.13-5.65-4.74,0-1.31.64-2.49,1.65-3.34,1.03-.87,2.43-1.39,3.99-1.4l77.95-.05Z"/><path class="cls-19" d="m3556.71,1147.34c2.61,0,4.75,2.12,4.75,4.73,0,1.31-.53,2.49-1.39,3.36-.87.85-2.06,1.39-3.35,1.4l-83.68.06c-2.61,0-4.75-2.13-4.75-4.74,0-1.31.53-2.49,1.39-3.34.87-.87,2.06-1.39,3.35-1.4l81.92-.05h1.76Z"/><path class="cls-21" d="m3478.04,1144.91c-1.28,1.57-3.17,2.48-5.19,2.48h-5.98c2.02,0,3.91-.91,5.19-2.48,1.28-1.58,1.77-3.61,1.34-5.6l-19.88-94.73c-.66-3.08-3.42-5.32-6.58-5.32h5.98c3.15,0,5.92,2.23,6.58,5.32l19.88,94.73c.42,1.99-.06,4.01-1.34,5.6Z"/><path class="cls-9" d="m3472.06,1144.92c-1.28,1.57-3.17,2.48-5.19,2.48l-144,.1c-3.15,0-5.92-2.24-6.58-5.32l-19.88-94.73c-.41-1.99.08-4.01,1.36-5.6,1.26-1.57,3.17-2.48,5.19-2.48l143.99-.1c3.15,0,5.92,2.24,6.58,5.32l19.88,94.73c.42,1.99-.06,4.01-1.34,5.6Z"/><path class="cls-10" d="m3392.72,1093.38c0,4.31-3.49,7.81-7.8,7.81-4.31,0-7.81-3.49-7.81-7.8,0-4.31,3.49-7.81,7.8-7.81,4.31,0,7.81,3.49,7.81,7.8Z"/><path class="cls-22" d="m3509.61,895.57s-51.81,17.24-79.61-10.55c0,0,17.67,20.07,29.9,17.93,0,0-17.34,5.38-29.9-14.34,0,0-3.48,18.14-12.5,21.85,0,0-8.24-50.53,35.3-56.81,43.54-6.28,54.7,21.99,56.81,41.93Z"/><path class="cls-11" d="m3207.11,1318.59s-12.78,13.8-17.82,11.02l52.31,34.41,11.15-15.41-45.64-30.02Z"/><path class="cls-22" d="m3170.75,1323.17l14.69,5.1c3.08,1.07,6.45.92,9.43-.43l7.01-4.21,14.58,23.56,31.43,8.14-3.09,4.28-16.54-4.66,13.66,8.98c2.28,1.5,2.91,4.57,1.41,6.85l-4.13,6.28c-1.6,2.43-4.86,3.1-7.29,1.51l-15.63-10.29v-8.32s-11.23.93-11.23.93l-49.16-32.34c-.97-.64-1.04-2.03-.14-2.76h0c4.22-3.41,9.89-4.4,15.01-2.62Z"/><path class="cls-11" d="m3311.61,1404.08s-3.09,18.56-8.83,19h62.61l.84-19h-54.63Z"/><path class="cls-22" d="m3283.75,1427.89l15.08-3.82c3.16-.8,5.9-2.78,7.64-5.54l3.54-7.37,25.13,11.66,30.73-10.47-.23,5.27-16.38,5.2h16.35c2.73,0,4.95,2.21,4.95,4.95v7.52c0,2.91-2.36,5.27-5.27,5.27h-18.71l-4.58-6.95-8.86,6.95h-58.84c-1.16,0-1.98-1.13-1.63-2.23h0c1.65-5.16,5.84-9.11,11.1-10.44Z"/><path class="cls-25" d="m3337.76,1260.53l-30.48,143.54h61.87l50.11-151.68s-17.97-8.19-43.32-18.95c-25.35-10.76-31.74,11.15-38.18,27.09Z"/><path class="cls-30" d="m3577.39,1222.06h-.01c-7.39,42.7-28.68,53.13-85.03,46.62-70.65-8.17-109.86-32.74-109.86-32.74l-122.66,113.2-52.46-37.16s31.7-40.33,73.15-90.14c43.85-52.71,53.22-82.12,135.91-62.31,51.03,12.23,90.29,12.93,127.24,21.36h.01c21.32,4.87,34.97,8.26,34.97,8.26,1.01,10.93.61,22.1-1.26,32.91Z"/><path class="cls-22" d="m3577.39,1222.06h-.01c-43.74,2.78-33.71-41.17-33.71-41.17h.01c21.32,4.87,34.97,8.26,34.97,8.26,1.01,10.93.61,22.1-1.26,32.91Z"/><path class="cls-22" d="m3211.46,1306.24l54.33,39.1c2.56,1.84,3.15,5.45,1.31,8.01h0c-1.84,2.56-5.45,3.15-8.01,1.31l-54.33-39.1c-2.56-1.84-3.15-5.45-1.31-8.01h0c1.84-2.56,5.45-3.15,8.01-1.31Z"/><path class="cls-22" d="m3305.77,1392.6h66.94c3.16,0,5.74,2.58,5.74,5.74h0c0,3.16-2.58,5.74-5.74,5.74h-66.94c-3.16,0-5.74-2.58-5.74-5.74h0c0-3.16,2.58-5.74,5.74-5.74Z"/><path class="cls-30" d="m2170,1325.09h-30.3c0,20.32-14.48,37.27-33.7,41.07-2.65.54-5.37.81-8.18.81l-1.28-.04-10.32,340.27-.21,7h82.63l.83-6.98,29.52-248.1,15.96-134.02h-44.96Z"/><path class="cls-25" d="m2214.95,1325.09h30.3c0,19.42,12.25,35.76,33.97,40.5,4.14.9,8.62,1.38,13.43,1.38l44.86,340.23.93,7h-84.22l-1.52-7-53.71-248.09,15.96-134.02Z"/><path class="cls-5" d="m2195.85,1747.31s-11.15,5.43-7.41,17h24.58c-.54-4.57-3.17-8.65-7.19-11.03-3.91-2.31-7.13-4.23-9.98-5.98Z"/><path class="cls-5" d="m2086.01,1731.36v17.34c22.53-.28,20.05-20.27,20.05-20.27-9.01-.58-14.4-1.34-15.35-1.49-.11-.01-.16-.03-.16-.03h-.09c-2.46,0-4.45,1.99-4.45,4.45Z"/><path class="cls-7" d="m2169.39,1730.68c-1.83-1.16-3.8-2.4-5.96-3.76,0,0-2.15.3-5.98.68-6.35.63-17.33,1.46-30.58,1.46-1.11,0-2.22,0-3.28-.03-6.81-.05-12.69-.3-17.53-.6,0,0,2.47,19.99-20.05,20.27v15.61h102.43c-3.73-11.58,7.41-17,7.41-17-5.98-3.63-10.41-6.43-16.44-10.26-2.86-1.83-6.08-3.88-10.02-6.37Z"/><path class="cls-18" d="m2086.01,1764.31v.56c0,3.1,2.51,5.63,5.61,5.63h117.09c1.22,0,2.32-.5,3.13-1.3.79-.81,1.29-1.91,1.29-3.13,0-.59-.04-1.18-.11-1.76h-127.01Z"/><path class="cls-11" d="m2090.55,1714.2v12.72s.05,0,.16.03c1.73.19,17.39,1.88,32.88,2.1,1.06.03,2.16.03,3.28.03,13.26,0,24.23-.83,30.58-1.46,3.68-.39,5.74-.68,5.74-.68v-12.72h-72.64Z"/><path class="cls-5" d="m2159.33,1741.66c-.17,0-.34-.06-.47-.19-.27-.26-.27-.68-.01-.95l10.06-10.32c.26-.27.69-.27.95-.01.27.26.27.68.01.95l-10.06,10.32c-.13.14-.31.2-.48.2Z"/><path class="cls-5" d="m2164.36,1745.09c-.17,0-.34-.06-.47-.19-.27-.26-.27-.68-.01-.95l10.07-10.32c.26-.26.68-.27.95-.01.26.26.27.68.01.95l-10.07,10.32c-.13.13-.31.2-.48.2Z"/><path class="cls-5" d="m2169.39,1747.98c-.17,0-.34-.06-.47-.19-.27-.26-.27-.68-.01-.95l10.02-10.26c.22-.3.64-.35.93-.12.3.22.35.65.12.95l-.04.05-10.08,10.33c-.13.13-.31.2-.48.2Z"/><path class="cls-5" d="m2365.82,1747.31s-11.15,5.43-7.41,17h24.58c-.54-4.57-3.17-8.65-7.19-11.03-3.91-2.31-7.13-4.23-9.98-5.98Z"/><path class="cls-5" d="m2255.98,1731.36v17.34c22.53-.28,20.05-20.27,20.05-20.27-9.01-.58-14.4-1.34-15.35-1.49-.11-.01-.16-.03-.16-.03h-.09c-2.46,0-4.45,1.99-4.45,4.45Z"/><path class="cls-7" d="m2339.36,1730.68c-1.83-1.16-3.8-2.4-5.96-3.76,0,0-2.15.3-5.98.68-6.35.63-17.33,1.46-30.58,1.46-1.11,0-2.22,0-3.28-.03-6.81-.05-12.69-.3-17.53-.6,0,0,2.47,19.99-20.05,20.27v15.61h102.43c-3.73-11.58,7.41-17,7.41-17-5.98-3.63-10.41-6.43-16.44-10.26-2.86-1.83-6.08-3.88-10.02-6.37Z"/><path class="cls-18" d="m2255.98,1764.31v.56c0,3.1,2.51,5.63,5.61,5.63h117.09c1.22,0,2.32-.5,3.13-1.3.79-.81,1.29-1.91,1.29-3.13,0-.59-.04-1.18-.11-1.76h-127.01Z"/><path class="cls-11" d="m2260.52,1714.2v12.72s.05,0,.16.03c1.73.19,17.39,1.88,32.88,2.1,1.06.03,2.16.03,3.28.03,13.26,0,24.23-.83,30.58-1.46,3.68-.39,5.74-.68,5.74-.68v-12.72h-72.64Z"/><path class="cls-5" d="m2329.3,1741.66c-.17,0-.34-.06-.47-.19-.27-.26-.27-.68-.01-.95l10.06-10.32c.26-.27.69-.27.95-.01.27.26.27.68.01.95l-10.06,10.32c-.13.14-.31.2-.48.2Z"/><path class="cls-5" d="m2334.32,1745.09c-.17,0-.34-.06-.47-.19-.26-.26-.27-.68-.01-.95l10.07-10.32c.26-.26.68-.27.95-.01.26.26.27.68.01.95l-10.07,10.32c-.13.13-.31.2-.48.2Z"/><path class="cls-5" d="m2339.36,1747.98c-.17,0-.34-.06-.47-.19-.27-.26-.27-.68-.01-.95l10.02-10.26c.22-.3.64-.35.93-.12.3.22.35.65.12.95l-.04.05-10.08,10.33c-.13.13-.31.2-.48.2Z"/><polygon class="cls-22" points="2214.95 1325.09 2209.8 1509.02 2199 1459.11 2214.95 1325.09"/><path class="cls-22" d="m2097.81,1325.09l-1.28,41.84,1.28.04c2.81,0,5.53-.27,8.18-.81,19.22-3.8,33.7-20.75,33.7-41.07h-41.88Z"/><path class="cls-22" d="m2287.14,1325.09h-41.88c0,19.42,12.25,35.76,33.97,40.5,4.14.9,8.62,1.38,13.43,1.38l-5.52-41.88Z"/><path class="cls-23" d="m2279.51,1368.25s.06,0,.1,0c.37-.05.62-.39.57-.76l-.29-1.99c-.05-.37-.39-.63-.76-.57-.37.05-.62.39-.57.76l.29,1.99c.05.33.34.58.66.58Z"/><path class="cls-23" d="m2328.14,1708.34l-.57-3.96c-.05-.37.2-.71.57-.76.37-.05.71.2.76.57l.57,3.96c.05.37-.2.71-.57.76-.03,0-.07,0-.1,0-.33,0-.62-.24-.66-.58Zm-1.15-7.92l-.57-3.96c-.05-.37.2-.71.57-.76.37-.04.71.2.76.57l.57,3.96c.05.37-.2.71-.57.76-.03,0-.06,0-.1,0-.33,0-.62-.24-.66-.58Zm-1.15-7.92l-.57-3.96c-.05-.37.2-.71.57-.76.37-.04.71.2.76.57l.57,3.96c.05.37-.2.71-.57.76-.03,0-.07,0-.1,0-.33,0-.62-.24-.66-.58Zm-1.15-7.92l-.57-3.96c-.05-.37.2-.71.57-.76.36-.04.71.2.76.57l.57,3.96c.05.37-.2.71-.57.76-.03,0-.06,0-.1,0-.33,0-.62-.24-.66-.58Zm-1.15-7.92l-.57-3.96c-.05-.37.2-.71.57-.76.37-.05.71.2.76.57l.57,3.96c.05.37-.2.71-.57.76-.03,0-.06,0-.1,0-.33,0-.62-.24-.66-.58Zm-1.15-7.92l-.57-3.96c-.05-.37.2-.71.57-.76.37-.04.71.2.76.57l.57,3.96c.05.37-.2.71-.57.76-.03,0-.07,0-.1,0-.33,0-.62-.24-.66-.58Zm-1.15-7.92l-.57-3.96c-.05-.37.2-.71.57-.76.37-.04.71.2.76.57l.57,3.96c.05.37-.2.71-.57.76-.03,0-.06,0-.1,0-.33,0-.62-.24-.66-.58Zm-1.15-7.92l-.57-3.96c-.05-.37.2-.71.57-.76.37-.05.71.2.76.57l.57,3.96c.05.37-.2.71-.57.76-.03,0-.06,0-.1,0-.33,0-.62-.24-.66-.58Zm-1.15-7.92l-.57-3.96c-.05-.37.2-.71.57-.76.37-.05.71.2.76.57l.57,3.96c.05.37-.2.71-.57.76-.03,0-.07,0-.1,0-.33,0-.62-.24-.66-.58Zm-1.15-7.92l-.57-3.96c-.05-.37.2-.71.57-.76.37-.05.71.2.76.57l.57,3.96c.05.37-.2.71-.57.76-.03,0-.07,0-.1,0-.33,0-.62-.24-.66-.58Zm-1.15-7.92l-.57-3.96c-.05-.37.2-.71.57-.76.37-.06.71.2.76.57l.57,3.96c.05.37-.2.71-.57.76-.03,0-.07,0-.1,0-.33,0-.62-.24-.66-.58Zm-1.15-7.92l-.57-3.96c-.05-.37.2-.71.57-.76.37-.06.71.2.76.57l.57,3.96c.05.37-.2.71-.57.76-.03,0-.06,0-.1,0-.33,0-.62-.24-.66-.58Zm-1.15-7.92l-.57-3.96c-.05-.37.2-.71.57-.76.37-.07.71.2.76.57l.57,3.96c.05.37-.2.71-.57.76-.03,0-.06,0-.1,0-.33,0-.62-.24-.66-.58Zm-1.15-7.92l-.57-3.96c-.05-.37.2-.71.57-.76.37-.07.71.2.76.57l.57,3.96c.05.37-.2.71-.57.76-.03,0-.07,0-.1,0-.33,0-.62-.24-.66-.58Zm-1.15-7.92l-.57-3.96c-.05-.37.2-.71.57-.76.37-.06.71.2.76.57l.57,3.96c.05.37-.2.71-.57.76-.03,0-.06,0-.1,0-.33,0-.62-.24-.66-.58Zm-1.15-7.92l-.57-3.96c-.05-.37.2-.71.57-.76.37-.06.71.2.76.57l.57,3.96c.05.37-.2.71-.57.76-.03,0-.06,0-.1,0-.33,0-.62-.24-.66-.58Zm-1.15-7.92l-.57-3.96c-.05-.37.2-.71.57-.76.37-.06.71.2.76.57l.57,3.96c.05.37-.2.71-.57.76-.03,0-.06,0-.1,0-.33,0-.62-.24-.66-.58Zm-1.15-7.92l-.57-3.96c-.05-.37.2-.71.57-.76.37-.05.71.2.76.57l.57,3.96c.05.37-.2.71-.57.76-.03,0-.06,0-.1,0-.33,0-.62-.24-.66-.58Zm-1.15-7.92l-.57-3.96c-.05-.37.2-.71.57-.76.37-.06.71.2.76.57l.57,3.96c.05.37-.2.71-.57.76-.03,0-.06,0-.1,0-.33,0-.62-.24-.66-.58Zm-1.15-7.92l-.57-3.96c-.05-.37.2-.71.57-.76.37-.06.71.2.76.57l.57,3.96c.05.37-.2.71-.57.76-.03,0-.07,0-.1,0-.33,0-.62-.24-.66-.58Zm-1.15-7.92l-.57-3.96c-.05-.37.2-.71.57-.76.37-.06.71.2.76.57l.57,3.96c.05.37-.2.71-.57.76-.03,0-.06,0-.1,0-.33,0-.62-.24-.66-.58Zm-1.15-7.92l-.57-3.96c-.05-.37.2-.71.57-.76.37-.06.71.2.76.57l.57,3.96c.05.37-.2.71-.57.76-.03,0-.06,0-.1,0-.33,0-.62-.24-.66-.58Zm-1.15-7.92l-.57-3.96c-.05-.37.2-.71.57-.76.37-.06.71.2.76.57l.57,3.96c.05.37-.2.71-.57.76-.03,0-.06,0-.1,0-.33,0-.62-.24-.66-.58Zm-1.15-7.92l-.57-3.96c-.05-.37.2-.71.57-.76.37-.06.71.2.76.57l.57,3.96c.05.37-.2.71-.57.76-.03,0-.06,0-.1,0-.33,0-.62-.24-.66-.58Zm-1.15-7.92l-.57-3.96c-.05-.37.2-.71.57-.76.37-.06.71.2.76.57l.57,3.96c.05.37-.2.71-.57.76-.03,0-.06,0-.1,0-.33,0-.62-.24-.66-.58Zm-1.15-7.92l-.57-3.96c-.05-.37.2-.71.57-.76.37-.07.71.2.76.57l.57,3.96c.05.37-.2.71-.57.76-.03,0-.07,0-.1,0-.33,0-.62-.24-.66-.58Zm-1.15-7.92l-.57-3.96c-.05-.37.2-.71.57-.76.38-.06.71.2.76.57l.57,3.96c.05.37-.2.71-.57.76-.03,0-.07,0-.1,0-.33,0-.62-.24-.66-.58Zm-1.15-7.92l-.57-3.96c-.05-.37.2-.71.57-.76.37-.06.71.2.76.57l.57,3.96c.05.37-.2.71-.57.76-.03,0-.07,0-.1,0-.33,0-.62-.24-.66-.58Zm-1.15-7.92l-.57-3.96c-.05-.37.2-.71.57-.76.37-.06.71.2.76.57l.57,3.96c.05.37-.2.71-.57.76-.03,0-.07,0-.1,0-.33,0-.62-.24-.66-.58Zm-1.15-7.92l-.57-3.96c-.05-.37.2-.71.57-.76.37-.06.71.2.76.57l.57,3.96c.05.37-.2.71-.57.76-.03,0-.06,0-.1,0-.33,0-.62-.24-.66-.58Zm-1.15-7.92l-.57-3.96c-.05-.37.2-.71.57-.76.37-.07.71.2.76.57l.57,3.96c.05.37-.2.71-.57.76-.03,0-.07,0-.1,0-.33,0-.62-.24-.66-.58Zm-1.15-7.92l-.57-3.96c-.05-.37.2-.71.57-.76.37-.06.71.2.76.57l.57,3.96c.05.37-.2.71-.57.76-.03,0-.06,0-.1,0-.33,0-.62-.24-.66-.58Zm-1.15-7.92l-.57-3.96c-.05-.37.2-.71.57-.76.37-.06.71.2.76.57l.57,3.96c.05.37-.2.71-.57.76-.03,0-.06,0-.1,0-.33,0-.62-.24-.66-.58Zm-1.15-7.92l-.57-3.96c-.05-.37.2-.71.57-.76.36-.05.71.2.76.57l.57,3.96c.05.37-.2.71-.57.76-.03,0-.06,0-.1,0-.33,0-.62-.24-.66-.58Zm-1.15-7.92l-.57-3.96c-.05-.37.2-.71.57-.76.37-.06.71.2.76.57l.57,3.96c.05.37-.2.71-.57.76-.03,0-.06,0-.1,0-.33,0-.62-.24-.66-.58Zm-1.15-7.92l-.57-3.96c-.05-.37.2-.71.57-.76.37-.06.71.2.76.57l.57,3.96c.05.37-.2.71-.57.76-.03,0-.07,0-.1,0-.33,0-.62-.24-.66-.58Zm-1.15-7.92l-.57-3.96c-.05-.37.2-.71.57-.76.37-.06.71.2.76.57l.57,3.96c.05.37-.2.71-.57.76-.03,0-.06,0-.1,0-.33,0-.62-.24-.66-.58Zm-1.15-7.92l-.57-3.96c-.05-.37.2-.71.57-.76.37-.06.71.2.76.57l.57,3.96c.05.37-.2.71-.57.76-.03,0-.06,0-.1,0-.33,0-.62-.24-.66-.58Zm-1.15-7.92l-.57-3.96c-.05-.37.2-.71.57-.76.37-.06.71.2.76.57l.57,3.96c.05.37-.2.71-.57.76-.03,0-.07,0-.1,0-.33,0-.62-.24-.66-.58Zm-1.15-7.92l-.57-3.96c-.05-.37.2-.71.57-.76.36-.05.71.2.76.57l.57,3.96c.05.37-.2.71-.57.76-.03,0-.07,0-.1,0-.33,0-.62-.24-.66-.58Zm-1.15-7.92l-.57-3.96c-.05-.37.2-.71.57-.76.37-.05.71.2.76.57l.57,3.96c.05.37-.2.71-.57.76-.03,0-.07,0-.1,0-.33,0-.62-.24-.66-.58Zm-1.15-7.92l-.57-3.96c-.05-.37.2-.71.57-.76.37-.06.71.2.76.57l.57,3.96c.05.37-.2.71-.57.76-.03,0-.06,0-.1,0-.33,0-.62-.24-.66-.58Zm-1.15-7.92l-.57-3.96c-.05-.37.2-.71.57-.76.37-.07.71.2.76.57l.57,3.96c.05.37-.2.71-.57.76-.03,0-.07,0-.1,0-.33,0-.62-.24-.66-.58Z"/><path class="cls-23" d="m2329.66,1714.87s.06,0,.1,0c.37-.05.62-.39.57-.76l-.29-1.99c-.05-.37-.39-.61-.76-.57-.37.05-.62.39-.57.76l.29,1.99c.05.33.34.58.66.58Z"/><path class="cls-23" d="m2252.04,1707.2c0-.37.3-.67.67-.67h4.03c.37,0,.67.3.67.67s-.3.67-.67.67h-4.03c-.37,0-.67-.3-.67-.67Zm8.06,0c0-.37.3-.67.67-.67h4.03c.37,0,.67.3.67.67s-.3.67-.67.67h-4.03c-.37,0-.67-.3-.67-.67Zm8.06,0c0-.37.3-.67.67-.67h4.03c.37,0,.67.3.67.67s-.3.67-.67.67h-4.03c-.37,0-.67-.3-.67-.67Zm8.06,0c0-.37.3-.67.67-.67h4.03c.37,0,.67.3.67.67s-.3.67-.67.67h-4.03c-.37,0-.67-.3-.67-.67Zm8.06,0c0-.37.3-.67.67-.67h4.03c.37,0,.67.3.67.67s-.3.67-.67.67h-4.03c-.37,0-.67-.3-.67-.67Zm8.06,0c0-.37.3-.67.67-.67h4.03c.37,0,.67.3.67.67s-.3.67-.67.67h-4.03c-.37,0-.67-.3-.67-.67Zm8.06,0c0-.37.3-.67.67-.67h4.03c.37,0,.67.3.67.67s-.3.67-.67.67h-4.03c-.37,0-.67-.3-.67-.67Zm8.06,0c0-.37.3-.67.67-.67h4.03c.37,0,.67.3.67.67s-.3.67-.67.67h-4.03c-.37,0-.67-.3-.67-.67Zm8.06,0c0-.37.3-.67.67-.67h4.03c.37,0,.67.3.67.67s-.3.67-.67.67h-4.03c-.37,0-.67-.3-.67-.67Zm8.06,0c0-.37.3-.67.67-.67h4.03c.37,0,.67.3.67.67s-.3.67-.67.67h-4.03c-.37,0-.67-.3-.67-.67Zm8.06,0c0-.37.3-.67.67-.67h4.03c.37,0,.67.3.67.67s-.3.67-.67.67h-4.03c-.37,0-.67-.3-.67-.67Z"/><path class="cls-23" d="m2096.05,1714.87c-.37-.01-.66-.32-.65-.69l.05-1.63c.01-.37.34-.64.69-.65.37.01.66.32.65.69l-.05,1.63c-.01.36-.31.65-.67.65h-.02Zm.16-5.66c-.37-.01-.66-.32-.65-.69l.12-4.03c.01-.37.33-.66.69-.65.37.01.66.32.65.69l-.12,4.03c-.01.36-.31.65-.67.65h-.02Zm.23-8.06c-.37-.01-.66-.32-.65-.69l.11-4.03c.01-.37.32-.64.69-.65.37.01.66.32.65.69l-.11,4.03c-.01.36-.31.65-.67.65h-.02Zm.23-8.06c-.37-.01-.66-.32-.65-.69l.11-4.03c.01-.37.31-.65.69-.65.37.01.66.32.65.69l-.11,4.03c-.01.36-.31.65-.67.65h-.02Zm.23-8.06c-.37-.01-.66-.32-.65-.69l.11-4.03c.01-.37.3-.63.69-.65.37.01.66.32.65.69l-.11,4.03c-.01.36-.31.65-.67.65h-.02Zm.23-8.06c-.37-.01-.66-.32-.65-.69l.11-4.03c.01-.37.33-.65.69-.65.37.01.66.32.65.69l-.11,4.03c-.01.36-.31.65-.67.65h-.02Zm.23-8.06c-.37-.01-.66-.32-.65-.69l.11-4.03c.01-.37.32-.67.69-.65.37.01.66.32.65.69l-.11,4.03c-.01.36-.31.65-.67.65h-.02Zm.23-8.06c-.37-.01-.66-.32-.65-.69l.12-4.03c.01-.37.31-.65.69-.65.37.01.66.32.65.69l-.12,4.03c-.01.36-.31.65-.67.65h-.02Zm.23-8.06c-.37-.01-.66-.32-.65-.69l.11-4.03c.01-.37.31-.66.69-.65.37.01.66.32.65.69l-.11,4.03c-.01.36-.31.65-.67.65h-.02Zm.23-8.06c-.37-.01-.66-.32-.65-.69l.11-4.03c.01-.37.34-.64.69-.65.37.01.66.32.65.69l-.11,4.03c-.01.36-.31.65-.67.65h-.02Zm.23-8.06c-.37-.01-.66-.32-.65-.69l.11-4.03c.01-.37.33-.66.69-.65.37.01.66.32.65.69l-.11,4.03c-.01.36-.31.65-.67.65h-.02Zm.23-8.06c-.37-.01-.66-.32-.65-.69l.12-4.03c.01-.37.29-.66.69-.65.37.01.66.32.65.69l-.12,4.03c-.01.36-.31.65-.67.65h-.02Zm.23-8.06c-.37-.01-.66-.32-.65-.69l.11-4.03c.01-.37.31-.65.69-.65.37.01.66.32.65.69l-.11,4.03c-.01.36-.31.65-.67.65h-.02Zm.23-8.06c-.37-.01-.66-.32-.65-.69l.11-4.03c.01-.37.34-.63.69-.65.37.01.66.32.65.69l-.11,4.03c-.01.36-.31.65-.67.65h-.02Zm.23-8.06c-.37-.01-.66-.32-.65-.69l.11-4.03c.01-.37.33-.65.69-.65.37.01.66.32.65.69l-.11,4.03c-.01.36-.31.65-.67.65h-.02Zm.23-8.06c-.37-.01-.66-.32-.65-.69l.12-4.03c.01-.37.32-.67.69-.65.37.01.66.32.65.69l-.12,4.03c-.01.36-.31.65-.67.65h-.02Zm.23-8.06c-.37-.01-.66-.32-.65-.69l.11-4.03c.01-.37.31-.64.69-.65.37.01.66.32.65.69l-.11,4.03c-.01.36-.31.65-.67.65h-.02Zm.23-8.06c-.37-.01-.66-.32-.65-.69l.11-4.03c.01-.37.3-.66.69-.65.37.01.66.32.65.69l-.11,4.03c-.01.36-.31.65-.67.65h-.02Zm.23-8.06c-.37-.01-.66-.32-.65-.69l.11-4.03c.01-.37.33-.64.69-.65.37.01.66.32.65.69l-.11,4.03c-.01.36-.31.65-.67.65h-.02Zm.23-8.06c-.37-.01-.66-.32-.65-.69l.11-4.03c.01-.37.32-.66.69-.65.37.01.66.32.65.69l-.11,4.03c-.01.36-.31.65-.67.65h-.02Zm.23-8.06c-.37-.01-.66-.32-.65-.69l.11-4.03c.01-.37.31-.64.69-.65.37.01.66.32.65.69l-.11,4.03c-.01.36-.31.65-.67.65h-.02Zm.23-8.06c-.37-.01-.66-.32-.65-.69l.11-4.03c.01-.37.3-.68.69-.65.37.01.66.32.65.69l-.11,4.03c-.01.36-.31.65-.67.65h-.02Zm.23-8.06c-.37-.01-.66-.32-.65-.69l.11-4.03c.01-.37.33-.67.69-.65.37.01.66.32.65.69l-.11,4.03c-.01.36-.31.65-.67.65h-.02Zm.23-8.06c-.37-.01-.66-.32-.65-.69l.11-4.03c.01-.37.33-.65.69-.65.37.01.66.32.65.69l-.11,4.03c-.01.36-.31.65-.67.65h-.02Zm.23-8.06c-.37-.01-.66-.32-.65-.69l.11-4.03c.01-.37.32-.66.69-.65.37.01.66.32.65.69l-.11,4.03c-.01.36-.31.65-.67.65h-.02Zm.23-8.06c-.37-.01-.66-.32-.65-.69l.11-4.03c.01-.37.28-.65.69-.65.37.01.66.32.65.69l-.11,4.03c-.01.36-.31.65-.67.65h-.02Zm.23-8.06c-.37-.01-.66-.32-.65-.69l.12-4.03c.01-.37.34-.66.69-.65.37.01.66.32.65.69l-.12,4.03c-.01.36-.31.65-.67.65h-.02Zm.23-8.06c-.37-.01-.66-.32-.65-.69l.11-4.03c.01-.37.33-.64.69-.65.37.01.66.32.65.69l-.11,4.03c-.01.36-.31.65-.67.65h-.02Zm.23-8.06c-.37-.01-.66-.32-.65-.69l.11-4.03c.01-.37.32-.66.69-.65.37.01.66.32.65.69l-.11,4.03c-.01.36-.31.65-.67.65h-.02Zm.23-8.06c-.37-.01-.66-.32-.65-.69l.11-4.03c.01-.37.31-.64.69-.65.37.01.66.32.65.69l-.11,4.03c-.01.36-.31.65-.67.65h-.02Zm.23-8.06c-.37-.01-.66-.32-.65-.69l.12-4.03c.01-.37.34-.65.69-.65.37.01.66.32.65.69l-.12,4.03c-.01.36-.31.65-.67.65h-.02Zm.23-8.06c-.37-.01-.66-.32-.65-.69l.11-4.03c.01-.37.33-.67.69-.65.37.01.66.32.65.69l-.11,4.03c-.01.36-.31.65-.67.65h-.02Zm.23-8.06c-.37-.01-.66-.32-.65-.69l.11-4.03c.01-.37.32-.65.69-.65.37.01.66.32.65.69l-.11,4.03c-.01.36-.31.65-.67.65h-.02Zm.23-8.06c-.37-.01-.66-.32-.65-.69l.11-4.03c.01-.37.31-.66.69-.65.37.01.66.32.65.69l-.11,4.03c-.01.36-.31.65-.67.65h-.02Zm.23-8.06c-.37-.01-.66-.32-.65-.69l.12-4.03c.01-.37.31-.64.69-.65.37.01.66.32.65.69l-.12,4.03c-.01.36-.31.65-.67.65h-.02Zm.23-8.06c-.37-.01-.66-.32-.65-.69l.11-4.03c.01-.37.33-.66.69-.65.37.01.66.32.65.69l-.11,4.03c-.01.36-.31.65-.67.65h-.02Zm.23-8.06c-.37-.01-.66-.32-.65-.69l.11-4.03c.01-.37.32-.64.69-.65.37.01.66.32.65.69l-.11,4.03c-.01.36-.31.65-.67.65h-.02Zm.23-8.06c-.37-.01-.66-.32-.65-.69l.11-4.03c.01-.37.32-.65.69-.65.37.01.66.32.65.69l-.11,4.03c-.01.36-.31.65-.67.65h-.02Zm.23-8.06c-.37-.01-.66-.32-.65-.69l.11-4.03c.01-.37.31-.63.69-.65.37.01.66.32.65.69l-.11,4.03c-.01.36-.31.65-.67.65h-.02Zm.23-8.06c-.37-.01-.66-.32-.65-.69l.11-4.03c.01-.37.34-.65.69-.65.37.01.66.32.65.69l-.11,4.03c-.01.36-.31.65-.67.65h-.02Zm.23-8.06c-.37-.01-.66-.32-.65-.69l.11-4.03c.01-.37.33-.67.69-.65.37.01.66.32.65.69l-.11,4.03c-.01.36-.31.65-.67.65h-.02Zm.23-8.06c-.37-.01-.66-.32-.65-.69l.11-4.03c.01-.37.32-.65.69-.65.37.01.66.32.65.69l-.11,4.03c-.01.36-.31.65-.67.65h-.02Zm.23-8.06c-.37-.01-.66-.32-.65-.69l.11-4.03c.01-.37.31-.66.69-.65.37.01.66.32.65.69l-.11,4.03c-.01.36-.31.65-.67.65h-.02Zm.23-8.06c-.37-.01-.66-.32-.65-.69l.11-4.03c.01-.37.34-.64.69-.65.37.01.66.32.65.69l-.11,4.03c-.01.36-.31.65-.67.65h-.02Z"/><path class="cls-23" d="m2085.55,1707.2c0-.37.3-.67.67-.67h2.58c.37,0,.67.3.67.67s-.3.67-.67.67h-2.58c-.37,0-.67-.3-.67-.67Zm6.61,0c0-.37.3-.67.67-.67h4.03c.37,0,.67.3.67.67s-.3.67-.67.67h-4.03c-.37,0-.67-.3-.67-.67Zm8.06,0c0-.37.3-.67.67-.67h4.03c.37,0,.67.3.67.67s-.3.67-.67.67h-4.03c-.37,0-.67-.3-.67-.67Zm8.06,0c0-.37.3-.67.67-.67h4.03c.37,0,.67.3.67.67s-.3.67-.67.67h-4.03c-.37,0-.67-.3-.67-.67Zm8.06,0c0-.37.3-.67.67-.67h4.03c.37,0,.67.3.67.67s-.3.67-.67.67h-4.03c-.37,0-.67-.3-.67-.67Zm8.06,0c0-.37.3-.67.67-.67h4.03c.37,0,.67.3.67.67s-.3.67-.67.67h-4.03c-.37,0-.67-.3-.67-.67Zm8.06,0c0-.37.3-.67.67-.67h4.03c.37,0,.67.3.67.67s-.3.67-.67.67h-4.03c-.37,0-.67-.3-.67-.67Zm8.06,0c0-.37.3-.67.67-.67h4.03c.37,0,.67.3.67.67s-.3.67-.67.67h-4.03c-.37,0-.67-.3-.67-.67Zm8.06,0c0-.37.3-.67.67-.67h4.03c.37,0,.67.3.67.67s-.3.67-.67.67h-4.03c-.37,0-.67-.3-.67-.67Zm8.06,0c0-.37.3-.67.67-.67h4.03c.37,0,.67.3.67.67s-.3.67-.67.67h-4.03c-.37,0-.67-.3-.67-.67Zm8.06,0c0-.37.3-.67.67-.67h4.03c.37,0,.67.3.67.67s-.3.67-.67.67h-4.03c-.37,0-.67-.3-.67-.67Z"/><polygon class="cls-38" points="2097.8 1325.09 2289.74 1344.87 2287.14 1325.09 2097.8 1325.09"/><path class="cls-33" d="m2214.95,1093.65s65.49,9.38,97.38,46.36c31.89,36.98-11.02,36.31-22.85,34.96-11.83-1.34-74.53-81.32-74.53-81.32Z"/><polygon class="cls-11" points="2153.83 1053.08 2159.61 1099.42 2201.62 1092.98 2201.93 1091.79 2203.42 1086 2204.99 1079.98 2205.01 1079.91 2210.68 1058.06 2153.83 1053.08"/><path class="cls-11" d="m2150.61,1036.07c.95,26.43,17.55,50.87,43.99,49.92,26.43-.95,46.88-.82,51.74-53.36,2.43-26.34-23.15-47.09-49.58-46.14-26.43.95-47.09,23.15-46.14,49.59Z"/><path class="cls-22" d="m2200.25,1010.61c-8.16-3.85-17.48-4.57-26.04-1.7-1.33.44-2.51.9-3.42,1.34-5.05,2.46-4.31,16.53-4.31,16.53,0,0-6.7-5.3-8.65,3.9-1.95,9.2,6.66,10.6,6.66,10.6l-5.65,23.95s-8.98-14.6-15.12-40.05c-5.96-24.69,14.29-63.67,38.42-56.13,0,0,20.06-17.04,44.26-9.65,26.46,8.08,44.71,24.88,55.8,12.1,0,0-7.5,62.86-58.38,47.4l-23.56-8.3Z"/><path class="cls-12" d="m2200.52,1098.37l2.9-12.36s-30.48,2.49-41.41-16.01c0,0,.19,25.17,38.51,28.38Z"/><path class="cls-17" d="m2093.86,1250.98l-3.33-59.56c-2.69-47.78-.15-97.77,76.6-97.72.09-.03.2-.04.3-.05,5.09-.83,8.84-1.18,10.61-1.33.75-.05,1.14-.08,1.14-.08,98.94,0,96.28,36.78,99.18,88.65l3.13,55.81,9.98,82.16c.71,5.83-3.83,10.98-9.7,11l-181.5.83c-5.63.03-10.13-4.68-9.85-10.31l3.45-69.4Z"/><path class="cls-32" d="m2178.04,1092.32c-1.77.15-5.52.5-10.61,1.33,3.47-.64,7.01-1.09,10.61-1.33Z"/><path class="cls-12" d="m2256.7,1224.11h0c-2.55-2.48-8.96,1.27-6.48-1.28l16.05-17.84c2.48-2.55,6.6-2.61,9.16-.12h0c2.55,2.48,2.61,6.6.12,9.16l-9.7,9.97c-2.48,2.55-6.6,2.61-9.16.12Z"/><path class="cls-29" d="m2279.92,1253.93l-3.9-.12c-4.77-.17-8.53-4.18-8.37-8.95l3.9-117.39c.16-4.79,4.16-8.53,8.95-8.37l3.77.13c-4.74-.1-8.67,3.62-8.82,8.36l-3.9,117.39c-.15,4.78,3.6,8.78,8.37,8.95Z"/><path class="cls-16" d="m2356.96,1256.49l-3.77-.13-73.27-2.43c-4.77-.17-8.53-4.18-8.37-8.95l3.9-117.39c.15-4.75,4.08-8.46,8.82-8.36.05,0,.08-.02.13,0l73.14,2.44,3.9.12c4.78.15,8.53,4.16,8.37,8.95l-3.9,117.39c-.17,4.77-4.18,8.53-8.95,8.37Z"/><path class="cls-10" d="m2312.48,1186.33c-.84,4.53,2.15,8.89,6.68,9.73,4.53.84,8.89-2.15,9.73-6.68.84-4.53-2.15-8.89-6.68-9.73-4.53-.84-8.89,2.15-9.73,6.68Z"/><path class="cls-10" d="m2355.14,1132.4c-.32,1.71.81,3.35,2.52,3.67,1.71.32,3.35-.81,3.67-2.52.32-1.71-.81-3.35-2.52-3.67-1.71-.32-3.35.81-3.67,2.52Z"/><rect class="cls-11" x="2245.66" y="1217.34" width="45.34" height="37.46" rx="14.13" ry="14.13" transform="translate(-138.11 296.8) rotate(-7.27)"/><rect class="cls-11" x="2274.09" y="1208.72" width="12.95" height="26.86" rx="4.89" ry="4.89" transform="translate(3204.55 -1194.63) rotate(82.74)"/><rect class="cls-11" x="2283.82" y="1215.61" width="12.95" height="26.86" rx="4.89" ry="4.89" transform="translate(3219.8 -1198.31) rotate(82.73)"/><path class="cls-11" d="m2286.43,1224.06h3.18c2.7,0,4.89,2.19,4.89,4.89v17.09c0,2.7-2.19,4.89-4.89,4.89h-3.18c-2.7,0-4.89-2.19-4.89-4.89v-17.09c0-2.7,2.19-4.89,4.89-4.89Z" transform="translate(3226.26 -1188.65) rotate(82.74)"/><rect class="cls-11" x="2274.68" y="1233.06" width="12.95" height="26.86" rx="4.89" ry="4.89" transform="translate(3229.13 -1174) rotate(82.73)"/><rect class="cls-12" x="2272.98" y="1223.25" width="21.08" height="1.34" transform="translate(-180.89 424.47) rotate(-10.22)"/><rect class="cls-12" x="2280.18" y="1234.78" width="20.64" height="1.34" transform="translate(-182.83 425.9) rotate(-10.22)"/><rect class="cls-12" x="2276.05" y="1244.2" width="17.73" height="1.34" transform="translate(-184.59 425.05) rotate(-10.22)"/><path class="cls-33" d="m2128.82,1105.8c-21.89.38-38.83,19.29-36.84,41.1.85,9.3,1.7,17.48,2.34,20.95.43,2.53,1,5.12,1.5,7.67.53,2.56,1.07,5.11,1.71,7.71.63,2.59,1.21,5.15,1.91,7.75l2.21,7.83c.35,1.29.77,2.62,1.23,3.95l1.33,3.97,1.34,3.96,1.57,4.07,1.61,4.05c.28.68.53,1.34.83,2.03l.97,2.1,1.96,4.18.99,2.08.5,1.04.84,1.57c1.2,2.15,2.39,4.32,3.77,6.33,1.42,1.98,2.89,3.93,4.42,5.8,1.59,1.74,3.23,3.44,4.89,5.09,1.68,1.55,3.41,2.94,5.17,4.33,7.04,5.26,14.17,8.64,20.91,10.96,1.66.53,3.39,1.17,5,1.56l4.88,1.25c3.16.66,6.34,1.25,9.38,1.61,6.11.8,11.99,1.11,17.64,1.05,11.34-.06,21.99-1.43,32.33-3.33,5.16-1.03,10.24-2.15,15.25-3.53,2.51-.7,5-1.4,7.49-2.18l3.74-1.23,3.97-1.37-6.6-36.43c-.31-.07-.93-.09-1.44-.14l-1.62-.1-3.3-.24c-2.21-.14-4.43-.32-6.64-.51-4.42-.4-8.81-.78-13.12-1.37-8.61-1.02-16.98-2.51-24.52-4.48-3.79-.95-7.3-2.14-10.45-3.37-.76-.33-1.6-.6-2.28-.97-.7-.35-1.41-.68-2.11-.99l-1.86-1.04c-.65-.32-1.07-.72-1.61-1.05-1.98-1.4-2.99-6.12-2.99-6.12l-.66-2.44-.34-1.21c-.11-.42-.19-.9-.29-1.35l-.58-2.72-.62-2.69-.52-2.91c-.33-1.96-.73-3.79-1.02-5.85-.67-4.01-2.47-23.6-4.09-42.02-1.73-19.7-18.4-34.7-38.17-34.35h0Z"/><path class="cls-11" d="m2366.67,1197.98h3.18c2.7,0,4.89,2.19,4.89,4.89v17.09c0,2.7-2.19,4.89-4.89,4.89h-3.18c-2.7,0-4.89-2.19-4.89-4.89v-17.09c0-2.7,2.19-4.89,4.89-4.89Z" transform="translate(904.9 3432.85) rotate(-83.72)"/><rect class="cls-11" x="2360.4" y="1184.62" width="12.95" height="30.86" rx="4.89" ry="4.89" transform="translate(915.05 3421.4) rotate(-83.72)"/><path class="cls-11" d="m2367.83,1176.87h3.18c2.7,0,4.89,2.19,4.89,4.89v17.09c0,2.7-2.19,4.89-4.89,4.89h-3.18c-2.7,0-4.89-2.19-4.89-4.89v-17.09c0-2.7,2.19-4.89,4.89-4.89Z" transform="translate(926.99 3415.24) rotate(-83.72)"/><rect class="cls-11" x="2363.08" y="1171" width="12.95" height="19.11" rx="4.89" ry="4.89" transform="translate(936.73 3406.66) rotate(-83.72)"/><rect class="cls-12" x="2367.33" y="1195.39" width="1.34" height="21.51" transform="translate(1022.93 3498.09) rotate(-86.58)"/><rect class="cls-12" x="2367.72" y="1182.27" width="1.34" height="23.17" transform="translate(942.26 3430.09) rotate(-84.22)"/><rect class="cls-12" x="2368.25" y="1175.81" width="1.34" height="16.3" transform="translate(996.67 3449.02) rotate(-85.35)"/><path class="cls-11" d="m3609.58,497.78h-388.65c-17.4,0-31.51,14.11-31.51,31.51v296.62l59.04-59.04h361.12c17.4,0,31.51-14.11,31.51-31.51v-206.07c0-17.4-14.11-31.51-31.51-31.51Z"/><path class="cls-22" d="m3375.74,656.5c0-5.13,4.18-9.31,9.31-9.31s9.31,4.18,9.31,9.31-4.18,9.31-9.31,9.31-9.31-4.18-9.31-9.31Zm4.57,0c0,2.61,2.13,4.74,4.74,4.74s4.74-2.13,4.74-4.74-2.13-4.74-4.74-4.74-4.74,2.12-4.74,4.74Z"/><path class="cls-22" d="m3342.44,678.21c0-5.13,4.18-9.31,9.31-9.31s9.31,4.18,9.31,9.31-4.18,9.31-9.31,9.31-9.31-4.18-9.31-9.31Zm4.57,0c0,2.61,2.13,4.74,4.74,4.74s4.74-2.13,4.74-4.74-2.12-4.74-4.74-4.74-4.74,2.12-4.74,4.74Z"/><path class="cls-22" d="m3309.14,671.19c0-5.13,4.18-9.31,9.31-9.31s9.31,4.18,9.31,9.31-4.18,9.31-9.31,9.31-9.31-4.18-9.31-9.31Zm4.57,0c0,2.61,2.13,4.74,4.74,4.74s4.74-2.13,4.74-4.74-2.12-4.74-4.74-4.74-4.74,2.13-4.74,4.74Z"/><path class="cls-22" d="m3275.84,697.82c0-5.13,4.18-9.31,9.31-9.31s9.31,4.18,9.31,9.31-4.18,9.31-9.31,9.31-9.31-4.18-9.31-9.31Zm4.57,0c0,2.61,2.12,4.74,4.74,4.74s4.74-2.13,4.74-4.74-2.13-4.74-4.74-4.74-4.74,2.13-4.74,4.74Z"/><rect class="cls-22" x="3256.75" y="704.2" width="23.5" height="4.57" transform="translate(43.27 1589.71) rotate(-27.51)"/><rect class="cls-22" x="3287.5" y="682.22" width="28.59" height="4.57" transform="translate(295.55 2211.89) rotate(-38.65)"/><rect class="cls-22" x="3332.81" y="664.71" width="4.57" height="19.99" transform="translate(1986.71 3798.79) rotate(-78.09)"/><rect class="cls-22" x="3355.54" y="665.07" width="25.71" height="4.57" transform="translate(182.19 1947.8) rotate(-33.1)"/><path class="cls-22" d="m3383.52,731.78h3.05v4.24h-3.05v-4.24Zm0-8.53h3.05v5.94h-3.05v-5.94Zm0-8.53h3.05v5.94h-3.05v-5.94Zm0-8.53h3.05v5.94h-3.05v-5.94Zm0-8.53h3.05v5.94h-3.05v-5.94Zm0-8.53h3.05v5.94h-3.05v-5.94Zm0-8.53h3.05v5.94h-3.05v-5.94Zm0-8.53h3.05v5.94h-3.05v-5.94Zm0-8.53h3.05v5.94h-3.05v-5.94Z"/><path class="cls-22" d="m3350.22,727.9h3.05v5.94h-3.05v-5.94Zm0-8.53h3.05v5.94h-3.05v-5.94Zm0-8.53h3.05v5.94h-3.05v-5.94Zm0-8.53h3.05v5.94h-3.05v-5.94Zm0-8.53h3.05v5.94h-3.05v-5.94Zm0-8.53h3.05v5.94h-3.05v-5.94Z"/><path class="cls-22" d="m3316.92,729.4h3.05v5.94h-3.05v-5.94Zm0-8.53h3.05v5.94h-3.05v-5.94Zm0-8.53h3.05v5.94h-3.05v-5.94Zm0-8.53h3.05v5.94h-3.05v-5.94Zm0-8.53h3.05v5.94h-3.05v-5.94Zm0-8.53h3.05v5.94h-3.05v-5.94Zm0-8.53h3.05v5.94h-3.05v-5.94Z"/><path class="cls-22" d="m3283.62,730.44h3.05v5.58h-3.05v-5.58Zm0-8.53h3.05v5.94h-3.05v-5.94Zm0-8.53h3.05v5.94h-3.05v-5.94Zm0-8.53h3.05v5.94h-3.05v-5.94Z"/><path class="cls-22" d="m3250.32,730.71h3.05v5.3h-3.05v-5.3Zm0-8.53h3.05v5.94h-3.05v-5.94Z"/><path class="cls-22" d="m3242.54,715.16c0-5.13,4.18-9.31,9.31-9.31s9.31,4.18,9.31,9.31-4.18,9.31-9.31,9.31-9.31-4.18-9.31-9.31Zm4.57,0c0,2.61,2.13,4.74,4.74,4.74s4.74-2.13,4.74-4.74-2.13-4.74-4.74-4.74-4.74,2.13-4.74,4.74Z"/><rect class="cls-22" x="3398.79" y="653.08" width="3.05" height="18.7" transform="translate(1552.17 3592.5) rotate(-68.78)"/><polygon class="cls-22" points="3423.2 737.54 3241.57 737.54 3241.57 637.74 3244.62 637.74 3244.62 734.49 3423.2 734.49 3423.2 737.54"/><rect class="cls-12" x="3396.38" y="530.94" width="20.31" height="70.3" transform="translate(6813.08 1132.18) rotate(180)"/><rect class="cls-12" x="3365.52" y="546.03" width="20.31" height="55.21" transform="translate(6751.35 1147.28) rotate(180)"/><rect class="cls-12" x="3334.65" y="538.46" width="20.31" height="62.78" transform="translate(6689.62 1139.7) rotate(180)"/><rect class="cls-12" x="3303.79" y="560.62" width="20.31" height="40.62" transform="translate(6627.88 1161.86) rotate(180)"/><rect class="cls-12" x="3272.92" y="570.32" width="20.31" height="30.92" transform="translate(6566.15 1171.57) rotate(180)"/><rect class="cls-12" x="3242.05" y="584.37" width="20.31" height="16.87" transform="translate(6504.42 1185.61) rotate(180)"/><rect class="cls-22" x="3238.57" y="599.26" width="180.11" height="3.96"/><path class="cls-30" d="m3537.29,660.51c-8.53-14.29-24.15-23.87-42.01-23.87v48.9l42.01-25.03Z"/><path class="cls-4" d="m3596.49,681.63h-31.82c-2.94,0-5.32-2.38-5.32-5.32h0c0-2.94,2.38-5.32,5.32-5.32h31.82c2.94,0,5.32,2.38,5.32,5.32h0c0,2.94-2.38,5.32-5.32,5.32Z"/><rect class="cls-33" x="3559.36" y="691.15" width="42.45" height="10.63" rx="5.32" ry="5.32"/><path class="cls-30" d="m3596.49,721.94h-31.82c-2.94,0-5.32-2.38-5.32-5.32h0c0-2.94,2.38-5.32,5.32-5.32h31.82c2.94,0,5.32,2.38,5.32,5.32h0c0,2.94-2.38,5.32-5.32,5.32Z"/><path class="cls-33" d="m3495.28,688.47h48.25c0-9.03-2.48-17.47-6.8-24.7l-41.45,24.7Z"/><path class="cls-4" d="m3492.1,645.2c-25.38,0-45.96,20.58-45.96,45.96s20.58,45.96,45.96,45.96,45.96-20.58,45.96-45.96h-45.96v-45.96Z"/><path class="cls-22" d="m3275.04,625.95h-27.96c-3.61,0-6.53-2.92-6.53-6.53h0c0-3.61,2.92-6.53,6.53-6.53h27.96c3.61,0,6.53,2.92,6.53,6.53h0c0,3.61-2.92,6.53-6.53,6.53Z"/><path class="cls-22" d="m3321.4,625.95h-27.96c-3.61,0-6.53-2.92-6.53-6.53h0c0-3.61,2.92-6.53,6.53-6.53h27.96c3.61,0,6.53,2.92,6.53,6.53h0c0,3.61-2.92,6.53-6.53,6.53Z"/><path class="cls-22" d="m3367.76,625.95h-27.96c-3.61,0-6.53-2.92-6.53-6.53h0c0-3.61,2.92-6.53,6.53-6.53h27.96c3.61,0,6.53,2.92,6.53,6.53h0c0,3.61-2.92,6.53-6.53,6.53Z"/><path class="cls-22" d="m3414.12,625.95h-27.96c-3.61,0-6.53-2.92-6.53-6.53h0c0-3.61,2.92-6.53,6.53-6.53h27.96c3.61,0,6.53,2.92,6.53,6.53h0c0,3.61-2.92,6.53-6.53,6.53Z"/><path class="cls-20" d="m3466.15,556h0c-7.98,0-14.44-6.47-14.44-14.44h0c0-7.98,6.47-14.44,14.44-14.44h0c7.98,0,14.44,6.47,14.44,14.44h0c0,7.98-6.47,14.44-14.44,14.44Z"/><path class="cls-22" d="m3472.09,549.47c-.51,0-1.01-.19-1.4-.58l-11.87-11.87c-.77-.77-.77-2.03,0-2.8.77-.77,2.03-.77,2.8,0l11.87,11.87c.77.77.77,2.03,0,2.8-.39.39-.89.58-1.4.58Z"/><path class="cls-22" d="m3460.22,549.47c-.51,0-1.01-.19-1.4-.58-.77-.77-.77-2.03,0-2.8l11.87-11.87c.77-.77,2.03-.77,2.8,0,.77.77.77,2.03,0,2.8l-11.87,11.87c-.39.39-.89.58-1.4.58Z"/><path class="cls-20" d="m3466.15,612.85h0c-7.98,0-14.44-6.47-14.44-14.44h0c0-7.98,6.47-14.44,14.44-14.44h0c7.98,0,14.44,6.47,14.44,14.44h0c0,7.98-6.47,14.44-14.44,14.44Z"/><path class="cls-22" d="m3472.09,606.32c-.51,0-1.01-.19-1.4-.58l-11.87-11.87c-.77-.77-.77-2.03,0-2.8.77-.77,2.03-.77,2.8,0l11.87,11.87c.77.77.77,2.03,0,2.8-.39.39-.89.58-1.4.58Z"/><path class="cls-22" d="m3460.22,606.32c-.51,0-1.01-.19-1.4-.58-.77-.77-.77-2.03,0-2.8l11.87-11.87c.77-.77,2.03-.77,2.8,0,.77.77.77,2.03,0,2.8l-11.87,11.87c-.39.39-.89.58-1.4.58Z"/><path class="cls-22" d="m3577.13,534.56h-83.19c-2.06,0-3.73-1.67-3.73-3.73h0c0-2.06,1.67-3.73,3.73-3.73h83.19c2.06,0,3.73,1.67,3.73,3.73h0c0,2.06-1.67,3.73-3.73,3.73Z"/><path class="cls-22" d="m3577.13,549.01h-83.19c-2.06,0-3.73-1.67-3.73-3.73h0c0-2.06,1.67-3.73,3.73-3.73h83.19c2.06,0,3.73,1.67,3.73,3.73h0c0,2.06-1.67,3.73-3.73,3.73Z"/><rect class="cls-22" x="3490.22" y="556" width="90.64" height="7.45" rx="3.73" ry="3.73"/><path class="cls-22" d="m3577.03,591.38h-83.19c-2.06,0-3.73-1.67-3.73-3.73h0c0-2.06,1.67-3.73,3.73-3.73h83.19c2.06,0,3.73,1.67,3.73,3.73h0c0,2.06-1.67,3.73-3.73,3.73Z"/><path class="cls-22" d="m3577.03,605.83h-83.19c-2.06,0-3.73-1.67-3.73-3.73h0c0-2.06,1.67-3.73,3.73-3.73h83.19c2.06,0,3.73,1.67,3.73,3.73h0c0,2.06-1.67,3.73-3.73,3.73Z"/><path class="cls-22" d="m3577.03,620.27h-83.19c-2.06,0-3.73-1.67-3.73-3.73h0c0-2.06,1.67-3.73,3.73-3.73h83.19c2.06,0,3.73,1.67,3.73,3.73h0c0,2.06-1.67,3.73-3.73,3.73Z"/></g></g></g></g></svg>