<?xml version="1.0" encoding="UTF-8"?><svg xmlns="http://www.w3.org/2000/svg" xmlns:xlink="http://www.w3.org/1999/xlink" viewBox="0 0 7600 2000"><defs><style>.cls-1{fill:url(#linear-gradient);}.cls-2{clip-path:url(#clippath);}.cls-3{fill:#e2e2e2;}.cls-3,.cls-4{mix-blend-mode:soft-light;}.cls-5{isolation:isolate;}</style><linearGradient id="linear-gradient" x1="8489.81" y1="802.4" x2="-697.25" y2="1189.49" gradientUnits="userSpaceOnUse"><stop offset=".32" stop-color="#63c6ff"/><stop offset=".39" stop-color="#54b6f9"/><stop offset=".54" stop-color="#3b9aef"/><stop offset=".69" stop-color="#2986e8"/><stop offset=".85" stop-color="#1e7ae4"/><stop offset="1" stop-color="#1b77e3"/></linearGradient><clipPath id="clippath"><rect class="cls-1" width="7600" height="2000"/></clipPath></defs><g class="cls-5"><g id="Layer_2"><g id="Object"><rect class="cls-1" width="7600" height="2000"/><g class="cls-2"><g class="cls-4"><path d="m124.2,2136.57c-.03-.96-2.49-98.02,14.96-231.89,16.12-123.65,53.02-305.13,137.28-467.51l19.24,9.98c-82.73,159.45-119.06,338.11-134.97,459.91-17.28,132.27-14.87,227.96-14.84,228.91l-21.67.6Z"/><path d="m65.7,2143.61c-.32-6.52-32.68-654.38-120.04-843.71l19.69-9.08c89.11,193.14,120.71,824.93,122.01,851.74l-21.66,1.05Z"/><path d="m.03,2152.6c-.14-.81-14.6-82.39-57.24-176.03-39.02-85.69-110.37-199.43-228.69-254.64l9.17-19.65c124.48,58.08,198.94,176.6,239.48,265.81,43.68,96.11,58.05,177.4,58.64,180.81l-21.36,3.7Z"/><path d="m80.02,2141.81c-.08-2.24-8.27-224.47-15.62-266.86-3.69-21.32,6.12-50.15,17.49-83.53,13.92-40.87,29.69-87.2,20.38-122.46-19.24-72.86-2.99-98.47,41.63-143.56,8.57-8.66,16.23-15.7,22.98-21.9,28.27-25.97,42.46-39.01,61.56-114.29,7.84-30.89,27.54-50.91,55.49-56.37,32.99-6.43,74.19,9.38,93.81,36.03,11.8,16.03,13.79,34.08,5.46,49.53-22.5,41.71-22.24,44.4-17.8,89.34.85,8.58,1.81,18.31,2.79,30.06,4.03,47.99-7.65,58.28-27.05,71.09-11.41,7.54-24.34,16.07-38.48,41.54-24.18,43.54-21,54.86-11.53,88.46,3.91,13.87,8.77,31.12,12.98,54.98,8.61,48.75-12.88,63.52-33.65,77.81-18.48,12.71-37.59,25.85-43.6,68.06-13.41,94.25-24.5,190.22-24.61,191.18l-21.54-2.48c.11-.96,11.23-97.21,24.68-191.75,7.34-51.63,32.54-68.96,52.78-82.87,19.19-13.2,30.77-21.16,24.59-56.17-4.02-22.79-8.72-39.47-12.5-52.87-10.72-38.07-13.98-55.49,13.45-104.87,16.72-30.11,33.35-41.09,45.49-49.11,14.53-9.6,20.55-13.57,17.39-51.19-.97-11.6-1.93-21.24-2.76-29.75-4.82-48.86-4.52-55.77,20.3-101.77,4.37-8.1,3.08-16.98-3.84-26.38-12.91-17.54-44.19-33.07-72.19-27.61-19.81,3.87-32.81,17.47-38.63,40.42-20.69,81.55-38.47,97.88-67.91,124.93-6.58,6.04-14.03,12.89-22.24,21.19-43.12,43.58-52.3,61.34-36.08,122.77,10.98,41.59-5.91,91.21-20.82,134.99-9.98,29.3-19.4,56.97-16.65,72.84,7.59,43.82,15.58,260.56,15.92,269.76l-21.67.79Z"/><path d="m-35.9,2158.07c-9.82-32.9-44.05-123-84.02-144.57-56.34-30.39-75.18-55.96-87.68-118.95-1.66-8.38-3.03-15.85-4.25-22.54-7.5-40.96-8.46-46.22-35.61-55.23-9.97-3.31-19.21-4.57-28.15-5.78-23.23-3.16-47.25-6.42-58.61-49.42-4.78-18.1-13.7-24.65-25-32.94-16.15-11.85-34.46-25.29-36.6-70.8-1.24-26.31,13.76-36.62,22.81-40.42,43.92-18.46,135.55,29.97,159.28,55.51,18.08,19.46,30.35,22.28,45.89,25.85,8.62,1.98,18.39,4.23,29.44,9.58,2.48,1.2,5.02,2.4,7.59,3.61,28.04,13.2,62.93,29.63,73.47,76.57l1.37,6.11c9.34,41.84,14.48,64.89,41.05,80.17,35.02,20.14,37.79,66.41,40.48,111.16.19,3.18.38,6.37.58,9.55,2.89,45.57,19.31,149.66,19.48,150.71l-21.41,3.39c-.68-4.31-16.74-106.14-19.7-152.72-.2-3.21-.4-6.42-.59-9.63-2.44-40.8-4.75-79.35-29.64-93.66-34.85-20.04-41.79-51.16-51.41-94.25l-1.36-6.09c-8.22-36.58-35.33-49.35-61.55-61.7-2.64-1.24-5.25-2.47-7.8-3.71-8.85-4.28-16.62-6.07-24.85-7.96-16.86-3.88-34.3-7.88-56.91-32.22-21.9-23.56-104.05-63.29-134.99-50.28-4.78,2.01-10.18,6.03-9.55,19.41,1.66,35.17,13.18,43.63,27.78,54.34,12.37,9.08,26.39,19.37,33.13,44.88,7.66,29,17.97,30.4,40.57,33.47,9.46,1.29,20.18,2.74,32.06,6.69,39.34,13.06,42.49,30.29,50.11,71.91,1.21,6.59,2.55,13.96,4.19,22.22,11.2,56.44,26.25,76.86,76.71,104.08,56.06,30.24,92.96,152.27,94.51,157.45l-20.78,6.2Z"/><path d="m-3.05,1916.05c-.09-.73-9.03-73.62-39.14-131.68-32.6-62.86-40.68-91.69-35.37-174.69,2.61-40.82-13.18-68.69-29.89-98.2-15.45-27.27-31.42-55.47-34.84-95.29-3.42-39.77,5.89-58.11,13.38-72.85,8.02-15.8,14.36-28.28,1.24-69.92-10.19-32.34,18.04-64.85,50.04-76.42,32.86-11.88,79.49-5.59,102.77,51.25,27.21,66.44,34.15,108.55,38.74,136.42,4.6,27.94,6.71,40.7,22.99,54.52,25.82,21.92,24.78,51.53,23.68,82.87-.78,22.15-1.66,47.25,6.64,73.69l-20.69,6.5c-9.42-29.98-8.46-57.06-7.62-80.95,1.03-29.29,1.77-50.45-16.04-65.58-22.36-18.98-25.54-38.29-30.35-67.53-4.7-28.51-11.13-67.56-37.41-131.73-21.95-53.6-63.21-43.46-75.34-39.08-22.69,8.21-42.86,30.06-36.73,49.51,15.78,50.08,6.86,67.65-2.59,86.25-6.88,13.55-13.99,27.57-11.11,61.17,3.02,35.11,17.15,60.05,32.1,86.46,17.54,30.97,35.68,63,32.66,110.27-5.12,80.07,2.15,103.88,32.98,163.33,31.97,61.64,41.05,135.97,41.42,139.11l-21.53,2.55Z"/><path d="m612.61,2134.57l-14.4-4.69c.24-.75,24.84-75.62,67.39-153.67,57.77-105.95,119.41-167.14,183.32-181.89l3.41,14.75c-142.79,32.94-238.77,322.58-239.72,325.51Z"/><path d="m567.83,2135.02l-14.6-4c.25-.9,24.71-91.01,41.68-213.53,15.62-112.82,27.91-276.99-2.29-418.39l14.81-3.16c30.68,143.62,18.27,309.77,2.45,423.85-17.11,123.44-41.8,214.33-42.04,215.23Z"/><path d="m526.62,2131.53l-14.48,4.42c-.58-1.91-59.27-191.42-141.54-219.14-20.26-6.83-39.91-3.09-60.07,11.44l-8.85-12.28c24.07-17.34,48.88-21.89,73.76-13.5,89.6,30.21,148.7,220.97,151.18,229.07Z"/><path d="m545.45,2131.71l-14.75,3.41c-2.72-11.73-26.36-115.34-21.16-140.23,1.93-9.26-.05-22.35-32.85-41.61-23.39-13.74-25.35-15.67-33.61-26.66-3.52-4.68-8.33-11.09-17.7-21.69-18.1-20.5-23.53-24.12-87.31-16.53-30.94,3.68-51.04,27.71-58.25,37.87-7.05,9.94-10.8,18.68-12.29,24.19,15.52-7.43,31.2-4.92,46.41-2.48,10.56,1.69,21.47,3.45,33.23,2.33,12.29-1.17,21.26,1.05,27.42,6.8,11.38,10.62,10.88,30.34,10.13,60.19l-.09,3.75c-.47,18.98,6.49,20.19,21.73,22.85,11.89,2.07,26.68,4.65,37.4,18.75,21.02,27.63,46.2,67.25,46.45,67.65l-12.79,8.11c-.25-.39-25.09-39.49-45.72-66.6-7.13-9.37-17.24-11.13-27.96-13-15.62-2.72-35.06-6.11-34.27-38.14l.09-3.76c.61-23.89,1.08-42.76-5.32-48.73-2.81-2.62-7.93-3.54-15.66-2.8-13.69,1.31-26.11-.69-37.07-2.45-15.72-2.52-28.15-4.52-40.21,2.65-7.68,4.56-12.72,2.29-15.04.53-4.77-3.63-5.87-10.32-3.26-19.89,7.14-26.24,38.54-67.54,83.25-72.87,64.73-7.7,76.93-5.09,100.45,21.54,9.76,11.05,14.79,17.74,18.46,22.62,6.78,9.03,7.49,9.97,29.17,22.7,31.65,18.58,44.36,36.94,40,57.77-3.43,16.38,10.73,88.94,21.09,133.71Z"/><path d="m531.66,2069.84l-14.42-4.61c.13-.4,12.95-41.02,17.44-95.62,1.99-24.17-4.85-37.49-12.09-51.6-8.62-16.81-17.54-34.18-9.27-66.94,8.04-31.83,20.13-37.84,28.96-42.23,6.75-3.36,10.82-5.38,12.18-25.41,1.32-19.41-4.4-26.03-11.02-33.7-10.42-12.06-17.64-23.77-8.15-55.09,7.2-23.76,15.57-34.19,21.68-41.8,7.96-9.91,12.34-15.36,7.93-49.57-3.62-28.06-12.48-38.58-20.3-47.86-8.93-10.61-17.37-20.62-9.32-48.69,11.31-39.43,26.4-76.8,74.87-63.34,38.98,10.81,55.49,51.95,43.08,107.36-4.09,18.25,4.87,41.85,14.34,66.84,12.76,33.63,27.21,71.75,13.41,107.66-7.28,18.95-12.86,29.63-16.55,36.7q-7.16,13.72-1.08,50.75c2.39,14.55,4.37,24.57,5.97,32.62,4.85,24.47,5.1,27.58-1.89,56.94l-14.73-3.51c6.43-26.99,6.25-27.87,1.77-50.48-1.53-7.73-3.63-18.32-6.06-33.11-6.37-38.84-6.89-42.01,2.6-60.21,3.74-7.17,8.86-16.99,15.84-35.13,11.73-30.52-1.06-64.24-13.43-96.86-10.31-27.17-20.04-52.83-14.96-75.52,3.98-17.78,13.41-76.77-32.35-89.47-29.51-8.19-42.14,3.68-56.26,52.93-5.82,20.3-1.76,25.13,6.35,34.76,8.25,9.79,19.54,23.2,23.73,55.68,5,38.71-.68,47.96-11.14,60.99-5.93,7.38-12.65,15.75-19,36.71-7.83,25.83-2.4,32.11,5.11,40.8,7.32,8.46,16.42,19,14.68,44.62-1.81,26.63-9.66,32.52-20.55,37.94-7.22,3.59-14.69,7.31-21.02,32.38-6.87,27.21.05,40.7,8.06,56.32,7.52,14.66,16.05,31.28,13.71,59.75-4.64,56.43-17.56,97.28-18.11,98.99Z"/><path d="m640.86,2133.2l-14.85-2.94c13.51-68.2,35.74-89.83,53.6-107.22,9.92-9.66,18.5-18,24.3-33.05,2.95-7.65,5.44-14.24,7.62-20.03,10.92-28.97,14.6-38.73,30.72-59.7,10.67-13.89,19.97-14.98,29.81-16.14,9.52-1.12,21.35-2.52,41.7-18.69,20.17-16.04,19.48-26.23,18.93-34.42-.49-7.25-1.23-18.21,16.69-22.33,8.37-1.92,18.88-2.33,29.05-2.72,12.53-.49,31.47-1.22,34.72-6.2,1.01-1.54-.01-4.73-.71-6.5-2.82-7.14-8.62-12.17-17.26-14.95-17.28-5.56-43.17-1.01-61.54,10.82-16.18,10.41-28.94,6.36-39.18,3.11-11.5-3.66-20.59-6.54-37.1,7.04-14.01,11.52-19.07,25.01-23.53,36.91-6.27,16.72-12.75,34.01-42.06,33.08-17.55-.55-21.29,10.8-27.42,34.48-4.45,17.21-9.5,36.71-24.03,53.07-29.9,33.67-55.3,165.99-55.55,167.32l-14.87-2.82c1.06-5.61,26.44-137.77,59.1-174.55,12.11-13.64,16.67-31.26,20.69-46.81,5.95-23,12.11-46.78,42.56-45.82,18.46.58,21.26-6.89,27.4-23.26,4.88-13,10.95-29.19,28.09-43.29,22.87-18.81,38.64-13.8,51.31-9.77,9.41,2.99,16.21,5.16,26.4-1.41,22.23-14.31,52.81-19.45,74.38-12.5,12.97,4.18,22.21,12.41,26.71,23.8,3.14,7.96,2.91,14.8-.7,20.33-7.52,11.54-26.61,12.28-46.82,13.06-9.47.37-19.27.75-26.25,2.35-4.17.96-5.07,1.9-5.08,1.91-.17.52,0,2.91.11,4.65.66,9.84,1.77,26.31-24.61,47.29-23.72,18.86-38.53,20.6-49.35,21.88-8.52,1-12.8,1.51-19.57,10.33-14.75,19.19-17.95,27.68-28.56,55.82-2.2,5.82-4.7,12.45-7.66,20.14-7,18.14-17.13,28-27.87,38.45-17.21,16.75-36.71,35.74-49.31,99.31Z"/><path d="m2123.03,1664.3c-30.02,0-54.44-24.42-54.44-54.44s24.42-54.44,54.44-54.44,54.44,24.42,54.44,54.44-24.42,54.44-54.44,54.44Zm0-90.37c-19.82,0-35.94,16.12-35.94,35.94s16.12,35.94,35.94,35.94,35.94-16.12,35.94-35.94-16.12-35.94-35.94-35.94Z"/><path d="m3159.96,2225.4c-12.09,0-23.72-6.76-29.32-18.13l-.28-.57c-32.04-64.84-59.97-79.99-102.19-102.91-20.81-11.3-44.4-24.1-73.37-45.01l-1.59-1.15c-1.53-1.11-3.05-2.24-4.56-3.38l-1.26-.97c-1.4-1.07-2.76-2.12-4.11-3.19l-1.73-1.38c-1.44-1.16-2.87-2.32-4.29-3.5l-.94-.77c-1.68-1.41-3.34-2.83-4.99-4.28l-1.56-1.37c-1.25-1.11-2.5-2.23-3.74-3.37l-1.42-1.29c-1.62-1.51-3.22-3.02-4.81-4.55l-1.09-1.07c-1.28-1.25-2.55-2.51-3.81-3.78l-1.48-1.51c-1.38-1.41-2.75-2.84-4.11-4.29l-.58-.62c-1.55-1.65-3.06-3.32-4.55-4.99l-1.32-1.49c-1.16-1.31-2.31-2.64-3.46-3.98l-1.14-1.33c-1.47-1.74-2.9-3.48-4.32-5.24l-.9-1.14c-1.16-1.45-2.3-2.9-3.43-4.37l-1.21-1.58c-1.3-1.7-2.57-3.41-3.83-5.13l-.33-.45c-1.34-1.85-2.67-3.73-3.98-5.62l-1.08-1.58c-1.04-1.52-2.06-3.05-3.08-4.58l-.92-1.4c-1.25-1.92-2.49-3.87-3.71-5.84l-.76-1.24c-1-1.62-1.97-3.25-2.94-4.89l-1-1.72c-1.13-1.95-2.26-3.93-3.36-5.93-1.25-2.26-2.35-4.35-3.45-6.45l-.89-1.73c-.86-1.68-1.72-3.38-2.56-5.1l-.7-1.41c-1.04-2.14-2.05-4.29-3.04-6.45l-.63-1.4c-.79-1.76-1.58-3.54-2.34-5.33l-.77-1.81c-.94-2.22-1.86-4.45-2.75-6.7-.98-2.47-1.92-4.94-2.83-7.42-.18-.49-.35-.98-.52-1.47l-.41-1.17c-.58-1.6-1.15-3.21-1.69-4.82-.22-.63-.43-1.29-.64-1.94l-.56-1.71c-.42-1.27-.84-2.55-1.23-3.83-.23-.72-.45-1.47-.67-2.21l-.45-1.51c-.38-1.25-.75-2.51-1.11-3.77-.21-.75-.42-1.5-.62-2.26l-.47-1.74c-.32-1.17-.64-2.34-.94-3.51-.24-.93-.46-1.83-.68-2.74l-.25-1.03c-.31-1.26-.62-2.51-.91-3.77-.21-.93-.42-1.87-.63-2.81l-.14-.62c-.3-1.36-.6-2.73-.89-4.1-.19-.92-.37-1.84-.54-2.76l-.21-1.09c-.24-1.24-.48-2.48-.7-3.71-.21-1.18-.41-2.35-.61-3.51-.23-1.34-.45-2.69-.66-4.04-.18-1.18-.35-2.35-.52-3.52-.19-1.35-.38-2.7-.56-4.04-.15-1.18-.3-2.36-.44-3.54-.16-1.33-.31-2.68-.45-4.02-.13-1.18-.24-2.36-.35-3.54-.13-1.34-.24-2.68-.35-4.01-.1-1.2-.19-2.38-.27-3.56-.09-1.33-.18-2.67-.25-4.01-.07-1.17-.13-2.36-.18-3.54-.06-1.34-.11-2.66-.15-3.99-.04-1.2-.07-2.39-.09-3.57-.03-1.32-.04-2.65-.05-3.97,0-1.19-.02-2.36-.01-3.54,0-1.33.02-2.65.05-3.98.02-1.18.04-2.35.07-3.53.03-1.32.09-2.65.14-3.98.05-1.17.09-2.33.15-3.48.07-1.35.16-2.67.24-4l.03-.5c.06-.99.13-1.98.2-2.97.1-1.35.22-2.67.34-4l.08-.92c.07-.84.15-1.68.23-2.52.14-1.35.29-2.7.44-4.05l.09-.78c.1-.86.19-1.72.3-2.58.15-1.22.32-2.44.49-3.66l.17-1.27c.11-.81.22-1.61.34-2.42.17-1.18.36-2.34.55-3.5l.27-1.68c.12-.72.23-1.44.35-2.15.2-1.17.42-2.32.63-3.47l.35-1.89c.12-.65.24-1.31.37-1.96.3-1.51.62-3.01.94-4.5l.25-1.19c.11-.52.21-1.04.33-1.56.54-2.41,1.09-4.81,1.68-7.2l.44-1.71c.46-1.82.92-3.64,1.41-5.45.16-.6.34-1.21.51-1.81l.51-1.78c.33-1.17.66-2.35,1.01-3.52.21-.72.44-1.44.66-2.16l.37-1.21c.37-1.23.75-2.45,1.14-3.67.24-.75.49-1.5.74-2.24l.62-1.86c.33-.97.65-1.94.98-2.91.29-.84.59-1.66.89-2.48l.41-1.14c.4-1.11.8-2.22,1.21-3.33.35-.94.71-1.86,1.07-2.79l.43-1.11c.38-.99.77-1.99,1.17-2.98.35-.87.7-1.73,1.06-2.58l.27-.65c.49-1.19.99-2.39,1.5-3.59.4-.93.81-1.85,1.22-2.78l.2-.44c.51-1.17,1.04-2.35,1.58-3.52.42-.92.85-1.84,1.28-2.75l.21-.45c.54-1.16,1.09-2.31,1.65-3.47.52-1.07,1.05-2.13,1.57-3.18.58-1.16,1.15-2.3,1.74-3.44.54-1.05,1.09-2.1,1.65-3.15.59-1.12,1.19-2.24,1.8-3.35.58-1.06,1.16-2.1,1.74-3.15.61-1.1,1.24-2.21,1.88-3.32.59-1.03,1.2-2.07,1.81-3.1.64-1.08,1.3-2.17,1.96-3.27.62-1.02,1.24-2.04,1.88-3.05.67-1.08,1.36-2.16,2.04-3.23.64-1,1.29-2.01,1.94-3,.7-1.07,1.41-2.13,2.12-3.18.67-1,1.34-1.98,2.02-2.97.72-1.05,1.46-2.09,2.19-3.12.69-.98,1.39-1.96,2.1-2.93.7-.97,1.42-1.93,2.14-2.89l.35-.47c.64-.87,1.29-1.73,1.94-2.59.66-.86,1.33-1.72,2-2.58l.8-1.02c.59-.75,1.17-1.5,1.77-2.24.69-.86,1.38-1.7,2.07-2.54l1-1.23c.55-.67,1.09-1.33,1.65-1.99.68-.81,1.37-1.61,2.06-2.4l1.12-1.3c.56-.65,1.12-1.3,1.68-1.94.7-.8,1.42-1.59,2.14-2.38l1.2-1.33c.56-.62,1.11-1.23,1.68-1.84.71-.77,1.45-1.54,2.18-2.31l1.26-1.33c.56-.6,1.12-1.19,1.69-1.78.73-.76,1.48-1.5,2.22-2.24l1.5-1.5c.52-.53,1.04-1.05,1.57-1.57.91-.89,1.83-1.77,2.75-2.64l1.29-1.24c.45-.44.91-.87,1.37-1.3,1.81-1.7,3.64-3.37,5.5-5.02.48-.43.97-.85,1.46-1.28l1.5-1.3c.9-.79,1.81-1.58,2.73-2.36.56-.48,1.13-.94,1.69-1.41l1.65-1.37c.82-.68,1.64-1.37,2.48-2.04.65-.53,1.31-1.05,1.97-1.56l1.48-1.17c.83-.66,1.66-1.32,2.51-1.96.69-.53,1.39-1.05,2.09-1.57l1.42-1.06c.85-.64,1.71-1.29,2.57-1.92.74-.54,1.48-1.07,2.22-1.59l1.29-.92c.9-.64,1.79-1.28,2.7-1.91.82-.57,1.65-1.13,2.48-1.69l1.1-.74c.92-.62,1.83-1.24,2.76-1.85.91-.6,1.83-1.18,2.74-1.77l.65-.42c1.02-.65,2.04-1.31,3.07-1.95,1.02-.64,2.05-1.26,3.08-1.88,1.29-.78,2.4-1.45,3.52-2.12,1.1-.64,2.2-1.28,3.31-1.92,1.13-.65,2.26-1.29,3.4-1.93,1.12-.62,2.25-1.24,3.38-1.85,1.15-.62,2.3-1.24,3.46-1.85,1.14-.6,2.29-1.19,3.44-1.77,1.17-.6,2.34-1.18,3.52-1.76,1.16-.57,2.33-1.14,3.51-1.7l3.34-1.58c1.54-.71,3.07-1.4,4.61-2.09,1.07-.48,2.15-.96,3.23-1.42,1.5-.65,3.01-1.27,4.51-1.9l.61-.25c.91-.38,1.82-.75,2.73-1.12l1.19-.49c.81-.32,1.62-.63,2.44-.93l2.06-.78c.69-.27,1.39-.53,2.08-.79,2.09-.77,4.19-1.51,6.29-2.24l1.41-.5c150.58-51.39,315.74,18.16,384.17,161.77l.65,1.39c.91,1.93,1.8,3.86,2.67,5.81.39.88.78,1.76,1.16,2.64.69,1.58,1.37,3.18,2.04,4.78.46,1.1.91,2.2,1.36,3.31l.78,1.9c.21.54.4,1.05.6,1.56l.36.96c.45,1.15.89,2.32,1.33,3.49.57,1.54,1.12,3.08,1.67,4.63l.15.42c.34.95.68,1.9,1,2.86.59,1.72,1.16,3.46,1.73,5.21l1.48,4.67c.61,1.99,1.2,3.97,1.76,5.95l.26.9c.61,2.16,1.19,4.33,1.75,6.51l.45,1.76c.54,2.15,1.07,4.3,1.56,6.45l.31,1.4c.43,1.9.84,3.8,1.23,5.7l.31,1.51c.42,2.11.83,4.26,1.22,6.4l.31,1.79c.37,2.15.73,4.31,1.06,6.46l.13.87c.3,2.01.58,4.03.84,6.05l.23,1.76c.26,2.12.5,4.25.72,6.38l.16,1.68c.18,1.89.35,3.78.5,5.66l.11,1.29c.16,2.15.29,4.29.4,6.42l.09,1.85c.1,2.16.19,4.29.24,6.42l.02,1.35c.04,1.84.07,3.69.07,5.54v1.77c0,2.06-.02,4.15-.06,6.23l-.05,1.87c-.05,1.91-.12,3.82-.21,5.72l-.06,1.29c-.1,2.02-.23,4.03-.36,6.03l-.14,1.96c-.16,2.06-.33,4.11-.53,6.16l-.17,1.73c-.17,1.73-.36,3.46-.57,5.19l-.19,1.66c-.25,2.05-.53,4.07-.82,6.09l-.3,2.05c-.29,1.97-.61,3.97-.95,5.96l-.34,1.93c-.16.94-.33,1.87-.5,2.81l-.63,3.33c-6.79,35.36-15.46,61.11-23.1,83.82-15.43,45.84-25.62,76.12-4.53,145.35,4.84,15.87-3.28,33.06-18.51,39.46-71.37,40.29-148.29,70.7-228.65,90.42-3.66,1.36-7.44,2-11.18,2Zm-12.65-26.16c3.25,6.4,10.98,9.35,17.67,6.71l1.2-.38c79.11-19.35,154.82-49.29,225.02-88.98l1.15-.55c6.75-2.67,10.37-10.19,8.26-17.13-22.81-74.9-11.27-109.18,4.7-156.64,7.46-22.16,15.91-47.27,22.47-81.44l.61-3.19c.16-.85.31-1.73.47-2.62l.32-1.83c.32-1.87.61-3.75.89-5.63l.28-1.9c.27-1.91.53-3.82.77-5.73l.19-1.6c.19-1.59.37-3.23.53-4.86l.16-1.6c.19-1.95.35-3.89.5-5.82l.13-1.86c.13-1.86.25-3.75.34-5.65l.05-1.2c.08-1.81.14-3.6.19-5.39l.05-1.78c.04-1.95.07-3.91.07-5.87v-1.65c-.02-1.73-.04-3.48-.08-5.22l-.02-1.27c-.05-2-.13-4-.23-6.01l-.09-1.74c-.11-2.03-.23-4.05-.38-6.06l-.1-1.2c-.14-1.8-.3-3.58-.47-5.35l-.15-1.58c-.21-1.98-.43-3.99-.68-5.99l-.21-1.65c-.25-1.92-.51-3.81-.79-5.71l-.12-.84c-.3-1.99-.64-4.02-.99-6.05l-.29-1.66c-.36-2.03-.74-4.05-1.15-6.06l-.29-1.38c-.37-1.8-.75-3.59-1.16-5.38l-.29-1.32c-.46-2.02-.96-4.04-1.47-6.05l-.43-1.67c-.53-2.04-1.07-4.08-1.65-6.12l-.25-.87c-.52-1.83-1.08-3.7-1.65-5.56l-1.4-4.42c-.53-1.63-1.06-3.27-1.62-4.9-.31-.9-.62-1.77-.93-2.64l-.15-.43c-.52-1.46-1.04-2.92-1.58-4.37-.41-1.1-.83-2.19-1.25-3.28l-1.63-4.15c-.43-1.07-.86-2.11-1.29-3.14-.63-1.51-1.26-3.01-1.92-4.5-.36-.83-.73-1.67-1.1-2.5-.82-1.83-1.66-3.65-2.51-5.46l-.61-1.3c-64.39-135.15-219.81-200.59-361.51-152.23l-1.34.47c-1.95.68-3.93,1.37-5.9,2.1-.62.23-1.24.47-1.86.71l-2.2.83c-.72.27-1.43.54-2.15.82l-1.13.47c-.83.33-1.67.68-2.51,1.03l-.63.26c-1.42.59-2.84,1.18-4.24,1.78-1.01.44-2.03.89-3.04,1.34-1.46.65-2.9,1.3-4.34,1.96l-3.15,1.48c-1.11.53-2.21,1.07-3.31,1.61-1.11.55-2.21,1.1-3.3,1.66-1.08.55-2.17,1.11-3.24,1.67-1.09.57-2.17,1.15-3.25,1.73-1.07.58-2.13,1.16-3.19,1.74-1.07.59-2.13,1.2-3.19,1.81-1.05.6-2.09,1.2-3.13,1.81-1.05.62-2.1,1.25-3.14,1.88-1.15.69-2.11,1.28-3.06,1.87-.96.6-1.92,1.21-2.88,1.82l-.66.42c-.85.55-1.7,1.09-2.55,1.64-.85.56-1.71,1.14-2.56,1.71l-1.12.75c-.76.51-1.53,1.03-2.28,1.55-.85.59-1.67,1.18-2.5,1.77l-1.32.94c-.68.48-1.35.96-2.02,1.45-.79.58-1.58,1.17-2.37,1.76l-1.47,1.1c-.63.47-1.26.94-1.88,1.42-.77.6-1.54,1.2-2.3,1.8l-1.54,1.21c-.59.46-1.18.92-1.76,1.39-.76.62-1.52,1.25-2.28,1.88l-1.72,1.42c-.5.41-1,.82-1.49,1.24-.84.71-1.67,1.44-2.5,2.17l-1.61,1.4c-.41.36-.83.71-1.23,1.07-1.75,1.56-3.47,3.13-5.17,4.72-.39.36-.77.74-1.16,1.11l-1.39,1.33c-.85.81-1.7,1.62-2.54,2.44-.46.45-.92.91-1.37,1.37l-1.57,1.58c-.68.68-1.36,1.36-2.02,2.04-.51.52-1.01,1.05-1.51,1.58l-1.33,1.4c-.67.71-1.34,1.41-2.01,2.12-.51.55-1,1.1-1.49,1.64l-1.25,1.38c-.66.73-1.32,1.45-1.96,2.18-.51.58-1.02,1.17-1.53,1.77l-1.14,1.32c-.64.74-1.28,1.48-1.9,2.22-.51.6-1.01,1.21-1.5,1.81l-1.01,1.23c-.65.79-1.29,1.58-1.93,2.37-.55.68-1.09,1.38-1.64,2.08l-.79,1.01c-.63.8-1.25,1.6-1.87,2.41-.61.81-1.21,1.61-1.82,2.42l-.22.29c-.81,1.08-1.47,1.98-2.13,2.89-.67.92-1.32,1.84-1.97,2.76-.69.98-1.39,1.96-2.07,2.95-.64.92-1.27,1.86-1.9,2.8-.67.99-1.33,1.98-1.99,2.98-.62.94-1.23,1.89-1.84,2.84-.65,1.01-1.29,2.02-1.92,3.04-.6.95-1.18,1.91-1.77,2.88-.62,1.02-1.24,2.04-1.84,3.07-.58.98-1.15,1.95-1.71,2.92-.6,1.04-1.19,2.08-1.77,3.12-.56.99-1.1,1.98-1.64,2.96-.56,1.04-1.13,2.1-1.69,3.16-.52.99-1.04,1.98-1.56,2.97-.56,1.08-1.1,2.15-1.64,3.23-.49.98-.99,1.99-1.48,3-.52,1.07-1.04,2.16-1.55,3.25l-.22.46c-.4.85-.8,1.71-1.2,2.57-.5,1.1-.99,2.2-1.48,3.31l-.2.46c-.38.86-.76,1.72-1.13,2.58-.48,1.12-.95,2.24-1.41,3.37l-.28.68c-.33.79-.66,1.58-.98,2.37-.37.91-.72,1.83-1.08,2.76l-.44,1.15c-.33.85-.67,1.71-.99,2.57-.39,1.03-.76,2.06-1.13,3.1l-.43,1.19c-.27.75-.55,1.51-.81,2.26-.31.88-.61,1.78-.91,2.68l-.64,1.91c-.22.66-.45,1.33-.66,1.99-.36,1.13-.71,2.28-1.06,3.42l-.41,1.32c-.2.64-.4,1.27-.59,1.91-.32,1.08-.63,2.16-.93,3.25l-.54,1.89c-.15.52-.3,1.03-.44,1.55-.47,1.71-.9,3.42-1.33,5.13l-.42,1.62c-.55,2.24-1.08,4.5-1.58,6.76l-.55,2.62c-.3,1.4-.6,2.8-.88,4.21-.11.56-.21,1.14-.32,1.71l-.37,1.98c-.2,1.06-.4,2.12-.58,3.19-.11.62-.21,1.27-.31,1.91l-.28,1.76c-.18,1.08-.35,2.15-.51,3.23-.11.72-.2,1.45-.3,2.18l-.18,1.35c-.16,1.14-.32,2.27-.46,3.41-.1.78-.18,1.55-.27,2.32l-.09.83c-.15,1.28-.29,2.55-.42,3.81-.08.77-.14,1.54-.21,2.3l-.08.92c-.11,1.27-.22,2.52-.32,3.77-.07.91-.13,1.83-.19,2.76l-.03.49c-.08,1.27-.16,2.52-.23,3.77-.05,1.07-.1,2.17-.14,3.27-.05,1.26-.1,2.51-.13,3.75-.03,1.11-.05,2.22-.07,3.32-.02,1.25-.04,2.5-.04,3.76,0,1.11,0,2.21.01,3.32.01,1.25.02,2.5.05,3.75.02,1.12.05,2.23.09,3.35.04,1.24.09,2.5.14,3.76.05,1.09.11,2.21.17,3.32.07,1.26.15,2.52.24,3.77.08,1.12.16,2.23.25,3.34.1,1.25.21,2.51.33,3.77.1,1.1.21,2.22.33,3.33.13,1.26.28,2.52.43,3.78.13,1.12.27,2.23.41,3.34.16,1.26.34,2.53.52,3.79.16,1.11.32,2.22.49,3.33.2,1.26.41,2.53.62,3.8.19,1.11.37,2.21.57,3.31.21,1.15.43,2.3.65,3.46l.21,1.09c.16.85.33,1.71.51,2.56.26,1.27.55,2.56.83,3.84l.14.65c.19.86.38,1.73.58,2.59.27,1.18.56,2.34.85,3.51l.26,1.08c.2.83.41,1.67.62,2.5.28,1.07.58,2.17.87,3.26l.49,1.78c.18.67.36,1.35.56,2.02.33,1.17.68,2.33,1.03,3.5l.48,1.6c.19.65.38,1.3.59,1.95.37,1.2.76,2.37,1.15,3.55l.59,1.81c.18.56.36,1.12.55,1.67.51,1.52,1.05,3.02,1.59,4.52l.89,2.5c.86,2.33,1.74,4.67,2.66,6.99.84,2.13,1.71,4.23,2.59,6.32l.72,1.69c.73,1.7,1.47,3.38,2.22,5.04l.59,1.31c.93,2.04,1.88,4.06,2.85,6.06l.67,1.35c.79,1.6,1.59,3.21,2.41,4.8l.83,1.62c1.03,1.98,2.07,3.94,3.14,5.89l.16.28c.98,1.79,2.05,3.65,3.12,5.5l.94,1.6c.9,1.53,1.82,3.07,2.76,4.59l.7,1.15c1.16,1.87,2.32,3.71,3.51,5.53l.85,1.29c.96,1.45,1.92,2.89,2.89,4.31l1.02,1.49c1.24,1.78,2.48,3.55,3.75,5.3l.3.41c1.18,1.62,2.38,3.23,3.59,4.82l1.16,1.51c1.06,1.37,2.13,2.74,3.22,4.1l.85,1.06c1.34,1.66,2.69,3.29,4.06,4.91l1.07,1.25c1.09,1.27,2.17,2.52,3.27,3.76l1.23,1.39c1.41,1.58,2.83,3.14,4.27,4.68l.55.58c1.3,1.38,2.59,2.73,3.89,4.06l1.39,1.41c1.18,1.19,2.37,2.37,3.57,3.54l1.03,1.01c1.49,1.45,3,2.87,4.52,4.28l1.33,1.22c1.18,1.08,2.34,2.13,3.52,3.17l1.47,1.3c1.55,1.35,3.11,2.7,4.69,4.02l.9.74c1.33,1.11,2.67,2.2,4.02,3.28l1.62,1.29c1.28,1.01,2.57,2.01,3.86,3l1.2.92c1.43,1.08,2.86,2.14,4.3,3.19l1.51,1.09c28.03,20.24,51.07,32.74,71.4,43.77,43.82,23.78,75.48,40.97,110.24,111.56l.07.15Z"/><path d="m3242.93,2193.91c-.13-.35-14.58-38.65-100.79-214.82-8.14-16.63-16.42-30.06-24.52-40.78-51.67,7.11-76.49-5.64-82.29-22.59-4.07-11.88,2.34-24.37,15.23-29.71,15.13-6.26,43.96-3.43,74.72,32.32,9.26-1.63,19.51-3.93,30.82-7.02,32.57-8.91,57.31-19.14,75.53-29.59-3.18-25.18-2.87-45.8,2.81-58.2,9.24-20.19,24.41-25,35.54-22.78,13.29,2.65,22.57,14.65,23.1,29.86.33,9.62-3.08,34.81-41.68,60.63,13.44,80.51,59.87,210.16,82.2,266.78l-17.21,6.78c-8.37-21.23-64.57-165.85-81.78-263.55-18.31,9.77-42.28,19.35-73.63,27.92-8.14,2.23-15.84,4.09-23.1,5.61,6.99,10.15,13.99,22.12,20.88,36.19,87.07,177.92,100.99,215.07,101.54,216.57l-17.36,6.39Zm-177.62-292.2c-2.9,0-5.48.5-7.67,1.41-2.86,1.18-5.83,3.63-4.8,6.62,2.12,6.2,16.98,13.95,49.83,11.51-14.55-14.06-27.72-19.54-37.35-19.54Zm199.54-82.97c-4.9,0-9.99,4.62-13.59,12.49-3.77,8.25-4.37,21.97-2.66,39.35,18.85-14.34,26.38-28.38,26-39.33-.26-7.46-4.32-11.58-8.24-12.36-.5-.1-1-.15-1.51-.15Z"/><rect x="3466.94" y="1645.36" width="98.16" height="18.5" transform="translate(-362.08 1408.68) rotate(-21.57)"/><rect x="3341.56" y="1476.38" width="98.16" height="18.5" transform="translate(119.57 3218.75) rotate(-51.58)"/><rect x="3148.49" y="1392.74" width="98.16" height="18.5" transform="translate(1342.34 4359.72) rotate(-81.58)"/><rect x="2979.3" y="1377.01" width="18.5" height="98.16" transform="translate(-315.02 1198.93) rotate(-21.58)"/><rect x="2810.32" y="1502.39" width="18.5" height="98.16" transform="translate(-148.2 2796.21) rotate(-51.58)"/><rect x="2726.68" y="1695.46" width="18.5" height="98.16" transform="translate(609.42 4195.38) rotate(-81.58)"/><rect x="2710.95" y="1944.31" width="98.16" height="18.5" transform="translate(-524.95 1151.66) rotate(-21.57)"/><path d="m101.61,446.84l-284.23-140.18-8.68-543.32L220.93-67.78,101.61,446.84Zm-265.92-151.77l253.16,124.85L199.36-56.63-172.36-208.9l8.05,503.97Z"/><path d="m138.5,455.24L253.6-60.35l444.72,26.14-242.93,486.06-316.9,3.38ZM268.23-40.96l-106.59,477.45,282.26-3.01L669.23-17.39l-401-23.57Z"/><path d="m155,456.47l-68.81-15.66L203.18-73.28l68.81,15.66-116.98,514.1Zm-46.67-29.59l32.73,7.45L249.85-43.69l-32.73-7.45-108.77,478.02Z"/><rect x="213.68" y="-29.09" width="18.5" height="52.79" transform="translate(176.09 215.28) rotate(-77.18)"/><rect x="204.1" y="13.03" width="18.5" height="52.79" transform="translate(127.57 238.71) rotate(-77.18)"/><rect x="126.51" y="351.28" width="18.5" height="52.79" transform="translate(-262.96 423.46) rotate(-76.78)"/><rect x="136.39" y="309.23" width="18.5" height="52.79" transform="translate(-214.4 400.64) rotate(-76.78)"/><path d="m926.33,547.78c-31.23,0-56.65-25.41-56.65-56.65s25.41-56.64,56.65-56.64,56.65,25.41,56.65,56.64-25.41,56.65-56.65,56.65Zm0-94.79c-21.03,0-38.14,17.11-38.14,38.14s17.11,38.15,38.14,38.15,38.15-17.11,38.15-38.15-17.11-38.14-38.15-38.14Z"/><path d="m2179.03,92.94c-46.03,0-83.48-37.45-83.48-83.48s37.45-83.48,83.48-83.48,83.48,37.45,83.48,83.48-37.45,83.48-83.48,83.48Zm0-148.45c-35.83,0-64.98,29.15-64.98,64.98s29.15,64.98,64.98,64.98,64.98-29.15,64.98-64.98-29.15-64.98-64.98-64.98Z"/><path d="m3408.82,525.54c-.2-1.95-.38-3.91-.55-5.86-9.72-112.54,24.96-222.13,97.66-308.58,72.7-86.45,174.72-139.42,287.26-149.14,112.54-9.72,222.13,24.96,308.58,97.66,86.45,72.7,139.43,174.72,149.14,287.26,9.72,112.54-24.96,222.13-97.66,308.58-72.7,86.45-174.72,139.42-287.26,149.14-112.54,9.72-222.13-24.96-308.58-97.66h0c-84.95-71.44-137.56-171.18-148.59-281.39Zm825.67-82.83c-10.2-101.9-58.49-200.05-142.87-271.01-83.23-69.99-188.73-103.38-297.07-94.02-108.34,9.36-206.55,60.35-276.54,143.58-144.48,171.81-122.25,429.13,49.56,573.61,171.81,144.48,429.13,122.25,573.61-49.56,73.52-87.43,103.88-197.03,93.31-302.6Z"/><path d="m3493.72,517.01c-.16-1.56-.3-3.12-.44-4.68-7.76-89.83,19.92-177.31,77.96-246.32,58.03-69.01,139.46-111.29,229.3-119.05,89.83-7.76,177.31,19.92,246.32,77.96,69.01,58.03,111.32,139.45,119.05,229.29,7.76,89.83-19.92,177.31-77.96,246.32-58.03,69.01-139.46,111.29-229.3,119.05-89.83,7.76-177.31-19.92-246.32-77.96-67.81-57.02-109.81-136.64-118.61-224.62Zm656.05-65.89c-8.39-83.87-48.43-159.76-113.07-214.12-65.78-55.32-149.17-81.71-234.81-74.32-85.63,7.4-163.26,47.7-218.58,113.49-114.2,135.8-96.63,339.19,39.17,453.39l-5.08,6.03,5.08-6.03c135.8,114.2,339.19,96.63,453.39-39.17,55.32-65.78,81.71-149.17,74.31-234.81-.13-1.48-.27-2.98-.42-4.46Z"/><path d="m3646.71,700.17l10.4-11.85c19.71,17.3,41.66,31.57,65.25,42.41l-6.58,14.33c-24.98-11.48-48.22-26.58-69.07-44.88Z"/><path d="m3781.58,764.06l2.64-15.55c93.82,15.95,190.1-19.33,251.28-92.08l12.07,10.15c-32.55,38.7-74.79,68.08-122.17,84.95-45.97,16.37-95.71,20.7-143.82,12.52Z"/><polygon points="3379.17 190.91 3472.18 80.32 3566.97 160.04 3556.82 172.11 3474.09 102.54 3401.39 188.99 3482.65 257.33 3472.5 269.4 3379.17 190.91"/><path d="m2769.32-277.47l136.81-162.68,600.01,504.58-136.81,162.68-600.01-504.58Zm138.73-140.46l-116.51,138.54,575.88,484.28,116.51-138.54-575.88-484.28Z"/></g></g><path class="cls-3" d="m2520,696c-213.92,137.28-301.68,258-344.08,372.88-64,172.88-25.28,332.48-159.92,515.12-39.76,53.92-81.52,105.84-126.48,154.8-94.48,103.04-203.12,193.04-336.64,261.2H0V0h2923.12c50.24,245.6-54.88,472.48-403.12,696Z"/><path class="cls-3" d="m3112,432c-80,352-424,480-720,568-71.84,21.36-146.08,43.2-216.08,68.88-218.56,79.84-396.48,196.64-335.92,451.12,19.52,82,36.72,154,49.52,218.8,20.16,101.12,30,184.64,22.32,261.2H0V0h3029.68c72.8,146.8,115.04,288.08,82.32,432Z"/></g></g></g></svg>