<?xml version="1.0" encoding="UTF-8"?><svg id="Layer_2" xmlns="http://www.w3.org/2000/svg" xmlns:xlink="http://www.w3.org/1999/xlink" viewBox="0 0 2979.11 1919.86"><defs><style>.cls-1{fill:#f7c560;}.cls-2{fill:#f8f8ff;}.cls-3{fill:#e631bf;}.cls-4{fill:#e9ddaf;}.cls-5{fill:#fff;}.cls-6{fill:#fbedc4;}.cls-7{fill:#ff7180;}.cls-8{fill:#63c2ca;}.cls-9{fill:#dd31c5;}.cls-10{fill:#5371d7;}.cls-11{fill:#588dcb;}.cls-12{fill:#59f;}.cls-13{fill:#63bfca;}.cls-14{fill:#4c53cb;}.cls-15{fill:#61b6ca;}.cls-16{fill:#4b55cb;}.cls-17{fill:#5272cb;}.cls-18{fill:#4d4d4d;}.cls-19{filter:url(#drop-shadow-1);}.cls-20{fill:none;stroke:#fff;stroke-linecap:square;stroke-linejoin:round;stroke-width:20.14px;}</style><filter id="drop-shadow-1" filterUnits="userSpaceOnUse"><feOffset dx="3" dy="3"/><feGaussianBlur result="blur" stdDeviation="5"/><feFlood flood-color="#000" flood-opacity=".12"/><feComposite in2="blur" operator="in"/><feComposite in="SourceGraphic"/></filter></defs><g id="Layer_1-2"><path class="cls-18" d="m2598.35,513.83v1049.38c0,70.81-67.49,127.81-151.32,127.81H647.45c-83.83,0-151.32-57-151.32-127.81V513.83c0-70.81,67.49-127.81,151.32-127.81h1799.59c83.83,0,151.32,57,151.32,127.81Z"/><path class="cls-2" d="m2496.44,597.56v881.92c0,59.51-61.44,107.41-137.77,107.41H735.81c-76.32,0-137.77-47.91-137.77-107.41v-881.92c0-59.51,61.44-107.41,137.77-107.41h1622.86c76.32,0,137.77,47.91,137.77,107.41Z"/><path class="cls-5" d="m1575.99,437.57c0,7.63-3.03,14.94-8.42,20.33s-12.7,8.42-20.33,8.42-14.94-3.03-20.33-8.42-8.42-12.7-8.42-20.33,3.03-14.94,8.42-20.33c5.39-5.39,12.7-8.42,20.33-8.42,7.63,0,14.94,3.03,20.33,8.42,5.39,5.39,8.42,12.7,8.42,20.33Z"/><path class="cls-5" d="m2852.37,1563.44l-692.95-2.03c-14.37-.05-25.93,10.8-25.91,24.3l.51,99.97c.02,13.51,11.61,24.41,25.98,24.46l692.95,2.03c14.38.05,25.93-10.8,25.91-24.3l-.51-99.97c-.01-13.51-11.61-24.41-25.98-24.46Z"/><path class="cls-12" d="m2228.89,1729.83h656.44c28.71.9,33.18-37.44,0-40.24h-660.14c-18.95,0-47.22-1.39-60.01-4.17-12.63-2.88-22.49-7.92-29.58-15.13-6.93-7.2-10.4-22.89-10.4-35.86,0-17.91,7.09-36.16,21.26-43.57,14.33-7.41,48.38-11.11,77.34-11.11h661.52c34.96-4.56,25.55-40.65,0-40.24h-656.44c-26.5,0-48.6-3.85-66.32-.35-17.72,3.4-33.28,15.48-46.68,25.05-11.4,8.23-19.72,17.8-24.96,28.71-5.24,10.91-7.86,23.67-7.86,38.28,0,17.39,2.77,32.36,8.32,44.92,5.7,12.55,14.4,22.79,26.11,30.72,11.86,7.92,26.96,13.74,45.29,17.44,18.49,3.7,40.52,5.56,66.09,5.56Z"/><path class="cls-9" d="m2853.83,1377.4l-746.74-2.3c-15.49-.05-27.95,12.2-27.92,27.47l.55,112.98c.02,15.26,12.51,27.59,28,27.64l746.74,2.3c15.49.05,27.95-12.2,27.93-27.47l-.55-112.98c-.01-15.26-12.51-27.59-28-27.64Z"/><path class="cls-20" d="m2187.08,1460.29c0,24.53,19.89,44.42,44.42,44.42,24.53,0,44.42-19.89,44.42-44.42,0-24.53-19.89-44.42-44.42-44.42-24.53,0-44.42,19.89-44.42,44.42Z"/><path class="cls-5" d="m2674.02,1397c-6.07,2.7-9.93,8.76-9.81,15.4.27,78.53-.75,17.17-.48,95.93-.05,5.96,3.1,11.48,8.26,14.46s11.52,2.96,16.65-.06c5.14-3.02,8.25-8.57,8.15-14.52-.27-78.53.75-17.17.48-95.93.06-5.63-2.75-10.9-7.45-13.99-4.7-3.09-10.66-3.58-15.8-1.29Z"/><path class="cls-5" d="m2729.94,1397c-6.07,2.7-9.93,8.76-9.81,15.4.27,78.53-.75,17.17-.48,95.93-.05,5.96,3.1,11.48,8.26,14.46,5.16,2.98,11.52,2.96,16.65-.06,5.14-3.02,8.25-8.57,8.15-14.52-.27-78.53.75-17.17.48-95.93.06-5.63-2.75-10.9-7.45-13.99-4.7-3.09-10.66-3.58-15.8-1.29Z"/><path class="cls-5" d="m2618.09,1397c-6.07,2.7-9.93,8.76-9.81,15.4.27,78.53-.75,17.17-.48,95.93-.05,5.96,3.1,11.48,8.26,14.46,5.16,2.98,11.52,2.96,16.65-.06,5.14-3.02,8.25-8.57,8.15-14.52-.27-78.53.75-17.17.48-95.93.06-5.63-2.75-10.9-7.45-13.99-4.7-3.09-10.66-3.58-15.8-1.29Z"/><path class="cls-1" d="m2248.65,1757.95l-.58-169.25c-.01-5.24,3.07-9.45,6.92-9.44l105.76.19c3.85,0,6.95,4.23,6.96,9.47l.58,169.25c.01,5.24-3.07,9.45-6.92,9.44l-53.79-53.52-51.97,53.33c-3.85,0-6.95-4.23-6.96-9.47Z"/><path class="cls-10" d="m258.44,324.01c0,70.5-.04,207.23-.04,207.23,1.12,247.4,656.9,247.83,656.1,7.46,0,0-.9-69.7-.9-234.2,0-42.05-33.48-62.36-72.38-62.12-103.11.65-400.6-2.03-503.64-2.03-36.68,0-79.14,23.32-79.14,51.61v32.05Z"/><path class="cls-1" d="m174.18,529.97c12.4,27.52,27.26,78.25,23.24,108.15-4.02,29.9-26.94,38.96-46.3,38.82-19.36-.14-35.14-9.47-40.57-31.76-5.43-22.29-.49-57.52,6.47-84.91,6.96-27.38,15.94-46.92,25.39-54.53,9.45-7.61,19.37-3.3,31.77,24.22Z"/><path class="cls-14" d="m14.53,249.93L552.89,7.25c19.63-8.85,51.52-8.71,71.51.3l537.04,242.08c19.99,9.01,20.29,23.39.66,32.23l-538.36,242.67c-19.63,8.85-51.52,8.71-71.51-.3L15.19,282.16c-19.99-9.01-20.29-23.39-.66-32.23Z"/><path class="cls-1" d="m162.22,310.81l399.06-67.18c7.37-1.24,15.47,2.6,15.99,11.61.52,9.01-5.18,15.04-12.55,16.24l-401.19,68.98.57,102.56s-17.79,25.73-25.76-5.81c-4.06-16.09,3.72-89.98-2.69-111.72-2.55-8.66,19.2-13.44,26.57-14.69Z"/><path class="cls-1" d="m563.36,219.93c-10.91,3.96-19.61,11.56-24.2,21.13-4.59,9.56-4.68,20.31-.27,29.87,9.2,19.91,35.07,29.37,57.78,21.11,22.71-8.25,33.67-31.09,24.47-51-4.42-9.56-12.99-17.16-23.82-21.12-10.84-3.96-23.05-3.96-33.96,0Z"/><path class="cls-1" d="m136.34,434.79c-9.12,3.74-16.41,10.91-20.24,19.93-3.84,9.02-3.92,19.15-.22,28.17,7.69,18.78,29.33,27.7,48.33,19.91,19-7.78,28.16-29.32,20.47-48.1-3.69-9.02-10.86-16.18-19.93-19.92s-19.28-3.73-28.4,0Z"/><path class="cls-8" d="m2339.66,562.65h420.66c11.07,0,19.97,6.9,19.97,15.48,0,0-107.58,162.15-105.28,249.69,2.05,77.91-252.21,82.73-250.04,0,2.17-82.73-105.28-249.69-105.28-249.69,0,0,8.91-15.48,19.97-15.48Z"/><path class="cls-15" d="m2813.77,474.66c0,67.88-27.79,132.97-77.26,180.97-49.47,47.99-116.56,74.96-186.52,74.96-145.68,0-263.78-114.58-263.78-255.92,0-141.34,118.1-255.92,263.78-255.92,69.96,0,137.05,26.96,186.52,74.96,49.47,47.99,77.26,113.09,77.26,180.97Z"/><path class="cls-6" d="m2961.64,243.02c-2.88-.13-5.74.42-8.37,1.61-79.91,34.76-17.29,8.5-96.97,43.16-6.09,2.54-10.34,8.17-11.11,14.72-.78,6.55,2.03,13.02,7.36,16.92,5.32,3.9,12.34,4.63,18.35,1.91,79.91-34.76,17.29-8.5,96.97-43.16,7.9-3.3,12.45-11.64,10.95-20.07s-8.63-14.7-17.18-15.08Z"/><path class="cls-6" d="m2138.64,235.47c-8.8-.21-16.5,5.86-18.34,14.47-1.84,8.61,2.71,17.3,10.83,20.7,79.68,34.66,17.06,8.4,96.97,43.16,6.01,2.72,13.02,1.99,18.35-1.91,5.32-3.9,8.14-10.36,7.36-16.92-.78-6.55-5.02-12.18-11.11-14.72-79.68-34.66-17.06-8.4-96.97-43.16-2.23-1.01-4.64-1.56-7.09-1.62Z"/><path class="cls-6" d="m2739.99.02c-7.08-.32-13.67,3.62-16.73,10.01-37.27,75.11-8.92,16.03-46.3,91.36-2.9,5.66-2.53,12.44.97,17.76,3.5,5.31,9.58,8.33,15.93,7.9,6.35-.43,11.97-4.23,14.73-9.97,37.28-75.11,8.92-16.03,46.3-91.36,2.75-5.35,2.59-11.72-.43-16.92s-8.47-8.51-14.47-8.78Z"/><path class="cls-6" d="m2349.07,16.94c-5.7-.14-11.05,2.74-14.08,7.57-3.03,4.83-3.29,10.9-.68,15.97,34.2,68.93,8.26,14.87,42.37,83.6,2.53,5.23,7.67,8.7,13.47,9.08,5.8.38,11.35-2.37,14.55-7.22s3.55-11.04.91-16.22c-34.21-68.93-8.26-14.87-42.37-83.6-2.62-5.48-8.1-9.03-14.18-9.17Z"/><path class="cls-11" d="m2416.83,871.57c0,88.63,58.63,146.26,130.96,146.26s130.96-57.64,130.96-146.26-58.63-77.45-130.96-77.45-130.96-11.17-130.96,77.45Z"/><path class="cls-17" d="m2435.87,855.7h227.26c19.01,0,34.32,13.97,34.32,31.33v3.69c0,17.36-15.31,31.33-34.32,31.33h-227.26c-19.01,0-34.32-13.97-34.32-31.33v-3.69c0-17.36,15.31-31.33,34.32-31.33Z"/><path class="cls-16" d="m2435.87,794.67h227.26c19.01,0,34.32,13.97,34.32,31.33v3.69c0,17.36-15.31,31.33-34.32,31.33h-227.26c-19.01,0-34.32-13.97-34.32-31.33v-3.69c0-17.36,15.31-31.33,34.32-31.33Z"/><path class="cls-1" d="m492.2,1543.07c27.4,23.09,83.64,26.47,103.94,27.36,27.78,1.22,59.21-11.78,64.37-35.79,11.37-52.89-35.13-78.82-96.9-130.2-34.89-29.03-55.83-43.51-71.25-74.12-21.85-43.38,5.3-116.89-24.32-143.67-29.61-26.78-64.91-21.77-90.61-5.79-19.53,12.14-28.76,37.21-26.53,63.69,2.24,26.48,32.76,60.09,42.13,81.01,36.68,81.84,38.23,166.16,99.17,217.51Z"/><path class="cls-13" d="m502.68,1606.09c0,30.02,1.17,114.29,1.17,114.29,0,41.98,159.4,40.12,159.4,3.18,0,0,.82-55.73.82-125.78,0-17.91-8.25-26.55-17.83-26.45-25.4.28-99.43-.86-124.81-.86-9.04,0-18.75,1.81-18.75,21.97v13.65Z"/><path class="cls-5" d="m504.68,1580.68c0,34.75,154.12,33.21,154.12,2.63,0,0-.21,57.15-.21-.82-.15-30.66-152.82-30.12-153.9-1.19,0,35.3,0-35.91-.01-.62Z"/><path class="cls-5" d="m448.7,1218.41c-.06.23-.08.46-.07.7,1.17,60.79,2.2,121.89,25.21,166.98,23.01,45.1,67.34,73.11,88.01,101.45,20.67,28.33,19.16,57.83,17.61,88.26-.07.95.38,1.86,1.17,2.38.79.52,1.81.57,2.65.14.84-.44,1.38-1.3,1.41-2.25,1.56-30.42,3.16-61.77-18.61-91.61-21.77-29.83-65.42-57.3-87.58-100.74-22.16-43.44-23.47-103.92-24.64-164.71,0-1.32-1-2.43-2.31-2.58s-2.53.7-2.84,1.99Z"/><path class="cls-3" d="m575.38,1395.61c6.33,43.47-27.84,111.05-10.35,131.33,23.94,42.63,96.25,59.08,127.31-.74,29.64-57.07,37.17-88.68,14.14-194.95-12.21-56.35-35.73-64.7,3.79-127.82,19.67-31.42,41.09-77.07,41.76-102.3.67-34.23-27.37-73.12-60-84.28-31.3-10.7-67.88-1.66-95.01,28.68-27.13,30.34-39.02,53.71-48.5,99.45-27.86,134.52,20.22,205.07,26.85,250.62Z"/><path class="cls-5" d="m667.5,1112.6c-.16.17-.3.36-.41.57-29.38,53.23-59.03,106.66-61.66,157.22-2.63,50.56,21.7,96.87,23.53,135.6,1.84,38.72-18.24,71.58-30.34,99.15s-15.65,49.14-19.13,70.36c-.16.93.18,1.87.91,2.47.73.6,1.72.76,2.6.43.88-.34,1.51-1.12,1.65-2.05,3.49-21.22,6.91-42.11,18.76-69.11,11.85-27,32.7-60.85,30.77-101.5-1.93-40.65-26.06-86.38-23.53-135.08,2.53-48.7,31.64-101.73,61.02-154.96.66-1.15.35-2.61-.71-3.39-1.06-.79-2.54-.66-3.46.3Z"/><path class="cls-7" d="m828.75,1389.75c10-17.03,18.65-39.65,14.73-57.4-5.38-24.3-44.91-49.82-73.04-44.83-47.67,8.46-59.99,48.62-90.1,113.91-17.01,36.88-29.35,52.99-35.04,59.08-12.11,12.97-42.87,35.13-51.62,49.34-8.75,14.2-5.36,39.42,4.53,50.55,9.9,11.13,43.23,10.44,58.67,3.79,15.44-6.65,62.23-72.43,78.13-85.38,62.25-50.66,71.91-51.89,93.73-89.06Z"/><path class="cls-5" d="m798.33,1350.57c-.59-.03-1.17.15-1.65.49-25.15,17.59-50.64,35.4-72.65,65.43-22.01,30.03-40.36,71.84-57.4,96.11-17.03,24.27-32.69,31.51-47.05,39.02-14.36,7.51-26.63,14.8-38.85,22.07-.82.47-1.33,1.34-1.32,2.29,0,.95.52,1.82,1.35,2.27.83.46,1.84.43,2.64-.07,12.22-7.27,24.39-14.5,38.6-21.93,14.21-7.43,31.28-15.53,48.91-40.65,17.63-25.12,35.88-66.75,57.33-96.03,21.45-29.28,46.27-46.64,71.43-64.23.93-.63,1.35-1.79,1.05-2.87-.31-1.08-1.27-1.85-2.4-1.9Z"/><path class="cls-1" d="m1755.29,1833.04l-659.02-1.39c-17.59-.04-31.4,19.19-30.96,43.12.45,23.93,14.97,43.23,32.56,43.27l659.02,1.39c17.59.04,31.4-19.19,30.96-43.12-.45-23.93-14.97-43.23-32.56-43.27Z"/><polygon class="cls-4" points="1091.25 1832.39 1090.57 1919.86 961.12 1876.44 1091.25 1832.39"/><polygon class="cls-5" points="961.12 1876.44 987.41 1885.15 987.55 1867.57 961.12 1876.44"/><polygon class="cls-5" points="961.12 1876.44 987.41 1885.15 987.41 1885.15 987.1 1880.71 961.12 1876.44"/><polygon class="cls-5" points="961.12 1876.61 987.1 1880.71 987.33 1872.17 961.12 1876.61"/><image class="cls-19" width="904" height="407" transform="translate(702.61 720.28) scale(1.79 1.84)" xlink:href="../../icon/tes-for light bgAsset 4@0.5x.png"/></g></svg>